<?xml version="1.0" encoding="UTF-8"?> <svg xmlns="http://www.w3.org/2000/svg" viewBox="0 0 693 203.3"><g data-name="Layer 2"><g data-name="Layer 1"><path d="m564.8 188.8-4.3-9L477.9 45c-7.7-19.1-16.3-39-27.4-41.7-4.5-1.1-6.8 0-6.8 5-.2 11.7 18.4 33.3 26 40.6l87.6 133 7.5 6.9ZM449.4 13.1c-.5-3.5.6-4.4 3.7-2.8a33 33 0 0 1 9.9 11.2c4 5.8 9.4 14.2 8.2 20.9-4.9-1.5-10.7-9.8-15-16.6a36.2 36.2 0 0 1-6.8-12.7Z" fill-rule="evenodd" stroke="#000002" stroke-miterlimit="22.9" fill="#000002" stroke-width="1.1"></path><path class="cls-2" d="M121 93.8 159.2 33a3.6 3.6 0 0 1 2.9-1.6h30.3c2.5.2 4.3 2.6 2.8 5.2l-38.6 59.6a9.3 9.3 0 0 0 0 10.1l50 77a3.5 3.5 0 0 1-2.8 5.2h-34.3a3.5 3.5 0 0 1-3-1.7l-45.9-73.4c-2.5-4.2-5-13.2.4-19.6Z"></path><path class="cls-2" d="M81.8 185.1V34.7a3.4 3.4 0 0 1 3.4-3.4h29.2a3.4 3.4 0 0 1 3.4 3.4v150.5a3.5 3.5 0 0 1-3.4 3.3H85.1a3.4 3.4 0 0 1-3.3-3.4Zm87.7-85.6 41.5-65c3.5-4.7 9.5-4.2 12.2 0l96 148.1c2 2.8-1 5.7-3 5.3h-35.4a3.4 3.4 0 0 1-3-1.5L262.3 162a3.5 3.5 0 0 0-2.9-1.7h-50.1a3.3 3.3 0 0 1-2.8-1.5l-3.7-5.3c-1.9-2-.6-5.4 2.5-5.6H247c1.7.4 4.8-2.3 2.7-5.3l-29.3-45.2c-1.7-2.4-4-2-5.8-.2l-21.2 33.3c-1.3 2.1-4.6 2.4-5.8.1l-18-27.3a3.6 3.6 0 0 1 0-3.9Zm111.1 0 41.6-65c3.5-4.7 9.4-4.2 12.2 0l95.9 148.1c2 2.8-1 5.7-2.9 5.3H392a3.4 3.4 0 0 1-2.9-1.5L373.3 162a3.5 3.5 0 0 0-2.9-1.7h-50a3.3 3.3 0 0 1-3-1.5l-3.6-5.3c-1.9-2-.6-5.4 2.6-5.6H358c1.7.4 4.8-2.4 2.8-5.3l-29.3-45.2c-1.8-2.4-4-2-5.8-.2l-21.3 33.3c-1.2 2.1-4.5 2.4-5.7.1l-18-27.3a3.6 3.6 0 0 1 0-3.9Zm111.2 0 41.5-65c3.5-4.7 9.4-4.2 12.2 0L449 40c-.7 10.2-11 18.7-7.6 50H455a60.2 60.2 0 0 1 3.5-35.4l83 128c2 2.8-1 5.7-3 5.3H503a3.4 3.4 0 0 1-2.9-1.5L484.4 162a3.5 3.5 0 0 0-2.9-1.7h-50a3.3 3.3 0 0 1-2.9-1.5l-3.7-5.3c-1.8-2-.6-5.4 2.6-5.6H469c1.7.4 4.8-2.3 2.8-5.2l-29.3-45.3c-1.8-2.4-4-2-5.8-.2l-21.3 33.3c-1.3 2.1-4.5 2.4-5.8.1l-17.9-27.3a3.6 3.6 0 0 1 0-3.9ZM481 30l74.2.2c44 0 57.5 5.8 74 28l20.6 32.5c10 20.5 1 39.3-22.8 42h-27c-7 .5-10.6 7.4-7 13.2l24.3 36.8a3.4 3.4 0 0 1-2.7 5.4L579 188a3.6 3.6 0 0 1-2.8-1.6L527 110.5c-1.6-2.4 0-5.1 2.8-5.3h69.4c7.1.6 12-4.2 9.7-10l-16.8-26a24 24 0 0 0-18.4-11.4H495a3.5 3.5 0 0 1-2.8-1.5l-14-21a3.4 3.4 0 0 1 2.7-5.3Z"></path><path d="m562.4 189.4-4.3-9-82.6-134.8c-7.7-19.2-16.3-39-27.4-41.7-4.5-1.1-6.7-.1-6.8 5-.1 11.6 18.5 33.2 26.1 40.5l87.6 133 7.4 7ZM447.2 13.7c-.5-3.5.6-4.4 3.6-2.8a33 33 0 0 1 10 11.2c4 5.8 9.4 14.2 8.2 20.9-4.9-1.5-10.8-9.8-15.1-16.6-2.2-3.1-6-8.5-6.7-12.7Z" fill="#99958f" stroke-width="1.4" fill-rule="evenodd" stroke="#000002" stroke-miterlimit="22.9"></path><path d="M451 86.9c0-10.7-1.6-20.2 5-34.6 1.6-10.3 10.3-17.2 4.5-30.9-3.2-4.5-7-6-12.9-5.9a30.1 30.1 0 0 0 4 7.5 6.5 6.5 0 0 1 2.6 5c1.5 11.4-7 23.9-9 36a71.1 71.1 0 0 0-.4 22.8l6.3.1Zm-8.2-71a57.8 57.8 0 0 0 2.8 5.8 23 23 0 0 0-3.2.5l-19.5 5c-10.6 1-16.8-.7-24.8-6L382.3 9.9c-5.3-4.1-14.7-5.1-30 2.4a46.2 46.2 0 0 1-17.9 6H95.9a89.2 89.2 0 0 0 1.8 178.3l499.1.1c116.3-3.4 121.1-172.4.8-178.4H468.7l-4.4-6.6h133.3c122.6 5.6 131.8 184.2-.6 191.5H96.4A95.7 95.7 0 0 1 96 11.7h238.3A22.5 22.5 0 0 0 344.8 9c8.4-3 11.4-7.7 26.8-9 7 0 14 3.5 19.3 7.7a43 43 0 0 0 24.6 12.7c8.5.3 17.2-3 25.8-4.4Z" fill="#e61d2f" fill-rule="evenodd"></path></g></g></svg> 