<?xml version="1.0" encoding="UTF-8"?> <svg xmlns="http://www.w3.org/2000/svg" viewBox="0 0 400 200" xml:space="preserve"><linearGradient id="a" gradientUnits="userSpaceOnUse" x1="92.5" y1="56.2" x2="92.5" y2="144.8"><stop offset="0" stop-color="#fff100"></stop><stop offset="1" stop-color="#ffce01"></stop></linearGradient><path d="M95.3 56.2c-12.2 0-22.1 10-22.1 22.1a57 57 0 0 0 6.8 24.1c0 .2.2.3.3.5 0 .3.2.6.4.9 0 .3.2.6.3.8l.4 1 .4.8.4.8.3 1 .4.8c0 .3.2.5.3.8l.4.9c0 .3.1.6.3.8l.2.9.3.8.3.9.2.8.2.8.2.9.2.8c0 .3 0 .6.2.8v.8l.2.9v.9l.1.7v2.3l-.1.8-.1.7-.2.7-.2.7-.2.7a4 4 0 0 0-.3.6 5 5 0 0 0-.3.7l-.4.6-.3.6-.4.6-.5.5-.5.6-.4.4-.6.5a5 5 0 0 0-.6.5l-.5.4-.6.3-.6.4a4 4 0 0 0-.7.3l-.6.3c-.2 0-.4 0-.7.2l-.7.2-.7.2-.7.1h-.7l-.8.1h-1.3a4.7 4.7 0 0 0 0 9.3h2l1-.1c.4 0 .8 0 1.2-.2.4 0 .8 0 1.2-.2.5 0 .9-.1 1.3-.3.4 0 .7-.1 1.1-.3l1.2-.4 1.1-.5c.4-.2.8-.3 1.1-.6l1-.5c.4-.2.8-.4 1-.7a5 5 0 0 0 1-.7l1-.7.9-.9.8-.8.9-1 .7-.8.7-1 .7-1 .5-1 .6-1.2.5-1.1.4-1.2c.2-.4.3-.7.3-1.1.2-.4.3-.8.3-1.3l.2-1.2.2-1.2.1-1v-3l-.1-.9-.1-1c0-.4 0-.8-.2-1.1l-.1-1.1-.2-1.1c0-.4-.2-.7-.3-1a4 4 0 0 0-.2-1.1c0-.4-.2-.7-.3-1a5 5 0 0 0-.3-1.1 2 2 0 0 0-.3-1l-.3-1-.3-1-.4-1c0-.3-.2-.6-.4-1l-.3-.9-.4-1-.4-.9-.4-.9-.4-1-.4-.8a5 5 0 0 0-.4-1l-.4-.8-.2-.5c-3-6.9-6-13.3-6-20.3a12.8 12.8 0 0 1 25.6 0h9.3a22 22 0 0 0-22.1-22z" fill="url(#a)"></path><path d="M161.8 144.8a22.2 22.2 0 0 1-22.2-22c0-9 3.5-16.7 6.8-24.2l8.5 3.8c-3 6.9-6 13.4-6 20.3 0 7 5.8 12.8 12.8 12.8v9.3z" fill="#00adee"></path><linearGradient id="b" gradientUnits="userSpaceOnUse" x1="63.5" y1="56.2" x2="63.5" y2="144.7"><stop offset="0" stop-color="#f6921e"></stop><stop offset=".9" stop-color="#f4d12a"></stop></linearGradient><path d="M71.4 135.4a4 4 0 0 0-.7 0 5 5 0 0 0-.7-.3l-.7-.2-.7-.2a5 5 0 0 0-.6-.2l-.6-.4-.7-.3-.6-.4-.5-.4-.6-.4-.5-.5-.5-.5-.5-.5-.5-.6c0-.2-.2-.3-.4-.5l-.3-.6a4 4 0 0 0-.4-.6c0-.3-.2-.5-.3-.7l-.3-.6-.2-.7-.3-.7a5 5 0 0 0-.1-.7c0-.2 0-.4-.2-.7v-.7l-.1-.8v-2.4l.2-.8v-.9l.2-.8.1-.8.2-.8.2-.9.2-.8.2-.8.3-.9.3-.8.2-.9c.2-.3.3-.5.3-.8l.4-.9c0-.3.2-.5.3-.8l.3-.9.4-.9.3-.8.4-.9.4-.9.4-.8.4-1 .4-.8.4-1 .4-.8.4-1 .4-.9.4-1 .4-.9c.1-.3.3-.6.3-1 .2-.2.3-.5.4-.9l.4-1 .4-1 .3-1c.1-.2.3-.5.3-.9.2-.3.3-.6.3-1 .2-.3.2-.6.3-1l.3-1 .2-1.1.2-1 .2-1.1.2-1.1.2-1.1v-1.1l.1-.9v-1.4l.1-.6a22 22 0 0 0-22.1-22v9.2c7 0 12.8 5.8 12.8 12.8v2.1l-.2.9v.8l-.2.8-.1.8-.2.9-.2.8-.2.8-.2.9c-.2.2-.3.5-.3.8l-.3.9-.3.8a4 4 0 0 0-.3.9l-.3.8-.3.9a5 5 0 0 0-.4.8l-.3.9-.4.9-.4.8a4 4 0 0 0-.4 1l-.3.8-.4.9-.4.9-.4 1-.4.8-.4 1c-.2.2-.3.5-.4.9l-.4.9a5 5 0 0 0-.4 1l-.4.9-.4 1c-.1.3-.3.6-.3 1-.2.2-.3.6-.4 1l-.3.9-.4 1-.3 1a5 5 0 0 0-.2 1c-.2.3-.2.7-.3 1l-.2 1.1-.3 1-.1 1.1c-.2.4-.2.8-.2 1.1l-.2 1.1v1.1l-.1.9v4l.2 1.2c0 .4.1.9.3 1.2 0 .5.1.9.3 1.3 0 .4.1.7.3 1.1l.4 1.2.5 1.1c.2.4.3.8.6 1.1.1.4.3.7.6 1l.6 1c.2.4.5.8.8 1l.7 1 .8.8.9.9c.3.3.5.6.9.8l1 .7c.2.3.6.5 1 .7.2.3.6.5 1 .7l1 .5c.3.3.7.4 1.1.6l1.1.4 1.2.5 1.2.3 1.2.3 1.3.2 1 .1a4.7 4.7 0 0 0 .2-9.3z" fill="url(#b)"></path><linearGradient id="c" gradientUnits="userSpaceOnUse" x1="108.7" y1="78.3" x2="108.7" y2="144.8"><stop offset="0" stop-color="#f8e92d"></stop><stop offset=".9" stop-color="#94c149"></stop></linearGradient><path d="M117.5 135.5H116l-.4-.1-.5-.1-.5-.1-.5-.1-.4-.2h-.2l-.4-.1-.5-.2-.4-.2-.4-.2-.5-.2v-.1l-.5-.2-.4-.3-.4-.3-.4-.2c0-.2-.2-.3-.3-.4h-.2c0-.2-.2-.3-.3-.4l-.3-.3-.4-.3-.3-.4-.3-.3v-.1l-.4-.4-.2-.4-.3-.4-.3-.4c0-.1 0-.3-.2-.4v-.1l-.3-.4c0-.2 0-.3-.2-.5l-.1-.4-.2-.5-.1-.4v-.2l-.2-.4-.1-.5-.1-.5v-.5l-.1-.5V120l.1-.6.1-.5v-.5l.2-.5v-.5l.2-.6.1-.5.1-.5.2-.5.1-.5.1-.5.2-.6v-.2l.2-.5.2-.5.2-.5.1-.5.2-.5.2-.6.2-.5.2-.5.2-.5.2-.5.3-.6a8.1 8.1 0 0 0 .4-1l.2-.5.2-.5.3-.6.2-.5.2-.5.3-.5.2-.6.2-.5.3-.5.2-.6.3-.5.2-.5.2-.6.3-.5.2-.6.3-.5.2-.6.2-.5.2-.6.3-.5.2-.6.2-.5.2-.6.2-.5.2-.6.2-.6.2-.5.2-.6.2-.6.3-.9.2-.6.1-.5.2-.6.1-.6.2-.6.1-.6.2-.6v-.6l.2-.6V84l.2-.7v-.6l.1-.6.1-1 .1-.5v-2.4h-9.2v1.9l-.1.6v.2l-.1.5v.5l-.1.5-.1.6-.1.5-.1.5-.1.5-.1.5-.2.6-.1.5-.2.5-.1.5-.2.5v.2l-.2.5-.2.6-.1.5-.2.5-.2.5-.2.5-.2.5-.2.6-.2.5-.2.5-.2.5-.3.5-.2.6-.2.5-.2.5-.3.5-.2.6-.2.5-.3.5-.2.6-.2.5-.3.5-.2.5-.3.6-.2.5-.2.6-.3.5-.2.5-.3.6-.2.5-.2.6-.2.5-.3.6-.2.5-.2.6-.2.5-.2.6-.2.6-.2.6-.2.5-.2.6-.2.6-.3.9-.2.5-.1.6-.2.6-.1.6-.2.6-.1.6-.1.6-.2.6v.6l-.2.6v.7l-.1.6-.1 1-.1.5v1.4l-.1.4v2.4l.1 1 .1.6.1.7.2.7.1.7.2.6.2 1 .3.6.2.7.3.6.2.6.3.6.5.9c0 .2.2.4.3.5l.4.6.3.6.4.5.4.5.6.8.5.5.4.5.5.4.4.5.5.4.8.7.5.4.5.4.6.3.6.4.5.3.9.5.6.3.6.3.6.3.6.2.7.2c.3.2.6.3 1 .3l.6.2.6.2.7.1.7.1.7.1 1 .1.6.1h1.2c2.6 0 4.6-2 4.6-4.6.1-2.6-2-4.7-4.5-4.7z" fill="url(#c)"></path><linearGradient id="d" gradientUnits="userSpaceOnUse" x1="131.9" y1="56.2" x2="131.9" y2="144.8"><stop offset="0" stop-color="#41b98b"></stop><stop offset="1" stop-color="#8bc53f"></stop></linearGradient><path d="M142.3 56.4a5 5 0 0 0-1-.1h-.8l-.3-.1H138l-1 .2h-.7l-.3.1h-.3l-.4.1-.3.1h-.3l-.4.2h-.3l-.3.1-.9.3-.3.1-.3.1-.4.1-.3.2h-.3l-.3.2-.3.1a4 4 0 0 0-.3.2l-.3.1-.3.2a5 5 0 0 0-.8.4l-.3.2-.3.1-.2.2-.3.2-.3.2-.3.1a4.4 4.4 0 0 0-.5.4l-.3.2-.2.2-.3.2-.7.6-.2.2-.3.3-.2.2-.2.2-.3.2-.2.2-.2.3-.2.2-.3.3-.2.2-.5.7-.3.3-.1.2-.2.3-.2.3-.2.2-.2.3-.2.3-.1.3-.2.3-.2.2-.4.9-.2.3-.1.2-.2.3v.3l-.2.3-.2.3v.4l-.2.3-.1.3-.1.3-.3.9v.3l-.2.3v.4a4 4 0 0 0-.2.6v.4l-.1.3v.3l-.1.4v.3c-.2.3-.2.6-.2 1V78l-.1.3a57 57 0 0 0 6.8 24c3 7 6 13.4 6 20.4 0 7-5.8 12.8-12.8 12.8v9.3a22 22 0 0 0 22-22.1c0-9-3.4-16.7-6.7-24.1-3-6.9-6-13.4-6-20.3V77l.1-.3v-.6l.1-.2.1-.3v-.3l.1-.3.1-.2v-.3l.1-.2.1-.3.1-.2.1-.3.1-.3.2-.2a6 6 0 0 0 .2-.5l.1-.3.1-.2.2-.2.1-.2.2-.3.1-.2.2-.2.1-.2.2-.2.1-.3.2-.1.2-.2.1-.2.2-.2.2-.2.2-.2.2-.2.2-.2.2-.2.2-.1.2-.2.2-.2.3-.1.2-.2.2-.1.2-.2.3-.1.2-.2h.2l.2-.2.3-.1.2-.2h.3l.3-.2h.2l.3-.2h.2l.3-.2h.5l.3-.2h.5l.3-.1h.3l.2-.1h.6l.3-.1h2.3l.6.1a4.6 4.6 0 0 0 .7-9.2z" fill="url(#d)"></path><linearGradient id="e" gradientUnits="userSpaceOnUse" x1="149.5" y1="56.4" x2="149.5" y2="105.2"><stop offset="0" stop-color="#41b98b"></stop><stop offset="1" stop-color="#00adee"></stop></linearGradient><path d="M161.7 78.5v-2.1l-.2-1v-.7l-.2-.3v-.7l-.2-.3v-.3l-.1-.3-.1-.4v-.3l-.4-.9V71l-.2-.3-.1-.3-.1-.3-.2-.3v-.4l-.2-.3-.2-.3-.1-.2-.2-.3a5 5 0 0 0-.4-.9s0-.2-.2-.2l-.1-.3-.2-.3-.2-.3s0-.2-.2-.3l-.1-.2-.2-.3-.2-.3-.2-.2-.2-.3a5 5 0 0 0-.6-.7l-.2-.2-.2-.3-.2-.2a5.1 5.1 0 0 0-.5-.5l-.2-.2-.3-.3-.2-.2-.3-.2-.2-.2-.7-.6-.3-.2-.2-.2a4.3 4.3 0 0 0-.5-.4l-.3-.2-.3-.1-.3-.2-.2-.2-.3-.2-.3-.1-.3-.2a5 5 0 0 0-.8-.4l-.3-.2-.3-.1-.3-.2-.3-.1-.3-.1-.3-.2h-.3l-.3-.2-.3-.1-.4-.1-.9-.3h-.3l-.3-.2h-.3l-.4-.1a3.9 3.9 0 0 0-.6-.2h-.7l-1-.2a4.7 4.7 0 0 0-.7 9.3h.6l.2.1h.3l.3.1.3.1h.2l.3.1.2.1.3.1.3.1.2.1.3.1.2.1.3.2h.2l.2.2.2.1.3.2.2.1.3.2.2.1.2.2.2.1.2.2.2.2.2.1.2.2.2.2.2.2.2.2.2.2.2.2.2.2.1.2.2.1.2.3.1.2.2.2.1.2.2.3.1.2.2.2.1.3.1.2.2.2v.3l.2.2.1.3.1.2.1.3.1.2.1.3v.2l.2.3v.3l.1.2v.3l.1.3v.3l.1.3v.5l.1.3v3.7l-.1.2v.3l-.1.3v.6l-.1.3v.3l-.1.3a14.4 14.4 0 0 0-.2.6v.5l-.1.3-.1.3v.3l-.1.3-.1.3v.2l-.2.3v.3l-.1.3-.1.3v.2l-.2.3v.3l-.2.3v.2l-.2.3v.3l-.2.3v.3l-.2.2v.3l-.2.3v.3l-.2.3-.1.3-.1.2-.1.3a8.6 8.6 0 0 0-.3.6v.2l-.2.3-.1.3-.1.3-.2.3v.2l-.2.3-.1.3-.1.3-.2.3v.2l-.2.3-.1.3-.2.3v.3l-.2.2-.1.3-.2.3v.3l-.2.3-.2.3a6 6 0 0 0-.4 2 4.7 4.7 0 0 0 9.1 1.3l.2-.2v-.3l.2-.3.1-.3.2-.3.1-.3.1-.2.1-.3.2-.3V99l.2-.3.1-.3.2-.2a8.6 8.6 0 0 0 .3-1l.1-.2.2-.3v-.3l.2-.3.1-.3.1-.2.1-.3.2-.3v-.3l.2-.3.1-.3.1-.3.1-.3.1-.3.1-.3.1-.3.1-.2.1-.3.1-.3.1-.3.1-.3.1-.3.1-.3c.2-.3.2-.6.3-1l.1-.2v-.3l.2-.3v-.3l.1-.3.1-.3.1-.3v-.3l.1-.3.1-.3v-.3l.2-.3v-.7l.1-.3.1-.3a19.2 19.2 0 0 0 .1-.6V84l.1-.3v-.4l.1-.3v-.6l.2-1v-.9l.1-.3v-1.8z" fill="url(#e)"></path><path class="st6" d="M285.6 96.2c-.3 0-.5-.1-.8-.3-.3-.1-.4-.3-.4-.6v-.2l6.8-21.2c0-.2.2-.4.5-.5a1.9 1.9 0 0 1 1.6 0l.4.5 6.8 21.2v.2c0 .2-.1.4-.4.6l-.9.3c-.4 0-.7-.2-.8-.5l-6-19.2-6 19.2c0 .1 0 .3-.2.4h-.6m-46.6 9.2c0-.2.1-.4.3-.5l.3-.1h4.8c.9 0 1.7 0 2.5.2a4 4 0 0 1 2 .8c.6.3 1.1.9 1.4 1.6.4.7.5 1.6.5 2.7a7 7 0 0 1-.7 3.4c-.5.9-1.2 1.5-2 1.8l1.4.8 1 1.1a8.3 8.3 0 0 1 .9 3.7v.5c0 1.2-.2 2.2-.5 3-.3.8-.7 1.5-1.3 2a5 5 0 0 1-2 1 6 6 0 0 1-2.4.4h-5.6c-.1 0-.3 0-.4-.2a.5.5 0 0 1-.1-.3v-22zm5.7 10c0-.7.5-.7.5-.7.9 0 1 0 1.7-.2.6 0 1.1-.4 1.5-.7a3 3 0 0 0 1-1.5 7 7 0 0 0 .3-2.3 4 4 0 0 0-.4-2 3 3 0 0 0-1-1.3c-.5-.3-1.1-.5-1.8-.6a14 14 0 0 0-2-.2h-4.3v20.8h5c1.6 0 2.8-.4 3.7-1.3 1-.8 1.4-2.1 1.4-4v-.5c0-1.8-.5-3.1-1.4-3.9a5.6 5.6 0 0 0-3.7-1.1s-.5 0-.5-.5m78.9-19.1-.9-.3a.7.7 0 0 1-.4-.6v-.2l6.8-21.2c.1-.3.3-.4.5-.6l.8-.1c.3 0 .6 0 .8.2.2 0 .4.3.5.5l6.7 21.2v.2c0 .2 0 .4-.4.6-.3.2-.5.3-.8.3-.5 0-.7-.2-.9-.6l-6-19.1-5.9 19.1c0 .2-.1.4-.3.5h-.6m-120.3 9.7h4.7c.8 0 1.5.1 2.1.3.7.2 1.3.4 1.8.9.4.4.8.9 1 1.5.3.6.5 1.3.5 2.2 0 .9-.2 1.6-.4 2.3-.3.6-.7 1-1.1 1.5-.5.4-1 .6-1.8.8-.5.2-1 .3-1.8.3 0 0-.3 0-.4.2-.2.3-.1.6-.1.6l.1.3 5.1 9.9.4.7c.1.3.3.4.5.4s.3 0 .4-.2l.2-.4-.1-.3-5.2-10.1 2-.5a4.8 4.8 0 0 0 2.8-2.9c.4-.7.5-1.6.5-2.6 0-1.1-.2-2-.5-2.9-.4-.7-.9-1.3-1.5-1.8-.5-.5-1.2-.8-2-1-.8-.2-1.7-.3-2.5-.3h-5.3c-.4 0-.6.2-.6.5v22c0 .1 0 .3.2.4l.4.1.4-.1.1-.5v-21.3zm85.6 15.6c0 1.1-.2 2.1-.5 3a4.8 4.8 0 0 1-3.3 3.1c-.7.2-1.5.3-2.4.3-1 0-1.8-.1-2.6-.4a6 6 0 0 1-2-1 4.7 4.7 0 0 1-1.6-3.7c0-.3 0-.4.2-.5l.4-.2c.1 0 .3 0 .4.2l.2.4c0 .7.1 1.3.4 1.8.2.5.6 1 1 1.3.5.3 1 .6 1.7.7a6 6 0 0 0 2 .3 5 5 0 0 0 3.6-1.3c.9-.8 1.3-2.2 1.3-4v-16.1l.2-.4a.7.7 0 0 1 .8 0l.2.4v16zM184.6 74c0-.3.1-.5.3-.6.2-.2.5-.2.7-.2.3 0 .5 0 .8.2.2 0 .3.3.3.5v11.2l9-11.6c.2-.2.4-.3.7-.3.3 0 .5 0 .8.3.2.2.4.5.4.8v.2l-.2.2-6.8 8.4 7.8 11.7.1.4c0 .3-.1.5-.4.7-.2.2-.5.3-.8.3a1 1 0 0 1-.8-.4l-7.2-11-2.6 3.3v7.3c0 .2-.1.4-.4.6l-.7.2-.7-.2a.7.7 0 0 1-.3-.6V73.9zm25.1 22.4a9 9 0 0 1-2.6-.4 5.3 5.3 0 0 1-3.4-3.3c-.4-.8-.5-1.8-.5-3v-9.8a7 7 0 0 1 .5-3.1c.3-.9.8-1.6 1.4-2.1.5-.5 1.2-1 2-1.2a9 9 0 0 1 5.2 0 5.3 5.3 0 0 1 3.5 3.3c.3.8.5 1.9.5 3v9.8c0 1.3-.2 2.3-.5 3.2a6 6 0 0 1-1.4 2c-.6.6-1.3 1-2.1 1.2-.8.2-1.7.4-2.6.4m4.5-16.5c0-1.7-.4-2.9-1.2-3.7-.8-.7-1.9-1.1-3.3-1.1s-2.5.4-3.3 1.2c-.8.7-1.1 2-1.1 3.6v9.7c0 1.7.3 2.9 1.1 3.7.8.8 2 1.1 3.3 1.1s2.5-.4 3.3-1.1c.8-.8 1.2-2 1.2-3.7V80zm17.5 7.6c-.2.5-.5.7-.8.7-.3 0-.6-.2-.8-.7l-5.2-10v17.9l-.3.6-.8.2-.7-.2a.7.7 0 0 1-.3-.6V74.2c0-.4.1-.7.3-.8.2-.2.5-.2.7-.2.4 0 .7.1 1 .4l.7 1 5.4 10.5 5.4-10.5.7-1c.3-.3.6-.4 1-.4.3 0 .5 0 .7.2.2.1.3.4.3.8v21.2c0 .2 0 .4-.3.6l-.7.2-.7-.2a.7.7 0 0 1-.3-.6V77.7l-5.3 9.8zM256.8 74c0-.3.1-.5.3-.6.2-.2.5-.2.8-.2.2 0 .5 0 .7.2.2 0 .3.3.3.5v15.7c0 1.3-.2 2.3-.5 3.2a6 6 0 0 1-1.4 2c-.6.6-1.3 1-2.1 1.2a9 9 0 0 1-5.2 0c-.8-.2-1.5-.6-2.1-1.2a6 6 0 0 1-1.4-2 8 8 0 0 1-.5-3.2V74c0-.2.1-.4.3-.5a1.6 1.6 0 0 1 1.4 0c.3 0 .4.3.4.5v15.7c0 1.7.4 2.9 1.2 3.7.8.8 1.9 1.2 3.3 1.2s2.5-.4 3.3-1.2c.8-.8 1.2-2 1.2-3.7V74zm21 22.2a1 1 0 0 1-.8-.4 4 4 0 0 1-.6-.8l-8.8-17v17.4c0 .2 0 .4-.3.6l-.7.2-.7-.2a.7.7 0 0 1-.3-.6V74c0-.3 0-.5.3-.7l.7-.1c.4 0 .7.1 1 .4l.6 1 8.5 16.8V73.9c0-.2.1-.4.3-.5.2-.2.5-.2.8-.2.2 0 .4 0 .7.2.2 0 .3.3.3.5v21.5l-.3.6-.7.2m29.2 0-.7-.2a.7.7 0 0 1-.3-.6V73.9c0-.2 0-.4.3-.5.2-.2.4-.2.7-.2.2 0 .5 0 .7.2.2 0 .3.3.3.5v20.4h9c.2 0 .4 0 .5.3l.2.6c0 .3 0 .5-.2.7-.1.2-.3.3-.5.3h-10zm-123.8 9.6-.4-.1a.6.6 0 0 1-.2-.4c0-.2 0-.3.2-.4l.4-.2h12.3c.2 0 .3 0 .4.2l.1.3-.1.4c0 .2-.2.2-.5.2H190v21.3c0 .2 0 .4-.2.5l-.4.1-.4-.1-.1-.5v-21.3h-5.6zm38.6 9.8h5c.2 0 .3 0 .4.2l.1.4v.4l-.5.1h-5v9.8h10.6l.4.2.1.4v.4l-.5.2h-11.2c-.2 0-.3 0-.4-.2l-.2-.4v-21.8l.2-.5.4-.1h11.2c.2 0 .3 0 .4.2l.1.3-.1.5-.4.1h-10.6v9.8zm47.3 9.3v-19.7l.2-.4.4-.1.4.1.2.4v22c0 .1 0 .3-.2.3l-.4.2c-.2 0-.4-.1-.5-.4l-.4-.7-9.7-19.1V127c0 .2 0 .4-.2.5h-.7l-.2-.5v-21.9c0-.2 0-.3.2-.4l.4-.1.3.1.2.4.3.3.1.3 9.6 19zm27.9-9.3h5c.2 0 .3 0 .4.2l.2.4c0 .1 0 .3-.2.4l-.4.1h-5v9.8h10.6l.4.2.2.4c0 .2 0 .3-.2.4l-.4.2h-11.2c-.1 0-.3 0-.4-.2l-.2-.4v-21.8l.2-.5.4-.1h11.2c.2 0 .3 0 .4.2l.2.3c0 .2 0 .3-.2.5l-.4.1H297v9.8zm24.2.5.3.1v11.3l-.3.1h-.2l-.1-.3v-.7l-.8.8a2.4 2.4 0 0 1-2.3.1 3 3 0 0 1-1.4-1.5 2 2 0 0 1-.3-1v-1.8l.2-1 .6-1a2.7 2.7 0 0 1 2-.8c.4 0 .9.2 1.2.4.3.2.6.5.7.8v-5.2s0-.2.2-.2h.2M317 125l.1.7a2.1 2.1 0 0 0 1.1 1.2l.8.1.8-.1a2.6 2.6 0 0 0 1-1l.2-.4v-2.3l-.2-.9-.5-.6a2 2 0 0 0-2-.4 2 2 0 0 0-.7.5l-.5.6-.1.8v1.8zm8 1.5c.1 0 .3 0 .4.2l.2.4-.2.5-.4.1-.5-.1a.6.6 0 0 1-.2-.5l.2-.4.5-.2m5.8-6c.3 0 .7 0 1 .2a3 3 0 0 1 1.5 1.4c.2.4.2.7.2 1.1v1.8c0 .3 0 .7-.2 1-.1.4-.3.6-.6.9-.2.3-.5.5-.9.6l-1 .3c-.4 0-.7-.1-1-.3a2 2 0 0 1-1-.6l-.6-.9-.2-1v-1.8c0-.4 0-.7.2-1l.6-1 .9-.5 1-.3m2.1 2.8-.1-.8a2 2 0 0 0-.5-.6 2 2 0 0 0-2.9 0l-.4.6a2 2 0 0 0-.1.8v1.8l.1.7.4.7.7.5a1.8 1.8 0 0 0 1.6 0 2.1 2.1 0 0 0 1.2-2v-1.7zm3.8 3.3c.2 0 .3 0 .5.2l.1.4-.1.5-.5.1-.4-.1a.6.6 0 0 1-.2-.5c0-.1 0-.3.2-.4l.4-.2m5.9-6c.3 0 .7 0 1 .2a3 3 0 0 1 1.5 1.4c.2.4.2.7.2 1.1v1.8c0 .3 0 .7-.2 1-.1.4-.3.6-.6.9l-.9.6a2 2 0 0 1-1 .3c-.4 0-.8-.1-1-.3a2 2 0 0 1-1-.6l-.6-.9-.2-1v-1.8c0-.4 0-.7.2-1l.6-1c.3-.2.5-.4.9-.5a2 2 0 0 1 1-.3m2.1 2.8c0-.3 0-.5-.2-.8a2 2 0 0 0-.4-.6 2 2 0 0 0-2.9 0l-.4.6a2 2 0 0 0-.2.8v1.8c0 .2 0 .5.2.7l.4.7.7.5a1.8 1.8 0 0 0 1.6 0 2.1 2.1 0 0 0 1.2-2v-1.7zm3.8 3.3c.2 0 .3 0 .4.2.2.1.2.2.2.4s0 .3-.2.5l-.4.1-.4-.1a.6.6 0 0 1-.2-.5c0-.1 0-.3.2-.4l.4-.2"></path></svg> 