<?xml version="1.0" encoding="UTF-8"?> <svg xmlns="http://www.w3.org/2000/svg" version="1.1" id="Layer_1" x="0" y="0" viewBox="0 0 400 200" style="enable-background:new 0 0 400 200" xml:space="preserve"><style>.st0{fill:#00a551}.st1{fill:#00adee}.st2{fill:#fff}</style><path class="st0" d="M346.36 104.85c-.61.36-1.08.54-1.39.54-1.01 0-1.52-.78-1.52-2.36V87.74c0-3.73-3.44-5.59-10.33-5.59-7.24 0-10.87 2-10.87 5.99 0 .68.06 1.42.19 2.2l4.49.87c-.48-1.29-.71-2.32-.71-3.11 0-2.5 1.48-3.75 4.42-3.75 2.55 0 3.82 1.29 3.82 3.87 0 1.96-2.21 3.65-6.64 5.05-4.82 1.51-7.24 4.14-7.24 7.89 0 4.93 2.64 7.39 7.92 7.39 2.83 0 4.99-1.01 6.5-3.04.73 1.95 2.64 2.93 5.75 2.93 2.1 0 4.26-.43 6.47-1.3l-.86-2.29zm-11.95-4.71c0 3.3-.95 4.95-2.84 4.95-1.3 0-1.94-1.66-1.94-5 0-2.6.94-4.44 2.81-5.54.75-.43 1.4-.98 1.97-1.63v7.22zM317 73.42c-3.53.33-6.55.5-9.05.5v34.13H317V73.42zm-11.49 31.43c-.61.36-1.08.54-1.39.54-1.01 0-1.52-.78-1.52-2.36V87.74c0-3.73-3.44-5.59-10.33-5.59-7.24 0-10.87 2-10.87 5.99 0 .68.06 1.42.19 2.2l4.49.87c-.47-1.29-.71-2.32-.71-3.11 0-2.5 1.48-3.75 4.42-3.75 2.55 0 3.82 1.29 3.82 3.87 0 1.96-2.21 3.65-6.64 5.05-4.82 1.51-7.23 4.14-7.23 7.89 0 4.93 2.64 7.39 7.92 7.39 2.83 0 4.99-1.01 6.5-3.04.73 1.95 2.64 2.93 5.75 2.93 2.1 0 4.26-.43 6.47-1.3l-.87-2.29zm-11.96-4.71c0 3.3-.95 4.95-2.84 4.95-1.3 0-1.94-1.66-1.94-5 0-2.6.94-4.44 2.81-5.54.74-.43 1.4-.98 1.97-1.63v7.22zm-17.51-11.47c0-4.31-2.11-6.46-6.32-6.46-3.25 0-6.01 1.57-8.27 4.71V82.2c-2.92.42-5.94.62-9.05.62v25.23h9.05V94.26c0-2.04.39-3.8 1.18-5.31.79-1.49 1.71-2.24 2.79-2.24 1.05 0 1.58.96 1.58 2.86v18.48h9.05V88.67zm-28.76-6.45c-3.01.31-6.02.52-9.05.66v12.69c0 5.83-1.36 8.75-4.09 8.75-1.03 0-1.55-.84-1.55-2.51V82.22c-2.99.31-6.01.52-9.05.66v19.15c0 4.32 2.21 6.48 6.63 6.48 3.29 0 5.97-1.49 8.06-4.48v4.02h9.05V82.22zm-28.84 6.3c0-4.24-2.09-6.36-6.28-6.36-3.04 0-5.57 1.37-7.6 4.11-1.27-2.7-3.22-4.06-5.83-4.06-3.14 0-5.76 1.43-7.9 4.31v-4.34c-2.97.42-5.99.62-9.05.62v25.25h9.05V93.82c0-4.73 1.13-7.11 3.38-7.11.86 0 1.3.95 1.3 2.83v18.51h9.05V93.79c0-4.75 1.13-7.13 3.37-7.13.97 0 1.46.83 1.46 2.48v18.91h9.05V88.52zm-65.37 6.89c0 8.8 4.15 13.2 12.45 13.2 8.28 0 12.41-4.4 12.41-13.2 0-8.8-4.13-13.2-12.41-13.2-8.3 0-12.45 4.4-12.45 13.2m12.42-11c2.03 0 3.03 3.67 3.03 11s-1.01 11-3.03 11c-2.01 0-3.02-3.67-3.02-11s1.01-11 3.02-11m-17.4-10.49-8.46 10.81 12.49 23.32h-10.95l-7.94-14.93-1.42 1.6v13.34H122V73.92h9.81v15.22l11.67-15.22h4.61z"></path><path class="st1" d="M126.24 126.25h3.98c1.52 0 2.93.41 2.93 2.24 0 1.64-1.08 2.32-2.6 2.32h-4.31v-4.56zm-4.26 16.15h9.38c3.5 0 6.83-1.69 6.83-5.65 0-2.43-1.17-4.26-3.55-4.94 1.71-.85 2.63-2.13 2.63-4.07 0-3.63-2.49-4.83-6.18-4.83h-9.11v19.49zm4.26-8.67h4.64c1.84 0 3.06.79 3.06 2.78 0 2.02-1.49 2.57-3.14 2.57h-4.56v-5.35zm14.42 8.67h3.85v-6.36c0-2.51.95-4.53 3.8-4.53.46 0 1.03.06 1.38.14v-3.6c-.27-.08-.54-.14-.84-.14-1.93 0-3.74 1.23-4.47 3h-.05v-2.62h-3.66v14.11zm13.72-8.56c.08-1.09.71-3 3.2-3 1.87 0 2.71 1.04 3.06 3h-6.26zm10.11 2.45c.3-4.34-2.03-8.38-6.8-8.38-4.26 0-7.16 3.22-7.16 7.45 0 4.37 2.74 7.42 7.16 7.42 3.17 0 5.48-1.39 6.56-4.75h-3.39c-.24.87-1.49 1.83-3.04 1.83-2.17 0-3.33-1.09-3.44-3.57h10.11zm1.41 6.11h12.88v-2.92h-7.81l7.29-8.27v-2.92h-11.82v2.92h6.75l-7.29 8.27v2.92zm11.28-19.94h-2.98l-1.76 2.21-1.74-2.21h-3.04l3.01 3.87h3.52l2.99-3.87zm7.62.46h-3.85v3.19h3.85v-3.19zm-3.85 19.48h3.85v-14.1h-3.85v14.1zm20.19-9.14c-.22-3.6-3.28-5.35-6.59-5.35-4.56 0-7.16 3.25-7.16 7.64 0 4.23 2.85 7.23 7.08 7.23 3.71 0 6.24-2.05 6.75-5.79h-3.71c-.24 1.75-1.25 2.87-3.06 2.87-2.41 0-3.2-2.4-3.2-4.45 0-2.07.81-4.58 3.28-4.58 1.65 0 2.6.82 2.84 2.43h3.77zm5.43.58c.08-1.09.7-3 3.2-3 1.87 0 2.71 1.04 3.06 3h-6.26zm10.11 2.45c.3-4.34-2.04-8.38-6.81-8.38-4.25 0-7.16 3.22-7.16 7.45 0 4.37 2.74 7.42 7.16 7.42 3.17 0 5.48-1.39 6.56-4.75h-3.39c-.24.87-1.49 1.83-3.04 1.83-2.17 0-3.34-1.09-3.44-3.57h10.12zm19.76-.98c0 2.32-.79 4.56-3.31 4.56-2.39 0-3.39-2.32-3.39-4.53 0-2.29.87-4.5 3.39-4.5 2.5-.01 3.31 2.18 3.31 4.47m.06 7.09h3.66v-19.48h-3.85v7.09h-.05c-.87-1.39-2.49-2.1-4.15-2.1-4.12 0-6.21 3.52-6.21 7.31 0 3.93 2.06 7.56 6.29 7.56 1.82 0 3.36-.66 4.25-2.18h.06v1.8zm6.72 0h4.26v-4.2h-4.26v4.2zm10.79-7.04c0-2.27.79-4.53 3.39-4.53 2.63 0 3.42 2.26 3.42 4.53 0 2.26-.79 4.5-3.42 4.5-2.6.01-3.39-2.23-3.39-4.5m-3.85 0c0 4.47 2.85 7.42 7.24 7.42 4.42 0 7.27-2.95 7.27-7.42 0-4.5-2.85-7.45-7.27-7.45-4.39 0-7.24 2.95-7.24 7.45m17.16 7.04h4.26v-4.2h-4.26v4.2zm10.79-7.04c0-2.27.79-4.53 3.39-4.53 2.63 0 3.42 2.26 3.42 4.53 0 2.26-.79 4.5-3.42 4.5-2.6.01-3.39-2.23-3.39-4.5m-3.85 0c0 4.47 2.85 7.42 7.24 7.42 4.42 0 7.27-2.95 7.27-7.42 0-4.5-2.85-7.45-7.27-7.45-4.39 0-7.24 2.95-7.24 7.45m17.16 7.04h4.26v-4.2h-4.26v4.2zM79.4 100.62c8.26 23.07 4.72 36.48-.65 40.21-5.36 3.72-17.12-14.22-23.19-37.26s-.6-51.38 1.22-45.58c2.04 6.44 16.54 25.65 22.62 42.63"></path><path class="st2" d="M60 98.21c3.39 16.49 7.53 23.7 7.95 28.51.38 4.32-7.51-11.97-10.9-28.46-3.39-16.49-1.4-34.68-1.36-30.34.05 4.96.92 13.79 4.31 30.29"></path><path class="st0" d="M93.46 107.78c-1.3 22.64-10.18 32.91-16.41 33.42-5.11.42-9.61-19.7-6.33-41.37C74 78.16 89.76 57.15 89.21 62.73c-.63 6.22 5.21 28.39 4.25 45.05"></path><path class="st2" d="M76.61 97.98c-3.06 15.14-1.96 22.89-3.37 27.06-1.26 3.74-2.39-13.14.67-28.28C76.96 81.62 85.53 67.38 83.96 71c-1.8 4.14-4.29 11.85-7.35 26.98"></path><path d="M100.43 119.93c-9.63 17.41-19.58 20.94-24.96 20.02-4.76-.81-.64-19.34 10.17-35.22 10.81-15.87 31.15-26.33 28.59-22.13-2.84 4.69-6.71 24.52-13.8 37.33" style="fill:#fff100"></path><path class="st2" d="M90.89 105.63c-8.15 10.79-10.25 17.35-12.94 20.1-2.41 2.47 3.13-11.34 11.28-22.13 8.15-10.79 20.29-18.71 17.68-16.46-2.98 2.59-7.87 7.71-16.02 18.49"></path><path d="M92.75 139.56c-11.69 5.6-18.41 1.92-21.53-2.13-2.43-3.16 10.68-13.74 22.49-16.74 11.81-3 23.42 4.32 20.38 5.3-6.46 2.06-9.64 7.96-21.34 13.57" style="fill:#8a5d3b"></path><path class="st2" d="M95.01 124.94c-8.27 1.47-12.5 5.02-14.78 4.96-2.05-.05 7.24-6.09 15.52-7.56 8.28-1.47 16.01 2.51 14.02 2.18-2.27-.37-6.48-1.04-14.76.42"></path></svg> 