<?xml version="1.0" encoding="UTF-8"?> <svg xmlns="http://www.w3.org/2000/svg" viewBox="0 0 400 200" xml:space="preserve"><path d="M207.08 154.31c9.46-7.01 16.31-27.7 16.31-52.12 0-.96-.01-1.92-.03-2.87 27.42-4.11 47.08-15.27 47.08-28.38 0-.6-.04-1.19-.12-1.78 6.98 8.39 10.98 18.13 10.98 28.54 0 29.72-32.63 54.1-74.22 56.61M118.7 97.7c0-10.4 4-20.15 10.98-28.54-.08.59-.12 1.18-.12 1.78 0 13.11 19.66 24.26 47.08 28.38-.02.95-.03 1.91-.03 2.87 0 24.42 6.85 45.11 16.31 52.12-41.59-2.51-74.22-26.89-74.22-56.61M200 47.51c-10.19 0-18.86 15.23-22.07 36.49-19.3-3.01-32.77-9.86-32.77-17.82 0-10.75 24.55-19.46 54.84-19.46 30.29 0 54.84 8.71 54.84 19.46 0 7.96-13.47 14.81-32.77 17.82-3.21-21.26-11.88-36.49-22.07-36.49m-13.59 37.53c2.12-13.65 7.41-23.33 13.59-23.33 6.19 0 11.47 9.67 13.59 23.33-4.35.39-8.9.6-13.59.6-4.69 0-9.25-.21-13.59-.6M200 135.03c-7.79 0-14.15-15.35-14.57-34.67 4.7.42 9.57.64 14.57.64 4.99 0 9.87-.22 14.57-.64-.42 19.32-6.78 34.67-14.57 34.67m0-96.41c-52.41 0-94.91 27.48-94.91 61.38s42.49 61.38 94.91 61.38c52.41 0 94.91-27.48 94.91-61.38S252.41 38.62 200 38.62" fill="#20242f"></path></svg> 