<?xml version="1.0" encoding="UTF-8" standalone="no"?> <svg xmlns="http://www.w3.org/2000/svg" xmlns:xlink="http://www.w3.org/1999/xlink" version="1.1" width="640" height="640" viewBox="0 0 640 640" xml:space="preserve"> <desc>Created with Fabric.js 4.6.0</desc> <defs> </defs> <g transform="matrix(1 0 0 1 320 320)" id="z6bWYEfIrTe0BS_jj4Htx" clip-path="url(#CLIPPATH_4)"> <clipPath id="CLIPPATH_4"> <path transform="matrix(1 0 0 1 0 0) translate(-280, -100)" id="a" d="M 0 0 L 560 0 L 560 200 L 0 200 z" stroke-linecap="round"></path> </clipPath> <path style="stroke: none; stroke-width: 1; stroke-dasharray: none; stroke-linecap: butt; stroke-dashoffset: 0; stroke-linejoin: miter; stroke-miterlimit: 4; fill: rgb(78,157,200); fill-rule: nonzero; opacity: 1;" transform=" translate(-280, -98.04)" d="M 216.25 117.51 C 214.47 59.34 166.78 12.710000000000008 108.17 12.710000000000008 C 84.76086000000001 12.675220000000008 61.977740000000004 20.268420000000006 43.269999999999996 34.34 L 21.629999999999995 12.720000000000002 L -3.552713678800501e-15 99.25 L 68.23 121.99 C 73.09135 107.44539999999999 82.93352 95.08512999999999 96.02000000000001 87.09 C 106.19045000000001 80.87678 117.88188000000001 77.59917 129.8 77.62 C 143.56294000000003 77.60094000000001 156.97182 81.98063 168.07000000000002 90.12 C 173.79049000000003 94.31176 178.79227000000003 99.40472 182.88000000000002 105.2 C 190.37817 116.38824 191.36796 130.71761 185.47930000000002 142.83054 C 179.59064000000004 154.94347000000002 167.71023000000002 163.01603 154.28000000000003 164.03 C 154.13000000000002 164.02 153.97000000000003 164.03 153.81000000000003 164.01 C 144.48547000000002 165.04388 135.55827000000002 159.94608 131.71000000000004 151.39 C 131.42092000000002 150.74987 131.16393000000005 150.09572 130.94000000000003 149.42999999999998 C 130.93000000000004 149.34999999999997 130.89000000000001 149.27999999999997 130.87000000000003 149.2 C 130.67297000000002 148.59870999999998 130.50609000000003 147.98794999999998 130.37000000000003 147.36999999999998 L 130.28000000000003 147.03999999999996 C 130.15000000000003 146.39999999999998 130.05000000000004 145.75999999999996 129.98000000000002 145.10999999999996 L 129.93 144.80999999999995 C 129.44086000000001 140.25319999999994 130.42199 135.65938999999995 132.73000000000002 131.69999999999993 C 137.60501000000002 140.20564999999993 147.59694000000002 144.36144999999993 157.06591000000003 141.82167999999993 C 166.53488000000004 139.28190999999993 173.10590000000002 130.68359999999993 173.07000000000002 120.87999999999992 C 173.07000000000002 108.93407999999992 163.38592000000003 99.24999999999993 151.44000000000003 99.24999999999993 L 151.31000000000003 99.24999999999993 C 135.86992000000004 99.26387999999993 121.61908000000003 107.54347999999993 113.96000000000004 120.94999999999993 C 110.15808000000004 127.49848999999993 108.16021000000003 134.93786999999992 108.17000000000003 142.50999999999993 C 108.17000000000003 166.40345999999994 127.53654000000003 185.77447999999993 151.43000000000004 185.77999999999994 L 151.44000000000003 185.77999999999994 C 152.36 185.77999999999994 153.27000000000004 185.71999999999994 154.18000000000004 185.67999999999995 L 154.20000000000005 185.67999999999995 C 155.58000000000004 185.62999999999994 156.96000000000004 185.51999999999995 158.32000000000005 185.37999999999994 L 158.47000000000006 185.35999999999993 C 159.79000000000005 185.21999999999994 161.09000000000006 185.03999999999994 162.38000000000005 184.81999999999994 L 162.74000000000007 184.75999999999993 C 163.96000000000006 184.53999999999994 165.17000000000007 184.29999999999993 166.37000000000006 184.01999999999992 L 166.99000000000007 183.85999999999993 C 168.10000000000008 183.58999999999992 169.21000000000006 183.29999999999993 170.29000000000008 182.95999999999992 C 170.61000000000007 182.86999999999992 170.92000000000007 182.75999999999993 171.24000000000007 182.6599999999999 C 172.21000000000006 182.3499999999999 173.19000000000005 182.02999999999992 174.14000000000007 181.6699999999999 C 174.60000000000008 181.49999999999991 175.05000000000007 181.3099999999999 175.51000000000008 181.1299999999999 C 176.3100000000001 180.7999999999999 177.13000000000008 180.48999999999992 177.91000000000008 180.1299999999999 C 178.58000000000007 179.8299999999999 179.22000000000008 179.5099999999999 179.8700000000001 179.1899999999999 C 180.4500000000001 178.9099999999999 181.04000000000008 178.6399999999999 181.6200000000001 178.33999999999992 C 187.94850000000008 175.0039299999999 193.68238000000008 170.64523999999992 198.5900000000001 165.4399999999999 C 209.98082000000008 153.43114999999992 216.33352000000008 137.51182999999992 216.3400000000001 120.95999999999992 L 216.3400000000001 120.87999999999992 C 216.3400000000001 119.74999999999993 216.3100000000001 118.62999999999992 216.25000000000009 117.50999999999992 z M 51.96 87.64 C 41.90842 87.64 33.760000000000005 79.49158 33.760000000000005 69.44 C 33.760000000000005 59.388419999999996 41.90842000000001 51.239999999999995 51.96000000000001 51.239999999999995 C 62.01158000000001 51.239999999999995 70.16000000000001 59.388419999999996 70.16000000000001 69.44 C 70.16000000000001 79.49158 62.01158000000001 87.64 51.96000000000001 87.64 z M 560 72.38 L 553.65 51.699999999999996 L 537.77 -7.105427357601002e-15 L 517.09 6.3499999999999925 L 532.97 58.05 L 512.2900000000001 64.39999999999999 L 502.7600000000001 33.379999999999995 L 482.0800000000001 39.73 L 491.61000000000007 70.75 L 467.4100000000001 78.19 C 470.0302900000001 65.29615 464.6053600000001 52.09627999999999 453.6754700000001 44.77133 C 442.7455800000001 37.44637 428.4744100000001 37.44637 417.54453000000007 44.77133 C 406.61464000000007 52.096289999999996 401.18971000000005 65.29615 403.81000000000006 78.19 L 379.61000000000007 70.75 L 389.13000000000005 39.739999999999995 L 368.46000000000004 33.379999999999995 L 358.93000000000006 64.39999999999999 L 338.25000000000006 58.04999999999999 L 354.12000000000006 6.349999999999987 L 333.45000000000005 -1.2434497875801753e-14 L 317.57000000000005 51.69999999999999 L 311.21000000000004 72.38 L 394.77000000000004 98.03999999999999 L 311.21000000000004 123.69999999999999 L 317.57000000000005 144.38 L 333.45000000000005 196.07999999999998 L 354.12000000000006 189.73 L 338.25000000000006 138.02999999999997 L 358.93000000000006 131.67999999999998 L 368.46000000000004 162.68999999999997 L 389.13000000000005 156.34999999999997 L 379.61000000000007 125.31999999999996 L 393.56000000000006 121.03999999999996 C 389.33008000000007 138.47383999999997 396.29661000000004 156.70972999999998 411.07299000000006 166.88272999999998 C 425.84936000000005 177.05571999999998 445.37065000000007 177.05571999999998 460.14702000000005 166.88272999999998 C 474.92339000000004 156.70973999999998 481.88993000000005 138.47384 477.66001000000006 121.03999999999998 L 491.61001000000005 125.32999999999998 L 482.0800100000001 156.35 L 502.7600100000001 162.69 L 512.29001 131.68 L 532.97001 138.03 L 517.09001 189.73000000000002 L 537.77001 196.08 L 553.65001 144.38 L 560.00001 123.69999999999999 L 476.45000999999996 98.03999999999999 z M 435.6 60.87 C 441.57572000000005 60.87 446.42 65.71428 446.42 71.69 C 446.42 77.66572 441.57572 82.50999999999999 435.6 82.50999999999999 C 429.62428 82.50999999999999 424.78000000000003 77.66572 424.78000000000003 71.69 C 424.78000000000003 65.71428 429.62428000000006 60.87 435.6 60.87 z M 435.6 152.81 C 423.65132 152.81 413.96500000000003 143.12368 413.96500000000003 131.175 C 413.96500000000003 119.22632000000002 423.65132000000006 109.54 435.6 109.54 C 447.54868000000005 109.54 457.235 119.22632 457.235 131.175 C 457.235 143.12368 447.54868 152.81 435.6 152.81 z" stroke-linecap="round"></path> </g> </svg> 