<?xml version="1.0" encoding="UTF-8"?> <svg xmlns="http://www.w3.org/2000/svg" height="65.002" viewBox="0 0 211.492 65.002" width="211.492"><path d="m970.571 730.363h-19.439a47.684 47.684 0 0 0 -15.5 2.33c-4.51 1.661-8.577 4.163-10.718 10.379-2.174 6.313-10.035 32.315-12.287 36.071-1.205 1.937-3.172 5.8-8.808 5.8h-22.1v1.833h22.7a47.719 47.719 0 0 0 15.5-2.33c4.509-1.662 8.576-4.164 10.716-10.379 2.2-6.386 10.1-32.729 12.252-36.011 1.205-1.938 3.208-5.858 8.844-5.858h18.84z" fill="#d50c14" transform="translate(-881.717 -726.923)"></path><path d="m970.2 763.2h-21.334v1.863h9.916v3.209a39.411 39.411 0 0 1 -.73 8.8 7.056 7.056 0 0 1 -3.595 4.671 10.587 10.587 0 0 1 -5.59 1.528v1.829h.01a25.6 25.6 0 0 0 14.42-4.6q6.9-4.6 6.9-15.2h.012z" fill="#d50c14" transform="translate(-878.303 -725.253)"></path><path d="m894.065 752.3a7.456 7.456 0 0 1 -.523 1.037 8.76 8.76 0 0 1 -1.166 1.442 7.705 7.705 0 0 1 -2.665 1.482 24.661 24.661 0 0 1 -5.762.585h-2.232v1.86a33.261 33.261 0 0 1 7.994.586 7.7 7.7 0 0 1 2.665 1.482 8.719 8.719 0 0 1 1.166 1.442 7.445 7.445 0 0 1 .523 1.036 19.321 19.321 0 0 1 1.17 6.333h2.173v-23.674h-2.173a19.726 19.726 0 0 1 -1.17 6.392" fill="#d50c14" transform="translate(-881.717 -726.132)"></path><path d="m913.594 730.368h-31.877v1.8h13.983q7.9 0 11.286 2.54t4.476 8.292h2.132z" fill="#d50c14" transform="translate(-881.717 -726.923)"></path><path d="m1087.836 785.8v-11.77h-1.974v1.882a3.906 3.906 0 0 0 -3.692-2.128c-3.19 0-5.746 2.273-5.793 6.13.047 3.857 2.6 6.128 5.793 6.128a3.9 3.9 0 0 0 3.692-2.128v1.886zm-2.142-5.882a.075.075 0 0 0 .006.03c0 2-1.007 4.5-3.554 4.5-2.519 0-3.619-2.313-3.626-4.532s1.108-4.533 3.626-4.533c2.547 0 3.554 2.5 3.554 4.484a.083.083 0 0 1 -.006.032m-9.582 5.841-5.146-6.887 4.519-4.811h-2.537l-3.454 4.034c-.341.389-.723.922-1.014 1.331h-.052v-10.832h-2.128v17.161h2.126v-4.4l1.09-1.236 4.011 5.634zm-17.8-8.8c0-.869.674-1.6 1.932-1.6a4.819 4.819 0 0 1 2.392.678l.506-1.522a5.385 5.385 0 0 0 -2.849-.73c-2.49 0-4.038 1.55-4.038 3.435 0 1.4 1 2.538 3.118 3.312 1.547.58 2.15 1.134 2.15 2.151 0 .989-.724 1.738-2.248 1.738a6.06 6.06 0 0 1 -2.828-.821l-.5 1.593a6.641 6.641 0 0 0 3.281.823c2.731 0 4.352-1.45 4.352-3.53 0-1.762-1.061-2.777-3.068-3.527-1.524-.579-2.2-1.015-2.2-2.005m-.361-13.883c0-3.557-2.276-6.006-5.643-6.006-3.223 0-5.813 2.3-5.813 6.224 0 3.3 1.958 5.5 4.6 5.946v-1.7c-1.476-.545-2.444-2.221-2.444-4.322 0-2.221 1.086-4.549 3.58-4.549 2.52 0 3.515 2.495 3.515 4.482 0 2.191-1.032 3.869-2.529 4.4v1.681c2.435-.434 4.732-2.359 4.732-6.157m-13.156-4.076a6.755 6.755 0 0 1 .748.053v-1.981a2.221 2.221 0 0 0 -.578-.073 3.536 3.536 0 0 0 -3.264 2.559h-.074l-.095-2.294h-1.859c.072 1.089.1 2.271.1 3.65l-.024 8.042h2.126v-6.231a6.538 6.538 0 0 1 .073-1.013 2.983 2.983 0 0 1 2.851-2.709m-2.24 14.788a4.335 4.335 0 0 0 -3.868 2.176h-.049l-.12-1.907h-1.882c.073.967.1 1.935.1 3.166v8.532h2.126v-7.058a3.394 3.394 0 0 1 .14-.99 3.076 3.076 0 0 1 2.856-2.176c2 0 2.7 1.6 2.7 3.482v6.742h2.129v-6.986c0-4.014-2.517-4.981-4.131-4.981m-9.2-14.906h3.046v-1.618h-3.046v-2.8l-2.076.655v2.15h-1.807v1.618h1.807v6.379a4.593 4.593 0 0 0 .821 3.07 3.031 3.031 0 0 0 2.3.892 5.728 5.728 0 0 0 1.883-.292l-.1-1.616a3.939 3.939 0 0 1 -1.233.145c-1.184 0-1.6-.82-1.6-2.272zm-4.689 10.073-5.146-6.884 4.516-4.808h-2.539l-3.454 4.033c-.339.387-.724.922-1.015 1.328h-.047v-10.817h-2.13v17.152h2.13v-4.4l1.088-1.232 4.009 5.627zm-8.437 4.833a3.543 3.543 0 0 0 -3.262 2.567h-.075l-.1-2.3h-1.858c.072 1.089.1 2.272.1 3.65l-.025 8.048h2.126v-6.231a6.275 6.275 0 0 1 .075-1.013 2.984 2.984 0 0 1 2.851-2.709 7.223 7.223 0 0 1 .75.048v-1.98a2.2 2.2 0 0 0 -.581-.077m-3.762-10.219c0-.068.007-.135.007-.206a7.666 7.666 0 0 0 -.684-3.558 4.8 4.8 0 0 0 -1.995-2.014 5.822 5.822 0 0 0 -2.851-.72 5.337 5.337 0 0 0 -4.013 1.578 6.277 6.277 0 0 0 -1.53 4.55 6.016 6.016 0 0 0 1.826 4.828 5.524 5.524 0 0 0 3.717 1.3 5.347 5.347 0 0 0 3.985-1.585 5.217 5.217 0 0 0 1.277-2.288h-2.15a3.487 3.487 0 0 1 -.637 1.095 3.318 3.318 0 0 1 -4.969.006 6.265 6.265 0 0 1 0-6.746 3.309 3.309 0 0 1 4.972 0 4.143 4.143 0 0 1 .89 2.115h-5.053v1.638h7.209zm-15.445 5.387h2.126v-17.152h-2.126zm-.178 11.071c0 3.707 2.473 6.035 5.618 6.035h.025c2.787 0 5.813-1.894 5.813-6.253 0-3.556-2.277-6-5.643-6-3.222 0-5.813 2.3-5.813 6.223m2.157-.075c0-2.221 1.088-4.55 3.581-4.55 2.52 0 3.515 2.5 3.515 4.483 0 2.666-1.528 4.577-3.562 4.577h-.024c-2.058 0-3.51-1.939-3.51-4.51m-4.54-16.383c0-.068.007-.135.007-.206a7.666 7.666 0 0 0 -.684-3.558 4.789 4.789 0 0 0 -1.995-2.014 5.821 5.821 0 0 0 -2.851-.72 5.341 5.341 0 0 0 -4.014 1.578 6.282 6.282 0 0 0 -1.529 4.55 6.017 6.017 0 0 0 1.826 4.828 5.524 5.524 0 0 0 3.717 1.3 5.347 5.347 0 0 0 3.985-1.585 5.218 5.218 0 0 0 1.277-2.288h-2.15a3.473 3.473 0 0 1 -.638 1.095 3.316 3.316 0 0 1 -4.967.006 6.259 6.259 0 0 1 0-6.746 3.308 3.308 0 0 1 4.97 0 4.134 4.134 0 0 1 .89 2.115h-5.054v1.638h7.209zm-11.065 16.359a6.281 6.281 0 0 0 1.527 4.549 5.342 5.342 0 0 0 4.013 1.579 5.821 5.821 0 0 0 2.853-.72 4.826 4.826 0 0 0 2-2.013 7.719 7.719 0 0 0 .682-3.562c0-.069 0-.134-.008-.2h-7.209v1.639h5.042a4.153 4.153 0 0 1 -.889 2.115 3.312 3.312 0 0 1 -4.968 0 6.242 6.242 0 0 1 0-6.746 3.31 3.31 0 0 1 4.963.005 3.481 3.481 0 0 1 .639 1.1h2.155a5.215 5.215 0 0 0 -1.279-2.289 5.341 5.341 0 0 0 -3.984-1.584 5.532 5.532 0 0 0 -3.717 1.3 6.023 6.023 0 0 0 -1.823 4.828m36.74-4.552a6.292 6.292 0 0 0 -1.53 4.552 6.027 6.027 0 0 0 1.824 4.828 5.529 5.529 0 0 0 3.718 1.3 5.333 5.333 0 0 0 3.984-1.584 5.213 5.213 0 0 0 1.279-2.287h-2.15a3.492 3.492 0 0 1 -.64 1.1 3.311 3.311 0 0 1 -4.963 0 6.257 6.257 0 0 1 0-6.749 3.31 3.31 0 0 1 4.968 0 4.15 4.15 0 0 1 .889 2.116h-5.051v1.639h7.208c0-.068.01-.136.01-.208a7.666 7.666 0 0 0 -.688-3.558 4.817 4.817 0 0 0 -1.995-2.012 5.834 5.834 0 0 0 -2.853-.719 5.34 5.34 0 0 0 -4.012 1.577m26.051 12.911a3.385 3.385 0 0 1 -2.319.892l.238 1.671a5.416 5.416 0 0 0 3.628-1.329c1.038-1.065 1.4-2.538 1.4-4.812v-10.652h-2.129v9.838c0 2.8-.238 3.745-.821 4.4" fill="#6f7070" transform="translate(-876.344 -725.834)"></path><g fill="#d50c14"><path d="m1042.313 730.065a4.332 4.332 0 0 0 -3.867 2.176h-.051l-.12-1.907h-1.882c.073.967.1 1.934.1 3.166v8.531h2.126v-7.057a3.383 3.383 0 0 1 .14-.99 3.076 3.076 0 0 1 2.856-2.176c2 0 2.7 1.594 2.7 3.482v6.741h2.129v-6.985c0-4.014-2.517-4.981-4.131-4.981" transform="translate(-873.853 -726.938)"></path><path d="m989.8 733.234c0-.869.674-1.6 1.932-1.6a4.824 4.824 0 0 1 2.393.678l.505-1.521a5.383 5.383 0 0 0 -2.849-.73c-2.49 0-4.037 1.549-4.037 3.434 0 1.4.994 2.538 3.117 3.312 1.548.58 2.151 1.134 2.151 2.151 0 .989-.724 1.738-2.248 1.738a6.07 6.07 0 0 1 -2.828-.82l-.5 1.592a6.634 6.634 0 0 0 3.282.823c2.731 0 4.35-1.449 4.35-3.529 0-1.763-1.06-2.778-3.067-3.527-1.525-.58-2.2-1.016-2.2-2.006" transform="translate(-876.342 -726.938)"></path><path d="m1057.15 736.256c0 1.984-1.007 4.485-3.555 4.485-2.519 0-3.618-2.313-3.625-4.532s1.106-4.534 3.625-4.534c2.548 0 3.555 2.5 3.555 4.485a.3.3 0 0 0 -.007.049c0 .017.007.03.007.047m.162-5.931v1.881a3.909 3.909 0 0 0 -3.693-2.128c-3.189 0-5.745 2.273-5.792 6.131.047 3.856 2.6 6.129 5.792 6.129a3.908 3.908 0 0 0 3.693-2.128v1.881h1.972v-11.766z" transform="translate(-873.272 -726.937)"></path><path d="m1015.583 740.693a4.5 4.5 0 0 1 -3.6 1.711 4.188 4.188 0 0 1 -3.443-1.576 4.908 4.908 0 0 1 -.7-3.076v-7.406h1.964v7.354c0 1.98.887 2.995 2.633 2.995a3.434 3.434 0 0 0 2.582-1.15 2.683 2.683 0 0 0 .566-1.872v-7.326h1.963v11.763h-1.963z" transform="translate(-875.305 -726.924)"></path><path d="m1021.246 736.172c0 2.727 1.371 4.491 3.469 4.491s3.47-1.764 3.47-4.438-1.372-4.439-3.47-4.439c-2.07 0-3.469 1.765-3.469 4.385m.135-4.385a4.688 4.688 0 0 1 3.657-1.711 5.193 5.193 0 0 1 3.981 1.924 7.432 7.432 0 0 1 0 8.45 5.313 5.313 0 0 1 -3.953 1.925 4.7 4.7 0 0 1 -3.684-1.712v7.326h-1.964v-17.646h1.964z" transform="translate(-874.716 -726.937)"></path><path d="m157.875 3.363h1.964v11.765h-1.964z"></path><path d="m1003.7 730.617-3.422 3.994c-.336.385-.717.915-1 1.318h-.048v-8.84h-2.11v15.111h2.11v-4.354l1.078-1.221 3.97 5.575h2.562l-5.1-6.819 4.473-4.762z" transform="translate(-875.85 -727.089)"></path></g></svg> 