<?xml version="1.0" encoding="UTF-8"?> <svg xmlns="http://www.w3.org/2000/svg" viewBox="0 0 110 36"><path d="m109.6 12.76c0 3.66-4.35 16.19-5.07 18.07-.47 1.24-1.37 1.41-2.53 1.41-2.11 0-3.7-.5-4.47-1.12-.16-.13-.36-.4-.22-.81.79-2.36 3.8-10.87 3.8-12.71 0-1.01-.3-1.76-1.3-1.76-6.09 0-17.28 13-19.36 15.32-.68.76-1.67.92-2.84.92-1.44 0-2.98-.77-3.12-.84-.46-.24-.49-.49-.35-1.04l.38-1.56c.7-2.85 4.32-13.38 6.84-19.08.11-.24.21-.44.76-.52.25-.04 1.08-.23 2.24-.23.85 0 2.5.06 3.33.5 0 0 .01-.01.01 1.38 0 .6.06 2.64 1.99 2.64 3.24 0 9.12-5.56 14.32-5.56 4.56-.01 5.59 2.81 5.59 4.99m-64.68 4.6c0 .76-.88 2.85-1.01 3.16-.79 1.96-2.88 2.28-4.35 2.28-2.2 0-2.96-.79-2.96-2.04 0-.97.81-2.64.92-2.88.99-2.28 2.77-2.52 4.52-2.52 1.49 0 2.88.62 2.88 2m-18.84-4.59c0-1.45-.07-3.52-1.2-3.52-3.68 0-10.15 5.63-10.8 6.28-.48.48-.12.44.52.44h8.28c2.93 0 3.2-.49 3.2-3.2m8.84 1.63c0 7.09-4.36 8.56-9.2 8.56h-3.4c-3.4 0-10.24-.2-10.24-.2-.55-.01-.96-.12-.96.2 0 2.31 2.61 5.8 6.6 5.8 3.14 0 5.16-1.96 5.6-2.42 0 0 3.6-.42 5.92-.42 2.25 0 5.56.36 5.56 1.64 0 2.5-8.11 6.44-14.92 6.44-10.25 0-19.48-5.57-19.48-12.28 0-11.25 21.7-19.72 28.04-19.72 5.7 0 6.48 9.08 6.48 12.4m27.2-1.32c-.77 0-1.92.12-2.44.84-1.95 2.7-3.24 9.45-3.24 11.32 0 1.28.89 1.2 2.08 1.2.69 0 1.81.02 2.44-.64 1.71-1.78 3.19-9.86 3.19-11.32 0-1.04-.08-1.4-2.03-1.4m12.88-.36c0 3.08-3.04 9.84-4.02 11.72-4.08 7.85-9.54 7.8-15.7 7.8-3.01 0-9.72.03-9.72-5.6 0-2.52 2.2-7.14 4-11.52.76-1.86 4.03-8.12 15.16-8.12 4.59 0 10.28.72 10.28 5.72" fill="#e63323"></path></svg> 