<?xml version="1.0" encoding="UTF-8"?> <svg xmlns="http://www.w3.org/2000/svg" viewBox="0 0 227.1 58.4"><path d="m155.7 50.4c0-1.2 1-2.1 2.1-2.1 1.2 0 2.1 1 2.1 2.1 0 1.2-1 2.1-2.1 2.1-1.2 0-2.1-1-2.1-2.1m-9.7 0c0-1.2 1-2.1 2.1-2.1 1.2 0 2.1 1 2.1 2.1 0 1.2-1 2.1-2.1 2.1s-2.1-1-2.1-2.1m-19.8-7.8c0-.5-.4-.9-.9-.9s-.9.4-.9.9v10.8c0 .5.4.9.9.9s1-.4 1-.9l-.1-3 3 3.3c.6.7 1.6.8 2.5.2l1.1-.7c.9.7 1.9 1.1 2.9 1.1.8 0 1.9-.4 2.4-.7l2.7-2v.8c0 1 .8 1.9 1.9 1.9.4 0 .8-.1 1.1-.4l1.4-1c.8.9 1.9 1.4 3 1.4 1.4 0 2.5-.9 2.5-.9.4.8 1.8 1.2 2.7.5l1.4-1c.8.9 2 1.4 3 1.4.8 0 1.6-.3 2.1-.6 0 .4-.1.8-.3 1.2-.4.5-1 .8-1.8.8-1.2 0-1.9-.3-2.6-.7-.5-.2-1 0-1.2.4-.2.5-.1 1 .4 1.3 1.1.6 2.6.9 3.3.8 1.1 0 2.4-.4 3.1-1.2.5-.6 1-1.4 1-2.6v-6.5c0-.5-.4-1-.9-1s-.8.4-.9.7c-.3-.2-1.1-.7-2.2-.7-1.2 0-2.3.6-2.9 1.3-.8.8-1.3 2.3-1 3.7l-.9.8c-.3.2-.6-.1-.6-.4v-4.3c0-.5-.4-.9-.9-.9s-.8.4-.9.7c-.7-.5-1.4-.7-2.3-.7-1.6 0-2.6.8-3.1 1.5-.8 1-1.1 2.1-.8 3.5l-1.1.8c-.3.2-.6 0-.6-.4v-8.1c0-.4-.3-.9-.9-.9h-.9c-.6 0-1 .4-1 .9s.4.9 1 .9v4.8l-3.9 2.6c-.4.3-1.1.5-1.6.5-1.1 0-2.3-.9-2.3-2.2 0-1.4.9-2.3 2.1-2.4.6-.1 1.2.1 1.5.4l-1.7 1.2c-.6.4-.5 1-.2 1.3.3.4.9.5 1.4.1l2.6-1.9c.5-.3.4-.6.1-1.1-.2-.3-.7-1-1.6-1.5-1.7-.8-3.6-.4-4.7.8-1 1-1.6 2.6-.9 4.5l-.6.4c-.5.3-.8.1-1.1-.3l-2-2.3 2-1.4c.5-.3.6-1 .2-1.4-.3-.4-.9-.5-1.3-.2l-2.6 1.9z" fill="#00803d"></path><path d="m115.8 51.6v1.9c-.5.1-.9.2-1.4.2-1 0-1.6-.2-1.6-1s.6-1 1.6-1h1.4zm-1.5-4.7c-1.1 0-2 .3-2.4.6-.2.1-.4.4-.4.6 0 .4.4.7.7.7.2 0 .5-.1.7-.2.4-.2.8-.3 1.4-.3.9 0 1.4.5 1.4 1.1v.6h-1.4c-1.8 0-3.2.7-3.2 2.5s1.3 2.5 3.2 2.5c.9 0 1.8-.2 2.4-.4.4-.1.6-.5.6-.9v-4.4c.1-1.6-1.3-2.4-3-2.4" fill="#363636"></path><path d="m226.3 46.9c-.4 0-.7.2-.8.6l-1.8 5.4-1.9-5.4c-.1-.4-.4-.6-.8-.6-.5 0-.8.4-.8.8v.3l2.6 6.9-.3.9c-.3.7-.9 1.1-1.5 1.1-.5 0-.8.3-.8.7 0 .5.4.8.8.8 1.4 0 2.5-.7 3-2.1l2.9-8.3c0-.1.1-.2.1-.3.1-.4-.1-.8-.7-.8m-10.5 0c-.9 0-1.7.2-2.4.4-.5.1-.7.5-.7.9v6.1c0 .5.3.8.8.8.4 0 .8-.3.8-.8v-5.7c.5-.1 1-.2 1.5-.2 1 0 1.5.5 1.5 1.5v4.4c0 .5.3.8.8.8.4 0 .8-.3.8-.8v-4.3c0-2-1-3.1-3.1-3.1m-6.8 4.7v1.9c-.5.1-.9.2-1.4.2-1 0-1.6-.2-1.6-1s.6-1 1.6-1h1.4zm-1.5-4.7c-1.1 0-2 .3-2.4.6-.2.1-.4.4-.4.6 0 .4.4.7.7.7.2 0 .5-.1.7-.2.4-.2.8-.3 1.4-.3.9 0 1.4.5 1.4 1.1v.6h-1.4c-1.8 0-3.2.7-3.2 2.5s1.3 2.5 3.2 2.5c.9 0 1.8-.2 2.4-.4.4-.1.6-.5.6-.9v-4.4c0-1.6-1.3-2.4-3-2.4m-7.9 1.5c1 0 1.5.5 1.5 1.5v2.2c0 1-.5 1.5-1.5 1.5-.6 0-1.1-.2-1.5-.5v-4.5c.4-.2.9-.2 1.5-.2m0-1.5c-.9 0-1.6.1-2.4.4-.4.2-.7.5-.7.9v9.4c0 .5.3.8.8.8s.8-.3.8-.8v-3c.5.3 1.2.4 1.7.4 1.8 0 3-1.1 3-3.1v-2c-.1-2-1.3-3-3.2-3m-8.3 0c-.7 0-1.5.2-2.1.7-.5-.5-1.2-.7-2-.7s-1.7.2-2.4.4c-.4.1-.7.5-.7.9v6.1c0 .5.3.8.8.8s.8-.3.8-.8v-5.7c.5-.1.9-.2 1.5-.2.3 0 .6 0 .8.2.2.1.5.4.5.8v4.9c0 .5.3.8.8.8s.8-.3.8-.8v-5.5c.4-.3.8-.4 1.3-.4.8 0 1.4.5 1.4 1.4v4.5c0 .5.3.8.8.8s.8-.3.8-.8v-4.4c-.1-1.9-1.2-3-3.1-3m-12.4 1.5c1 0 1.7.6 1.7 1.7v1.9c0 1.1-.6 1.7-1.7 1.7-1 0-1.7-.6-1.7-1.7v-1.9c0-1.1.6-1.7 1.7-1.7m0-1.5c-2.1 0-3.3 1.2-3.3 3.2v1.7c0 2.1 1.3 3.2 3.3 3.2 2.1 0 3.3-1.2 3.3-3.2v-1.7c-.1-2-1.3-3.2-3.3-3.2m-7.1 0c-1.8 0-3.1 1.1-3.1 3.1v2c0 1.9 1.2 3.1 3.1 3.1.8 0 1.6-.2 2.2-.5.2-.1.4-.4.4-.7 0-.4-.3-.7-.7-.7-.3 0-.5.1-.7.2-.3.1-.7.2-1.2.2-.9 0-1.5-.6-1.5-1.7v-1.9c0-1.1.6-1.6 1.5-1.6.5 0 .9.1 1.2.2s.5.2.8.2c.4 0 .7-.3.7-.7 0-.3-.2-.5-.4-.7-.7-.3-1.5-.5-2.3-.5" fill="#363636"></path><path d="m-80.3-69.3h1920v2780h-1920z" fill="none"></path><g fill="#e63328"><path d="m0 0h7.7v7.7h-7.7z"></path><path d="m0 13.7h7.7v20.4h-7.7z"></path><path d="m13.7 0h20v7.7h-20z"></path><path d="m13.7 13.7h20v7.7h-20z"></path><path d="m13.7 26.3h20v7.7h-20z"></path></g><path d="m224.5 28.6c-.2.8-.6 1.4-1.1 2s-1.1 1.1-1.9 1.4c-.8.4-1.7.5-2.9.5-1 0-1.9-.2-2.7-.5s-1.4-.7-2-1.3-.9-1.2-1.2-2-.4-1.6-.4-2.6c0-.8.1-1.6.4-2.4.2-.8.6-1.4 1.1-2s1.1-1.1 1.9-1.4c.8-.4 1.7-.5 2.9-.5 1.1 0 2.1.2 2.9.5s1.4.8 1.9 1.4.9 1.3 1.1 2c.2.8.4 1.6.4 2.5 0 .8-.1 1.6-.4 2.4m-2.4 5c1.1-.4 2-.9 2.7-1.6s1.3-1.5 1.7-2.5.6-2.1.6-3.3c0-1.1-.2-2.1-.5-3.1s-.9-1.8-1.6-2.5-1.6-1.3-2.7-1.7-2.3-.6-3.8-.6c-1.4 0-2.7.2-3.7.6-1.1.4-2 1-2.7 1.7s-1.2 1.6-1.6 2.5c-.4 1-.5 2-.5 3.1 0 1.3.2 2.5.7 3.5.4 1 1.1 1.8 1.8 2.5.8.7 1.7 1.2 2.7 1.5s2.1.5 3.3.5c1.4 0 2.6-.2 3.6-.6m-18.3-12.3c-.4-.5-.8-.9-1.3-1.3s-1-.7-1.6-1-1.2-.4-1.8-.6c-.6-.1-1.2-.2-1.8-.2-1.5 0-2.8.2-3.8.6s-1.9 1-2.6 1.7-1.2 1.6-1.5 2.5c-.3 1-.5 2-.5 3.1s.2 2.1.5 3c.3 1 .8 1.8 1.5 2.6.7.7 1.5 1.3 2.6 1.8 1 .4 2.2.7 3.6.7 1.3 0 2.6-.2 3.7-.7 1.2-.5 2.1-1.2 2.8-2.1 0 .9 0 1.7-.2 2.6-.1.8-.4 1.6-.9 2.2-.5.7-1.1 1.2-2 1.6s-2 .6-3.5.6c-.6 0-1.3 0-1.8-.1-.6-.1-1.1-.2-1.6-.4s-.9-.5-1.3-.8c-.4-.4-.6-.8-.8-1.4h-2.3c0 .4.2.9.5 1.4s.8 1 1.4 1.4 1.4.8 2.4 1.1 2.1.4 3.5.4c1.8 0 3.2-.2 4.3-.6s2-1 2.6-1.7 1.1-1.5 1.3-2.4.4-1.9.4-2.9v-13.8h-2.1v2.7zm-.4 7.4c-.3.8-.7 1.4-1.2 2s-1.2 1-2 1.4c-.8.3-1.6.5-2.6.5-1.1 0-2.1-.2-2.9-.5-.8-.4-1.5-.9-2-1.5s-.9-1.3-1.1-2.2c-.2-.8-.3-1.7-.3-2.7s.2-1.8.5-2.5.8-1.3 1.3-1.9c.6-.5 1.2-.9 2-1.2s1.6-.4 2.5-.4c1 0 1.9.2 2.7.5s1.4.8 2 1.4c.5.6.9 1.3 1.2 2 .3.8.4 1.6.4 2.6-.1.9-.2 1.7-.5 2.5m-23.4-2.4c0-.8.1-1.6.3-2.4s.5-1.4 1-2 1.1-1 1.9-1.3 1.8-.5 3-.5v-1.9c-1.5 0-2.8.2-3.7.7s-1.7 1.3-2.3 2.5h-.2v-2.8h-2.1v15.1h2.1zm-6.4.3c0-2.7-.7-4.8-2.1-6.2s-3.4-2.1-6-2.1c-1.3 0-2.5.2-3.6.6-1 .4-1.9 1-2.6 1.7s-1.3 1.6-1.7 2.6-.6 2-.6 3.1.2 2.1.5 3.1.8 1.8 1.5 2.5 1.6 1.3 2.6 1.7c1.1.4 2.3.6 3.8.6 1.2 0 2.2-.1 3.1-.4s1.6-.6 2.3-1.1c.6-.5 1.2-1 1.6-1.6s.8-1.3 1-2h-2.4c-.3 1.1-1 2-2 2.6s-2.2.9-3.6.9c-1 0-1.9-.2-2.7-.5s-1.4-.7-1.9-1.3c-.5-.5-.9-1.2-1.2-1.9s-.4-1.5-.4-2.3zm-14.2-1.5c.1-.7.3-1.4.6-2s.7-1.2 1.2-1.7 1.1-.9 1.8-1.2 1.6-.4 2.5-.4 1.8.1 2.5.4 1.3.7 1.8 1.1c.5.5.9 1 1.1 1.7s.4 1.3.4 2.1zm-19 .5c0-.5 0-1 .1-1.5 0-.4.2-.9.4-1.4.2-.4.4-.8.7-1.1.3-.4.7-.7 1.1-.9.4-.3.9-.5 1.5-.7.5-.2 1.1-.2 1.8-.2 1.7 0 2.9.3 3.7 1 .7.7 1.1 1.7 1.1 3.1v9.9h2.1v-9.9c0-.6 0-1.2-.1-1.8s-.3-1.1-.8-1.7c-.7-.8-1.5-1.4-2.5-1.7s-2-.5-3.2-.5c-1.3 0-2.4.2-3.3.7s-1.8 1.1-2.6 1.8v-2.1h-2.1v15.1h2.1zm-6.1 8.2v-1.7h-15v-8.3h13.2v-1.8h-13.2v-7.6h14.6v-1.7h-17v21h17.4zm-27.3-7.5c0-.8.1-1.6.3-2.4s.5-1.4 1-2 1.1-1 1.9-1.3 1.8-.5 3-.5v-1.9c-1.5 0-2.8.2-3.7.7s-1.7 1.3-2.3 2.5h-.2v-2.8h-2.1v15.1h2.1zm-6.4.3c0-2.7-.7-4.8-2.1-6.2s-3.4-2.1-6-2.1c-1.3 0-2.5.2-3.6.6-1 .4-1.9 1-2.6 1.7s-1.3 1.6-1.7 2.6-.6 2-.6 3.1.2 2.1.5 3.1.8 1.8 1.5 2.5 1.6 1.3 2.6 1.7c1.1.4 2.3.6 3.8.6 1.2 0 2.2-.1 3.1-.4s1.6-.6 2.3-1.1c.6-.5 1.2-1 1.6-1.6s.8-1.3 1-2h-2.4c-.3 1.1-1 2-2 2.6s-2.2.9-3.6.9c-1 0-1.9-.2-2.7-.5s-1.4-.7-1.9-1.3c-.5-.5-.9-1.2-1.2-1.9s-.4-1.5-.4-2.3zm-14.3-1.5c.1-.7.3-1.4.6-2s.7-1.2 1.2-1.7 1.1-.9 1.8-1.2 1.6-.4 2.5-.4 1.8.1 2.5.4 1.3.7 1.8 1.1c.5.5.9 1 1.1 1.7s.4 1.3.4 2.1zm-4.7 7.3c-.3.1-.6.1-.9.1s-.6.1-.9.1c-.4 0-.8 0-1-.1s-.4-.2-.5-.4-.2-.4-.2-.7 0-.6 0-1v-10.3h3.4v-1.5h-3.5v-4.2h-2.1v4.2h-2.6v1.5h2.6v11.1c0 1.1.3 1.9.8 2.3.6.4 1.4.7 2.4.7.5 0 1 0 1.4-.1s.8-.2 1-.2v-1.5zm-24.1-6.8c0-.5 0-1 .1-1.5 0-.4.2-.9.4-1.4.2-.4.4-.8.7-1.1.3-.4.7-.7 1.1-.9.4-.3.9-.5 1.5-.7.5-.2 1.1-.2 1.8-.2 1.7 0 2.9.3 3.7 1 .7.7 1.1 1.7 1.1 3.1v9.9h2.1v-9.9c0-.6 0-1.2-.1-1.8s-.4-1.1-.8-1.7c-.7-.8-1.5-1.4-2.4-1.7-1-.3-2-.5-3.2-.5-1.3 0-2.4.2-3.3.7s-1.8 1.1-2.6 1.8v-2.1h-2.1v15.1h2.1v-8.1zm-7.4-12.9h-2.3v2.6h2.3zm-.1 5.9h-2.1v15.1h2.1z" fill="#828282"></path><path d="m-80.3-69.3h1920v2780h-1920z" fill="none"></path></svg> 