<?xml version="1.0" encoding="UTF-8"?> <svg xmlns="http://www.w3.org/2000/svg" clip-rule="evenodd" fill-rule="evenodd" viewBox="0 0 229 36"><g fill="#4557a6"><path d="m26.063 4.91c-2.441 1.207-4.309 2.878-5.761 5.056-.464.696-.905 1.496-1.264 2.349-.686 1.626-1.219 3.729-1.106 6.088.108 2.283.619 4.168 1.422 5.792 1.206 2.44 2.876 4.309 5.055 5.761.729.486 1.502.908 2.349 1.264 1.663.701 3.741 1.217 6.098 1.106 2.261-.106 4.184-.613 5.793-1.422 3.187-1.602 5.603-4.047 7.014-7.414.527-1.255.933-2.698 1.064-4.339.045-.559.081-1.142.053-1.738-.135-2.843-.943-5.083-2.064-6.952-1.132-1.887-2.598-3.392-4.413-4.603-.725-.483-1.505-.913-2.349-1.264-1.646-.685-3.743-1.218-6.098-1.106-2.302.109-4.178.623-5.793 1.422m6.245-4.16h.095c2.762.056 5.07.613 7.036 1.527 3.907 1.815 6.712 4.659 8.542 8.563.916 1.954 1.475 4.266 1.527 7.025v.095c-.079 4.137-1.333 7.252-3.096 9.763-1.185 1.688-2.594 3.092-4.287 4.276-.832.583-1.738 1.115-2.728 1.559-1.958.879-4.299 1.512-7.056 1.506-2.753-.004-5.136-.631-7.058-1.516-3.914-1.802-6.737-4.68-8.563-8.563-.917-1.951-1.473-4.287-1.527-7.035v-.094c.019-.344.021-.719.042-1.055.15-2.321.707-4.278 1.496-5.982 1.362-2.94 3.326-5.214 5.825-6.994.831-.591 1.744-1.086 2.727-1.548 1.956-.917 4.276-1.476 7.025-1.527"></path><path d="m38.881 7.48c.167 0 .381-.034.516 0 .098.026.228.142.337.21.804.511 1.581 1.018 2.359 1.518.012.004.026.012.011 0-1.297-1.464-2.882-2.638-4.845-3.435.007.566-.014 1.16.01 1.707zm-2.518-1.99c-.035.173 0 .407 0 .621v1.874c-.259-.024-.565-.004-.843-.01.034.263-.032.368-.125.506-.14.209-.285.397-.4.6-.059-.084-.153-.131-.232-.211-.07-.069-.138-.198-.232-.221-.159-.038-.364 0-.537 0-.177 0-.343.002-.516 0v-.252h-1.464v.673c-.174 0-.286.002-.453 0-.008.211.014.45-.011.644-.734-.002-1.499 0-2.201 0 .024-.121.004-.285.01-.422h-1.695c-.007.126.014.281-.011.389h-1.359c.023-.197.004-.387.011-.611h-.348v1.043c-.141.104-.311.18-.453.285-.102-.058-.113-.201-.221-.232-.157-.046-.532 0-.695 0-.238 0-.512-.045-.705 0-.05.011-.139.091-.211.137-.955.608-1.852 1.209-2.77 1.822-.143.095-.338.192-.422.295-.067.083-.102.223-.157.348-.765 1.724-1.264 4.019-.991 6.509.269 2.444 1.119 4.363 2.191 5.971 1.097 1.645 2.547 2.948 4.213 3.95 1.727 1.039 3.775 1.704 6.372 1.791-.227-.305-.485-.586-.737-.875-3.691-4.231-7.319-8.506-10.996-12.754-.102-.119-.3-.397-.4-.422-.152-.037-.333.029-.474 0 .024-.309.003-.719.01-1.011h4.941c-.008.334.013.695-.011 1.011h-.463c2.61 4.484 5.319 9.1 7.972 13.618.07.12.205.404.275.433.087.036.155-.013.262 0 2.724-4.585 5.41-9.251 8.121-13.84.043-.073.116-.143.105-.211h-.474c.032-.313-.01-.698.022-1.011 1.642.007 3.314-.013 4.94.011-.008.33.013.687-.011 1h-.485c-4.025 4.617-8.025 9.326-12.038 13.945-.02.024-.083.059-.064.106 2.797-.085 5.033-.899 6.847-2.095 1.776-1.175 3.268-2.727 4.328-4.625 1.054-1.888 1.79-4.274 1.633-7.225-.036-.677-.151-1.332-.284-1.948-.396-1.83-1.153-3.343-2.055-4.666-.002-.005-.016-.018-.02-.022-.114-.112-.32-.207-.474-.306-1.043-.667-2.041-1.315-3.086-1.979-.086-.055-.199-.148-.263-.148-.801 0-1.71.009-2.465-.01v-1.864c0-.162.042-.489 0-.622-.028-.084-.167-.119-.221-.19-.06.065-.157.096-.18.201m-4.613-.653c-1.268.061-2.35.269-3.349.601-3.371 1.115-5.828 3.226-7.457 6.066.827-.525 1.62-1.078 2.454-1.612.119-.076.254-.208.358-.232.121-.026.287 0 .421 0h1.285v-1.084h1.338v.61h.369v-.39c.891.007 1.811-.013 2.686.011-.001.157.003.254 0 .401.382.024.811.003 1.211.01v-.642c.147-.007.322.013.452-.01.001-.248-.001-.439 0-.676h2.454c.006.088-.011.194.011.265.238.038.566-.054.758 0 .09.023.121.135.18.126.176-.126.08-.523.105-.801h.832c.006-.73-.014-1.489.011-2.201-1.217-.316-2.645-.514-4.119-.442m4.783-.2c.192.176.376.298.579.464.059.047.114.118.178.157.085.05.198.074.295.115 2.866 1.217 5.101 3.238 6.573 5.856 1.121 1.997 1.997 4.623 1.727 7.805-.083.972-.262 1.88-.505 2.697-.98 3.273-2.895 5.674-5.425 7.415-1.246.856-2.722 1.553-4.445 1.969-.859.208-1.85.368-2.843.368-1.026 0-1.975-.066-2.929-.252-1.777-.346-3.275-.991-4.602-1.822-1.317-.824-2.436-1.839-3.392-3.023-.944-1.169-1.729-2.543-2.264-4.161-.526-1.59-.864-3.555-.653-5.634.287-2.824 1.348-5.126 2.729-6.91 1.844-2.385 4.374-4.234 7.803-5.024.439-.1.893-.179 1.37-.231.478-.054.97-.07 1.506-.095 1.243-.058 2.513.169 3.517.411.151.036.308.104.443.115.15.014.223-.179.338-.22"></path><path d="m29.896 13.948c1.662.007 3.286-.015 4.93.01v1c-.141-.024-.326-.004-.485-.01-.52 3.924-.986 7.903-1.495 11.838h.484c.025.313.004.671.011 1-.654.008-1.334-.013-1.97.011-.025-.308-.003-.719-.01-1.011h.484c-.468-3.916-1-7.918-1.464-11.838-.161.006-.351-.015-.495.01-.025-.305-.003-.656-.011-.979 0-.018.009-.028.021-.031"></path><g fill-rule="nonzero"><path d="m70.381 13.765v.208h-3.263v-.208h.269c.315 0 .543-.092.686-.276.09-.119.134-.407.134-.864v-4.919c0-.385-.024-.64-.072-.763-.038-.094-.115-.175-.231-.242-.165-.09-.337-.134-.517-.134h-.269v-.208h3.263v.208h-.276c-.31 0-.537.091-.679.274-.094.121-.14.409-.14.865v4.919c0 .386.024.641.072.764.038.093.117.174.237.241.16.09.331.135.51.135z"></path><path d="m76.141 6.185v2.633h-.208c-.068-.505-.188-.908-.362-1.207-.174-.3-.422-.537-.744-.713s-.655-.264-.999-.264c-.39 0-.712.118-.966.357-.255.237-.382.508-.382.811 0 .232.08.444.242.634.231.281.783.656 1.656 1.123.711.382 1.197.675 1.457.879s.46.445.601.721c.14.277.21.567.21.871 0 .577-.223 1.073-.671 1.49-.447.418-1.023.627-1.726.627-.221 0-.429-.017-.624-.051-.115-.019-.356-.087-.721-.205-.365-.117-.596-.177-.694-.177-.093 0-.167.028-.221.085-.055.056-.095.172-.121.348h-.208v-2.611h.208c.097.546.228.955.393 1.227.164.271.416.496.755.676s.711.27 1.115.27c.468 0 .838-.124 1.109-.371.271-.246.407-.539.407-.876 0-.187-.052-.376-.155-.567s-.263-.369-.479-.533c-.147-.112-.545-.351-1.197-.716-.651-.365-1.114-.656-1.39-.873-.275-.217-.484-.457-.626-.719s-.213-.55-.213-.865c0-.547.209-1.017.629-1.412.419-.395.952-.592 1.6-.592.404 0 .833.099 1.286.298.209.093.357.139.443.139.098 0 .178-.028.239-.087.062-.057.112-.175.149-.35h.208z"></path><path d="m84.125 6.359.084 1.785h-.214c-.04-.314-.097-.539-.168-.673-.116-.217-.27-.378-.463-.481s-.446-.154-.761-.154h-1.072v5.817c0 .469.05.76.151.876.143.158.362.236.657.236h.264v.208h-3.228v-.208h.269c.322 0 .55-.097.685-.292.082-.12.123-.393.123-.82v-5.817h-.915c-.355 0-.608.026-.758.079-.194.071-.361.207-.5.409-.138.202-.221.476-.247.82h-.213l.09-1.785z"></path><path d="m88.886 11.008-1.292-3.077-1.325 3.077zm.157.416h-2.948l-.517 1.201c-.127.296-.191.517-.191.662 0 .117.056.219.166.307.111.088.349.145.716.171v.208h-2.397v-.208c.318-.056.523-.129.617-.219.191-.18.403-.545.635-1.095l2.678-6.266h.196l2.651 6.333c.214.509.407.84.581.991.174.152.416.238.727.256v.208h-3.004v-.208c.303-.015.508-.065.615-.152.107-.086.16-.191.16-.314 0-.165-.075-.425-.225-.781z"></path><path d="m94.657 10.059c.072 0 .133.001.186.003.052.002.095.003.129.003.726 0 1.273-.158 1.642-.472.369-.315.553-.715.553-1.202 0-.475-.148-.862-.446-1.159-.297-.298-.692-.447-1.182-.447-.217 0-.511.036-.882.107zm5.408 3.914h-2.033l-2.577-3.56c-.191.008-.346.011-.466.011-.049 0-.101 0-.157-.002-.057-.003-.115-.006-.175-.009v2.212c0 .479.053.777.158.893.142.165.355.247.64.247h.297v.208h-3.262v-.208h.287c.321 0 .552-.105.69-.314.079-.116.118-.392.118-.826v-4.919c0-.479-.053-.776-.157-.893-.146-.165-.363-.246-.651-.246h-.287v-.208h2.774c.808 0 1.405.058 1.789.176.383.119.709.335.977.652.267.317.401.694.401 1.131 0 .469-.153.874-.458 1.219-.305.344-.778.588-1.418.73l1.573 2.184c.359.502.668.835.926 1 .258.164.595.269 1.011.314z"></path><path d="m105.443 6.185v2.633h-.208c-.067-.505-.188-.908-.362-1.207-.174-.3-.422-.537-.744-.713s-.655-.264-.999-.264c-.39 0-.711.118-.966.357-.255.237-.381.508-.381.811 0 .232.08.444.241.634.232.281.784.656 1.656 1.123.711.382 1.197.675 1.457.879.261.204.461.445.601.721.14.277.211.567.211.871 0 .577-.224 1.073-.671 1.49-.448.418-1.023.627-1.727.627-.221 0-.429-.017-.623-.051-.116-.019-.357-.087-.722-.205-.365-.117-.596-.177-.693-.177-.094 0-.168.028-.222.085-.055.056-.094.172-.121.348h-.207v-2.611h.207c.098.546.228.955.393 1.227.165.271.417.496.756.676.338.18.71.27 1.114.27.468 0 .838-.124 1.109-.371.271-.246.407-.539.407-.876 0-.187-.051-.376-.154-.567s-.263-.369-.48-.533c-.146-.112-.545-.351-1.196-.716s-1.115-.656-1.39-.873c-.276-.217-.484-.457-.626-.719-.143-.262-.214-.55-.214-.865 0-.547.21-1.017.629-1.412s.953-.592 1.601-.592c.404 0 .832.099 1.285.298.21.093.358.139.444.139.098 0 .177-.028.239-.087.062-.057.111-.175.148-.35h.208z"></path><path d="m110.21 9.75 2.808 2.791c.46.46.853.774 1.178.94.326.167.652.261.978.284v.208h-3.622v-.208c.217 0 .373-.037.469-.11.095-.072.143-.154.143-.244s-.018-.17-.053-.241c-.036-.071-.153-.204-.352-.399l-2.627-2.599v2.453c0 .386.024.641.073.764.037.093.116.174.236.242.161.089.331.134.511.134h.258v.208h-3.245v-.208h.269c.314 0 .543-.092.685-.275.09-.12.135-.408.135-.865v-4.919c0-.385-.025-.642-.073-.769-.038-.09-.115-.168-.23-.236-.165-.09-.337-.134-.517-.134h-.269v-.208h3.245v.208h-.258c-.176 0-.347.043-.511.129-.116.059-.197.149-.242.269s-.067.367-.067.741v2.331c.075-.072.331-.309.769-.713 1.112-1.019 1.784-1.698 2.016-2.039.101-.15.151-.281.151-.393 0-.086-.039-.161-.117-.227-.079-.066-.212-.098-.399-.098h-.174v-.208h2.796v.208c-.164.003-.315.026-.449.067-.135.041-.3.12-.494.238-.195.119-.435.308-.719.57-.082.075-.462.459-1.14 1.151z"></path><path d="m118.834 13.765v.208h-3.262v-.208h.269c.315 0 .543-.092.685-.276.09-.119.135-.407.135-.864v-4.919c0-.385-.025-.64-.073-.763-.038-.094-.115-.175-.23-.242-.165-.09-.337-.134-.517-.134h-.269v-.208h3.262v.208h-.275c-.311 0-.537.091-.68.274-.093.121-.14.409-.14.865v4.919c0 .386.024.641.073.764.038.093.116.174.236.241.161.09.331.135.511.135z"></path><path d="m130.361 6.359v.208c-.27.048-.474.135-.612.258-.199.183-.375.464-.528.842l-2.656 6.48h-.208l-2.853-6.564c-.146-.337-.249-.543-.309-.618-.093-.116-.208-.207-.345-.272-.136-.065-.321-.108-.553-.126v-.208h3.111v.208c-.352.033-.581.093-.685.179-.105.086-.157.197-.157.331 0 .188.086.48.258.877l1.937 4.464 1.797-4.409c.176-.434.264-.735.264-.904 0-.108-.054-.212-.163-.312-.109-.098-.292-.168-.55-.21-.019-.003-.051-.009-.096-.016v-.208z"></path><path d="m134.807 6.595c-.682 0-1.228.253-1.64.757-.513.629-.769 1.551-.769 2.763 0 1.244.266 2.199.797 2.87.408.509.947.763 1.618.763.714 0 1.305-.279 1.771-.836.466-.558.699-1.438.699-2.64 0-1.302-.256-2.274-.769-2.914-.412-.509-.981-.763-1.707-.763m.106-.41c.989 0 1.845.375 2.57 1.126.724.75 1.086 1.687 1.086 2.81 0 1.156-.365 2.117-1.095 2.88-.73.764-1.613 1.145-2.65 1.145-1.048 0-1.929-.372-2.642-1.117-.713-.744-1.07-1.709-1.07-2.891 0-1.209.412-2.196 1.235-2.96.715-.662 1.571-.993 2.566-.993"></path><path d="m141.589 13.422c.476.105.874.158 1.196.158.868 0 1.589-.305 2.162-.916.573-.609.859-1.437.859-2.481 0-1.052-.286-1.881-.859-2.488-.573-.606-1.308-.91-2.207-.91-.337 0-.721.055-1.151.163zm-2.173.55v-.207h.286c.322 0 .551-.103.685-.309.083-.123.124-.4.124-.831v-4.919c0-.475-.052-.773-.157-.893-.146-.165-.363-.246-.652-.246h-.286v-.209h3.1c1.137 0 2.003.13 2.597.388.593.258 1.07.689 1.431 1.292.362.603.542 1.299.542 2.088 0 1.06-.322 1.946-.965 2.657-.723.793-1.823 1.189-3.302 1.189z"></path><path d="m151.83 6.595c-.681 0-1.227.253-1.639.757-.513.629-.769 1.551-.769 2.763 0 1.244.265 2.199.797 2.87.408.509.947.763 1.617.763.715 0 1.306-.279 1.772-.836.466-.558.699-1.438.699-2.64 0-1.302-.257-2.274-.769-2.914-.413-.509-.981-.763-1.708-.763m.107-.41c.988 0 1.845.375 2.569 1.126.725.75 1.087 1.687 1.087 2.81 0 1.156-.365 2.117-1.095 2.88-.73.764-1.614 1.145-2.651 1.145-1.048 0-1.929-.372-2.641-1.117-.714-.744-1.07-1.709-1.07-2.891 0-1.209.412-2.196 1.235-2.96.715-.662 1.571-.993 2.566-.993"></path><path d="m164.408 6.359v.208c-.27.048-.474.135-.612.258-.199.183-.375.464-.528.842l-2.656 6.48h-.208l-2.852-6.564c-.146-.337-.249-.543-.309-.618-.094-.116-.209-.207-.346-.272-.136-.065-.32-.108-.553-.126v-.208h3.111v.208c-.352.033-.58.093-.685.179s-.157.197-.157.331c0 .188.086.48.258.877l1.938 4.464 1.796-4.409c.176-.434.264-.735.264-.904 0-.108-.054-.212-.163-.312-.108-.098-.292-.168-.55-.21-.019-.003-.05-.009-.096-.016v-.208z"></path><path d="m168.854 6.595c-.681 0-1.228.253-1.639.757-.514.629-.77 1.551-.77 2.763 0 1.244.266 2.199.797 2.87.408.509.947.763 1.618.763.715 0 1.305-.279 1.771-.836.466-.558.699-1.438.699-2.64 0-1.302-.256-2.274-.769-2.914-.412-.509-.981-.763-1.707-.763m.107-.41c.988 0 1.844.375 2.569 1.126.724.75 1.086 1.687 1.086 2.81 0 1.156-.365 2.117-1.095 2.88-.73.764-1.613 1.145-2.65 1.145-1.048 0-1.929-.372-2.642-1.117-.713-.744-1.07-1.709-1.07-2.891 0-1.209.412-2.196 1.236-2.96.715-.662 1.57-.993 2.566-.993"></path><path d="m175.636 13.422c.476.105.875.158 1.197.158.868 0 1.589-.305 2.161-.916.573-.609.859-1.437.859-2.481 0-1.052-.286-1.881-.859-2.488-.572-.606-1.308-.91-2.206-.91-.337 0-.721.055-1.152.163zm-2.173.55v-.207h.287c.322 0 .55-.103.685-.309.082-.123.124-.4.124-.831v-4.919c0-.475-.053-.773-.158-.893-.146-.165-.363-.246-.651-.246h-.287v-.209h3.1c1.138 0 2.004.13 2.597.388s1.071.689 1.432 1.292.542 1.299.542 2.088c0 1.06-.322 1.946-.966 2.657-.723.793-1.823 1.189-3.302 1.189z"></path><path d="m188.853 13.001v-2.65c-.022-.255-.09-.486-.202-.696-.113-.21-.261-.368-.446-.475-.186-.106-.367-.16-.542-.16-.33 0-.623.148-.882.444-.341.389-.511.959-.511 1.707 0 .756.165 1.335.494 1.738.33.402.696.603 1.101.603.34 0 .67-.169.988-.511m0 .393c-.251.262-.496.451-.736.565-.239.114-.497.171-.774.171-.562 0-1.053-.235-1.472-.705-.419-.469-.629-1.073-.629-1.81 0-.738.233-1.413.696-2.025.465-.612 1.062-.918 1.792-.918.453 0 .827.144 1.123.432v-.948c0-.588-.014-.949-.042-1.084s-.072-.227-.132-.275c-.06-.049-.135-.073-.225-.073-.097 0-.226.03-.387.089l-.073-.195 1.533-.63h.253v5.947c0 .602.013.97.042 1.102.028.134.072.227.134.279s.134.078.216.078c.102 0 .237-.031.405-.095l.061.197-1.527.634h-.258z"></path><path d="m192.255 12.883c.176 0 .324.061.444.183s.18.269.18.441-.061.319-.183.441c-.122.121-.269.182-.441.182s-.319-.061-.441-.182c-.122-.122-.182-.269-.182-.441 0-.176.06-.325.182-.443.122-.121.269-.181.441-.181"></path><path d="m196.6 9.043c-.198 0-.398.059-.598.177-.2.117-.362.324-.485.62-.124.296-.186.676-.186 1.14 0 .749.149 1.394.447 1.938.297.542.69.813 1.176.813.363 0 .663-.149.898-.449.236-.299.354-.814.354-1.544 0-.914-.196-1.632-.589-2.156-.266-.36-.605-.539-1.017-.539m.174-.365c.779 0 1.404.295 1.876.887.401.505.601 1.085.601 1.741 0 .46-.111.926-.332 1.398-.22.471-.525.827-.912 1.066-.388.24-.819.36-1.295.36-.775 0-1.39-.309-1.847-.926-.385-.521-.578-1.104-.578-1.752 0-.472.117-.941.351-1.407s.542-.811.923-1.033c.382-.223.787-.334 1.213-.334"></path><path d="m201.294 12.883c.176 0 .323.061.443.183s.18.269.18.441-.061.319-.182.441c-.122.121-.269.182-.441.182s-.319-.061-.441-.182c-.122-.122-.182-.269-.182-.441 0-.176.06-.325.182-.443.122-.121.269-.181.441-.181"></path><path d="m205.639 9.043c-.198 0-.397.059-.597.177-.201.117-.363.324-.487.62-.123.296-.185.676-.185 1.14 0 .749.149 1.394.447 1.938.297.542.689.813 1.176.813.363 0 .662-.149.898-.449.237-.299.354-.814.354-1.544 0-.914-.196-1.632-.59-2.156-.265-.36-.604-.539-1.016-.539m.174-.365c.779 0 1.404.295 1.876.887.4.505.601 1.085.601 1.741 0 .46-.111.926-.332 1.398-.22.471-.525.827-.912 1.066-.387.24-.819.36-1.294.36-.775 0-1.391-.309-1.848-.926-.386-.521-.578-1.104-.578-1.752 0-.472.117-.941.351-1.407s.542-.811.924-1.033c.382-.223.786-.334 1.212-.334"></path><path d="m48.977 17.231h180.523" stroke="#4557a6" stroke-width="1.59"></path><path d="m48.977 19.983h180.523" stroke="#4557a6" stroke-width="1.59"></path><path d="m.75 17.231h15.044" stroke="#4557a6" stroke-width="1.59"></path><path d="m.75 19.983h15.044" stroke="#4557a6" stroke-width="1.59"></path><path d="m69.951 23.332-2.359 3.373h1.472c.226 0 .399-.049.52-.148.121-.098.228-.299.322-.601l.087.017-.169.95h-2.924v-.098l2.304-3.278h-1.149c-.191 0-.329.021-.414.062-.086.042-.151.102-.196.18s-.087.225-.124.441h-.1l.074-.898z"></path><path d="m72.551 25.525-.609-1.451-.625 1.451zm.074.196h-1.39l-.243.567c-.061.138-.09.243-.09.311 0 .056.026.103.078.145.052.041.164.068.337.08v.099h-1.131v-.099c.15-.026.248-.06.292-.103.09-.084.19-.256.299-.516l1.263-2.955h.093l1.25 2.987c.1.24.192.396.274.467.082.072.196.112.342.12v.099h-1.416v-.099c.143-.006.24-.03.29-.071s.076-.089.076-.148c0-.078-.036-.2-.107-.368z"></path><path d="m76.229 25.09c.094.018.177.032.249.04.072.009.134.014.185.014.184 0 .342-.072.476-.214.133-.142.199-.326.199-.552 0-.155-.031-.299-.095-.433-.063-.133-.153-.233-.27-.299s-.249-.099-.397-.099c-.09 0-.206.017-.347.05zm0 .151v1.047c0 .226.025.365.075.421.066.077.168.116.304.116h.138v.098h-1.539v-.098h.135c.152 0 .26-.05.326-.149.035-.054.053-.184.053-.388v-2.32c0-.226-.024-.367-.072-.421-.069-.078-.171-.117-.307-.117h-.135v-.098h1.316c.321 0 .574.034.76.099.185.067.341.178.469.336.127.156.19.343.19.559 0 .292-.096.53-.289.714-.194.184-.467.275-.82.275-.086 0-.18-.006-.281-.018-.1-.013-.208-.031-.323-.056"></path><path d="m79.248 25.077c.033 0 .062.001.087.002s.045.001.061.001c.342 0 .6-.075.774-.223s.261-.337.261-.566c0-.225-.07-.407-.211-.547-.14-.14-.325-.21-.557-.21-.102 0-.241.016-.415.05zm2.55 1.846h-.959l-1.216-1.679c-.089.003-.163.005-.219.005-.023 0-.048 0-.074-.001-.027-.001-.054-.002-.082-.004v1.043c0 .227.024.367.074.421.067.078.168.117.301.117h.141v.098h-1.539v-.098h.136c.152 0 .26-.05.325-.149.037-.054.056-.184.056-.389v-2.319c0-.226-.025-.366-.074-.421-.069-.078-.172-.117-.307-.117h-.136v-.097h1.309c.381 0 .662.027.843.082.181.057.334.159.461.308.126.149.189.327.189.533 0 .221-.072.412-.216.575-.144.162-.367.277-.668.345l.741 1.029c.17.237.315.393.437.471s.281.128.477.149z"></path><path d="m83.683 23.443c-.321 0-.579.12-.774.358-.242.296-.362.731-.362 1.303 0 .585.125 1.036.376 1.353.192.24.447.359.762.359.338 0 .616-.131.836-.394s.33-.678.33-1.244c0-.614-.121-1.072-.363-1.374-.195-.24-.463-.361-.805-.361m.05-.193c.466 0 .87.177 1.211.531.342.354.513.796.513 1.325 0 .546-.172.999-.517 1.359-.343.359-.76.54-1.249.54-.494 0-.91-.176-1.247-.527-.335-.351-.504-.806-.504-1.364 0-.57.195-1.035.583-1.395.337-.313.74-.469 1.21-.469"></path><path d="m87.339 26.825v.098h-1.538v-.098h.127c.148 0 .256-.043.323-.13.042-.057.064-.192.064-.408v-2.319c0-.182-.012-.302-.035-.361-.017-.044-.053-.082-.108-.113-.078-.042-.159-.064-.244-.064h-.127v-.098h1.538v.098h-.13c-.146 0-.253.044-.32.13-.044.056-.066.192-.066.408v2.319c0 .182.012.302.035.36.017.045.054.082.111.114.075.043.156.064.24.064z"></path><path d="m90.591 23.332-2.359 3.373h1.472c.226 0 .399-.049.52-.148.121-.098.229-.299.322-.601l.088.017-.17.95h-2.923v-.098l2.303-3.278h-1.149c-.191 0-.329.021-.414.062-.086.042-.151.102-.196.18s-.086.225-.124.441h-.1l.074-.898z"></path><path d="m94.634 23.332v.098c-.126.023-.223.064-.288.122-.094.086-.177.219-.249.397l-1.253 3.056h-.097l-1.346-3.095c-.069-.159-.117-.256-.145-.291-.045-.055-.099-.099-.163-.129-.064-.031-.151-.051-.261-.06v-.098h1.467v.098c-.166.016-.274.045-.323.085-.05.04-.074.093-.074.157 0 .088.041.225.122.412l.913 2.105.847-2.078c.083-.205.125-.347.125-.427 0-.051-.026-.099-.077-.146s-.138-.08-.259-.1c-.009-.002-.024-.004-.045-.008v-.098z"></path><path d="m96.634 23.443c-.322 0-.579.12-.774.358-.242.296-.362.731-.362 1.303 0 .585.125 1.036.376 1.353.192.24.446.359.762.359.338 0 .616-.131.836-.394s.33-.678.33-1.244c0-.614-.121-1.072-.363-1.374-.195-.24-.463-.361-.805-.361m.05-.193c.466 0 .87.177 1.211.531.342.354.513.796.513 1.325 0 .546-.172.999-.517 1.359-.344.359-.76.54-1.249.54-.495 0-.91-.176-1.247-.527-.336-.351-.504-.806-.504-1.364 0-.57.194-1.035.583-1.395.337-.313.74-.469 1.21-.469"></path><path d="m99.734 26.663c.224.05.413.075.565.075.409 0 .749-.145 1.019-.432.27-.288.405-.678.405-1.171 0-.495-.135-.886-.405-1.172s-.617-.429-1.041-.429c-.158 0-.34.025-.543.076zm-1.024.26v-.098h.135c.152 0 .259-.049.323-.146.038-.058.058-.189.058-.391v-2.32c0-.225-.024-.365-.074-.421-.069-.078-.171-.117-.307-.117h-.135v-.097h1.461c.537 0 .945.06 1.225.182s.505.325.675.609.256.612.256.985c0 .5-.152.917-.456 1.252-.341.375-.859.562-1.557.562z"></path><path d="m102.461 23.332h.975l2.195 2.693v-2.071c0-.22-.025-.358-.074-.412-.066-.075-.169-.112-.31-.112h-.125v-.098h1.25v.098h-.127c-.151 0-.259.046-.323.138-.039.057-.058.185-.058.386v3.027h-.095l-2.368-2.892v2.212c0 .22.024.358.072.413.067.074.17.111.31.111h.127v.098h-1.25v-.098h.125c.153 0 .262-.046.326-.138.038-.056.057-.185.057-.386v-2.497c-.104-.122-.183-.202-.236-.241-.054-.039-.134-.075-.238-.109-.05-.016-.128-.024-.233-.024z"></path><path d="m106.99 23.43v-.098h1.538v.098h-.13c-.146 0-.253.043-.32.13-.042.057-.064.192-.064.408v1.755c0 .27-.029.489-.088.657-.06.168-.162.314-.306.438-.145.125-.32.187-.525.187-.165 0-.296-.042-.391-.123-.096-.082-.144-.177-.144-.282 0-.086.023-.151.067-.196.058-.055.126-.082.203-.082.057 0 .108.018.153.055s.102.137.171.297c.04.095.092.143.156.143.047 0 .092-.029.133-.088.042-.058.063-.161.063-.309v-2.452c0-.182-.012-.302-.035-.36-.017-.044-.054-.083-.111-.114-.076-.042-.156-.064-.241-.064z"></path><path d="m111.147 23.43v-.098h1.271v.098h-.135c-.141 0-.25.059-.326.178-.037.054-.056.182-.056.381v1.456c0 .361-.036.639-.107.839-.072.198-.212.368-.421.511-.209.141-.494.212-.854.212-.392 0-.689-.068-.892-.203-.204-.136-.347-.319-.432-.549-.057-.157-.085-.451-.085-.884v-1.403c0-.221-.03-.366-.091-.435s-.159-.103-.295-.103h-.135v-.098h1.551v.098h-.137c-.149 0-.254.047-.318.141-.044.063-.066.196-.066.397v1.565c0 .139.013.298.038.479.026.18.072.32.139.421.067.1.164.183.29.249.127.065.282.098.465.098.235 0 .445-.051.63-.154.185-.102.312-.233.38-.393s.102-.43.102-.812v-1.453c0-.224-.025-.365-.074-.421-.069-.078-.171-.117-.308-.117z"></path><path d="m115.505 26.825v.098h-1.538v-.098h.127c.148 0 .256-.043.323-.13.042-.057.063-.192.063-.408v-2.319c0-.182-.011-.302-.034-.361-.018-.044-.054-.082-.108-.113-.078-.042-.16-.064-.244-.064h-.127v-.098h1.538v.098h-.13c-.146 0-.253.044-.32.13-.044.056-.066.192-.066.408v2.319c0 .182.011.302.034.36.018.045.055.082.111.114.076.043.157.064.241.064z"></path><path d="m118.111 26.663c.223.05.412.075.564.075.409 0 .749-.145 1.019-.432.27-.288.405-.678.405-1.171 0-.495-.135-.886-.405-1.172s-.617-.429-1.041-.429c-.158 0-.34.025-.542.076zm-1.025.26v-.098h.135c.152 0 .259-.049.323-.146.038-.058.058-.189.058-.391v-2.32c0-.225-.024-.365-.074-.421-.069-.078-.171-.117-.307-.117h-.135v-.097h1.461c.537 0 .945.06 1.225.182s.505.325.675.609c.171.284.256.612.256.985 0 .5-.152.917-.456 1.252-.341.375-.859.562-1.556.562z"></path><path d="m122.583 26.825v.098h-1.539v-.098h.128c.148 0 .256-.043.322-.13.043-.057.064-.192.064-.408v-2.319c0-.182-.012-.302-.034-.361-.018-.044-.054-.082-.109-.113-.078-.042-.159-.064-.243-.064h-.128v-.098h1.539v.098h-.13c-.147 0-.253.044-.32.13-.045.056-.066.192-.066.408v2.319c0 .182.011.302.034.36.018.045.055.082.111.114.076.043.156.064.241.064z"></path><path d="m125.202 23.25v1.242h-.098c-.032-.238-.089-.428-.171-.569-.082-.142-.199-.254-.351-.336-.152-.083-.309-.125-.471-.125-.184 0-.336.056-.456.168s-.18.239-.18.383c0 .11.038.209.114.299.109.133.37.309.781.53.335.18.565.318.687.414.123.096.217.21.284.34.066.131.099.268.099.411 0 .271-.106.505-.316.703-.212.197-.483.295-.815.295-.104 0-.202-.008-.293-.024-.055-.009-.169-.041-.341-.096-.172-.056-.281-.085-.327-.085-.044 0-.079.014-.104.041-.026.026-.045.081-.057.164h-.098v-1.231h.098c.046.257.107.45.185.578s.196.234.356.319.335.128.526.128c.22 0 .395-.059.523-.176.128-.115.192-.253.192-.413 0-.088-.025-.177-.073-.267-.049-.09-.124-.174-.227-.251-.069-.053-.256-.166-.563-.338-.308-.172-.526-.309-.656-.412-.13-.102-.228-.216-.295-.339s-.101-.259-.101-.408c0-.257.099-.479.297-.666.198-.186.449-.279.755-.279.19 0 .392.047.606.141.099.044.169.066.209.066.046 0 .083-.014.112-.041.03-.027.053-.083.071-.166z"></path><path d="m128.869 23.332.04.842h-.101c-.019-.148-.046-.254-.08-.318-.054-.102-.127-.178-.218-.226-.091-.049-.21-.073-.359-.073h-.505v2.744c0 .22.024.358.071.413.067.074.17.111.31.111h.124v.098h-1.522v-.098h.127c.151 0 .259-.046.323-.138.039-.056.058-.185.058-.386v-2.744h-.432c-.167 0-.286.013-.357.038-.092.033-.17.097-.236.192-.065.096-.104.225-.116.387h-.101l.043-.842z"></path><path d="m130.158 25.077c.034 0 .063.001.088.002.024.001.045.001.06.001.343 0 .601-.075.775-.223s.261-.337.261-.566c0-.225-.07-.407-.211-.547-.14-.14-.326-.21-.557-.21-.103 0-.241.016-.416.05zm2.55 1.846h-.958l-1.216-1.679c-.09.003-.163.005-.22.005-.022 0-.047 0-.073-.001-.027-.001-.055-.002-.083-.004v1.043c0 .227.025.367.075.421.067.078.167.117.301.117h.141v.098h-1.539v-.098h.136c.151 0 .26-.05.325-.149.037-.054.056-.184.056-.389v-2.319c0-.226-.025-.366-.075-.421-.069-.078-.171-.117-.306-.117h-.136v-.097h1.308c.381 0 .663.027.844.082.181.057.334.159.46.308.127.149.19.327.19.533 0 .221-.072.412-.216.575-.144.162-.367.277-.668.345l.741 1.029c.169.237.315.393.437.471.121.078.281.128.476.149z"></path><path d="m134.334 26.825v.098h-1.538v-.098h.127c.148 0 .256-.043.323-.13.042-.057.063-.192.063-.408v-2.319c0-.182-.011-.302-.034-.361-.018-.044-.054-.082-.108-.113-.079-.042-.16-.064-.244-.064h-.127v-.098h1.538v.098h-.13c-.146 0-.253.044-.32.13-.045.056-.066.192-.066.408v2.319c0 .182.011.302.034.36.018.045.055.082.111.114.076.043.157.064.241.064z"></path><path d="m135.584 26.663c.205.048.407.072.606.072.32 0 .564-.072.731-.216s.252-.322.252-.533c0-.14-.038-.274-.114-.403s-.2-.231-.371-.305-.383-.111-.636-.111c-.109 0-.203.002-.28.005-.078.004-.14.01-.188.019zm0-1.715c.065.012.14.021.224.027.084.007.175.01.276.01.258 0 .452-.028.581-.084.13-.055.23-.141.299-.255.068-.116.103-.241.103-.377 0-.209-.086-.389-.257-.537-.172-.148-.421-.222-.75-.222-.176 0-.335.02-.476.058zm1.387.142c.249.053.436.138.559.255.171.162.257.36.257.596 0 .178-.056.349-.169.512-.114.163-.268.283-.465.357-.197.075-.498.113-.902.113h-1.695v-.098h.136c.149 0 .257-.048.322-.144.041-.061.061-.192.061-.393v-2.32c0-.223-.025-.363-.077-.421-.068-.078-.17-.117-.306-.117h-.136v-.097h1.552c.289 0 .522.02.696.063.265.063.468.176.607.337.14.162.209.348.209.558 0 .179-.054.341-.164.483s-.271.247-.485.316"></path><path d="m140.67 23.43v-.098h1.271v.098h-.134c-.142 0-.25.059-.326.178-.037.054-.056.182-.056.381v1.456c0 .361-.036.639-.107.839-.072.198-.212.368-.421.511-.209.141-.494.212-.854.212-.392 0-.689-.068-.893-.203-.203-.136-.347-.319-.431-.549-.057-.157-.085-.451-.085-.884v-1.403c0-.221-.03-.366-.091-.435s-.159-.103-.295-.103h-.136v-.098h1.552v.098h-.137c-.149 0-.254.047-.318.141-.044.063-.066.196-.066.397v1.565c0 .139.013.298.038.479.026.18.072.32.139.421.067.1.164.183.29.249.126.065.281.098.464.098.236 0 .446-.051.631-.154.185-.102.312-.233.38-.393s.102-.43.102-.812v-1.453c0-.224-.025-.365-.075-.421-.068-.078-.17-.117-.307-.117z"></path><path d="m145.265 23.25.082 1.221h-.082c-.11-.365-.266-.629-.469-.789-.203-.161-.447-.241-.731-.241-.238 0-.454.061-.646.181-.192.121-.344.314-.454.579-.11.264-.166.594-.166.987 0 .326.052.607.156.845.105.238.262.421.471.548.209.128.448.191.716.191.233 0 .438-.05.617-.15.178-.1.374-.298.588-.595l.082.054c-.18.32-.391.553-.63.701-.241.149-.526.223-.856.223-.595 0-1.055-.221-1.382-.663-.243-.328-.366-.714-.366-1.159 0-.358.081-.687.241-.988.161-.3.383-.532.664-.697.282-.166.589-.248.923-.248.259 0 .515.064.768.191.074.039.126.058.158.058.048 0 .089-.016.125-.05.046-.048.079-.115.098-.199z"></path><path d="m147.29 26.825v.098h-1.538v-.098h.127c.148 0 .256-.043.323-.13.042-.057.063-.192.063-.408v-2.319c0-.182-.011-.302-.034-.361-.018-.044-.054-.082-.108-.113-.078-.042-.16-.064-.244-.064h-.127v-.098h1.538v.098h-.13c-.146 0-.253.044-.32.13-.044.056-.066.192-.066.408v2.319c0 .182.011.302.034.36.018.045.055.082.111.114.076.043.157.064.241.064z"></path><path d="m147.963 23.43v-.098h1.538v.098h-.13c-.146 0-.253.043-.32.13-.042.057-.063.192-.063.408v1.755c0 .27-.03.489-.089.657s-.161.314-.306.438c-.144.125-.32.187-.524.187-.166 0-.297-.042-.392-.123-.096-.082-.143-.177-.143-.282 0-.086.022-.151.066-.196.058-.055.126-.082.204-.082.056 0 .107.018.152.055s.102.137.171.297c.041.095.093.143.156.143.048 0 .092-.029.134-.088.042-.058.062-.161.062-.309v-2.452c0-.182-.011-.302-.034-.36-.018-.044-.055-.083-.112-.114-.076-.042-.156-.064-.241-.064z"></path><path d="m152.12 23.43v-.098h1.271v.098h-.135c-.141 0-.25.059-.326.178-.037.054-.055.182-.055.381v1.456c0 .361-.037.639-.108.839-.071.198-.211.368-.42.511-.21.141-.495.212-.855.212-.392 0-.689-.068-.892-.203-.203-.136-.347-.319-.431-.549-.057-.157-.085-.451-.085-.884v-1.403c0-.221-.031-.366-.092-.435s-.159-.103-.295-.103h-.135v-.098h1.552v.098h-.138c-.148 0-.254.047-.318.141-.044.063-.066.196-.066.397v1.565c0 .139.013.298.038.479.026.18.072.32.14.421.067.1.163.183.29.249.126.065.281.098.464.098.235 0 .445-.051.63-.154.186-.102.312-.233.38-.393s.102-.43.102-.812v-1.453c0-.224-.025-.365-.074-.421-.068-.078-.171-.117-.307-.117z"></path><path d="m158.557 23.332v.098c-.127.023-.223.064-.288.122-.094.086-.177.219-.25.397l-1.252 3.056h-.098l-1.345-3.095c-.069-.159-.117-.256-.145-.291-.045-.055-.099-.099-.163-.129-.065-.031-.152-.051-.261-.06v-.098h1.467v.098c-.166.016-.274.045-.323.085-.05.04-.075.093-.075.157 0 .088.041.225.123.412l.913 2.105.847-2.078c.083-.205.125-.347.125-.427 0-.051-.026-.099-.077-.146s-.138-.08-.259-.1c-.009-.002-.024-.004-.045-.008v-.098z"></path><path d="m160.556 23.443c-.321 0-.579.12-.773.358-.242.296-.363.731-.363 1.303 0 .585.126 1.036.376 1.353.193.24.447.359.763.359.337 0 .615-.131.835-.394s.33-.678.33-1.244c0-.614-.121-1.072-.363-1.374-.194-.24-.462-.361-.805-.361m.05-.193c.466 0 .87.177 1.211.531.342.354.513.796.513 1.325 0 .546-.172.999-.516 1.359-.344.359-.761.54-1.25.54-.494 0-.91-.176-1.246-.527s-.504-.806-.504-1.364c0-.57.194-1.035.582-1.395.337-.313.741-.469 1.21-.469"></path><path d="m163.657 26.663c.224.05.412.075.564.075.409 0 .749-.145 1.019-.432.27-.288.405-.678.405-1.171 0-.495-.135-.886-.405-1.172s-.617-.429-1.04-.429c-.159 0-.341.025-.543.076zm-1.025.26v-.098h.135c.152 0 .259-.049.323-.146.039-.058.058-.189.058-.391v-2.32c0-.225-.024-.365-.074-.421-.069-.078-.171-.117-.307-.117h-.135v-.097h1.462c.536 0 .945.06 1.224.182.28.122.505.325.675.609.171.284.256.612.256.985 0 .5-.152.917-.456 1.252-.34.375-.859.562-1.556.562z"></path><path d="m167.589 23.528v1.419h.789c.205 0 .342-.031.41-.092.092-.082.144-.224.154-.429h.098v1.25h-.098c-.025-.175-.049-.287-.074-.337-.032-.061-.084-.11-.156-.145-.073-.036-.184-.053-.334-.053h-.789v1.184c0 .158.007.255.021.289s.039.062.074.082c.035.021.103.031.201.031h.61c.202 0 .35-.014.442-.043.092-.028.18-.083.265-.166.109-.11.221-.275.336-.496h.106l-.31.901h-2.767v-.098h.127c.085 0 .165-.02.241-.061.056-.029.095-.071.115-.127.02-.057.03-.172.03-.347v-2.332c0-.229-.022-.369-.068-.422-.064-.071-.17-.106-.318-.106h-.127v-.097h2.767l.04.786h-.104c-.037-.189-.078-.319-.122-.39-.046-.07-.112-.124-.201-.161-.07-.027-.195-.04-.373-.04z"></path><path d="m170.059 27.826v-.117c.182-.06.323-.153.423-.279s.15-.26.15-.401c0-.034-.008-.062-.024-.085-.013-.016-.025-.024-.038-.024-.019 0-.061.017-.126.053-.032.016-.066.023-.101.023-.087 0-.156-.025-.207-.076s-.077-.122-.077-.211c0-.087.034-.161.1-.223s.147-.093.242-.093c.116 0 .22.051.311.153.091.101.137.235.137.403 0 .182-.064.351-.19.507s-.326.28-.6.37"></path><path d="m173.597 26.663c.205.048.407.072.606.072.32 0 .564-.072.731-.216s.252-.322.252-.533c0-.14-.038-.274-.114-.403s-.2-.231-.371-.305-.383-.111-.636-.111c-.109 0-.203.002-.28.005-.078.004-.14.01-.188.019zm0-1.715c.065.012.14.021.224.027.084.007.175.01.276.01.258 0 .452-.028.581-.084.13-.055.23-.141.299-.255.068-.116.103-.241.103-.377 0-.209-.086-.389-.257-.537-.172-.148-.421-.222-.75-.222-.176 0-.335.02-.476.058zm1.387.142c.249.053.436.138.559.255.171.162.257.36.257.596 0 .178-.056.349-.17.512-.113.163-.268.283-.464.357-.197.075-.498.113-.902.113h-1.695v-.098h.136c.149 0 .257-.048.322-.144.041-.061.061-.192.061-.393v-2.32c0-.223-.025-.363-.077-.421-.068-.078-.17-.117-.306-.117h-.136v-.097h1.552c.289 0 .522.02.696.063.265.063.467.176.607.337.14.162.209.348.209.558 0 .179-.055.341-.164.483-.11.142-.271.247-.485.316"></path><path d="m178.392 24.498v1.469c0 .28.007.452.02.515.014.062.035.106.063.131.03.025.064.038.102.038.056 0 .117-.016.186-.046l.037.093-.726.299h-.119v-.514c-.208.227-.367.369-.476.427-.11.057-.226.087-.347.087-.136 0-.254-.04-.354-.118s-.169-.18-.208-.303-.058-.298-.058-.525v-1.082c0-.115-.012-.195-.037-.239s-.061-.078-.11-.102c-.048-.024-.136-.034-.263-.033v-.097h.85v1.623c0 .226.039.374.118.444.078.071.173.106.284.106.076 0 .162-.024.259-.071.096-.048.21-.139.342-.273v-1.375c0-.137-.025-.23-.075-.278-.05-.049-.155-.075-.314-.079v-.097z"></path><path d="m181.085 26.179-.029.744h-2.139v-.095l1.609-2.145h-.794c-.171 0-.283.01-.336.033-.053.022-.097.063-.13.125-.048.088-.075.198-.082.329h-.106l.016-.673h2.034v.098l-1.626 2.15h.884c.186 0 .311-.015.378-.046.066-.031.119-.085.159-.163.029-.057.052-.176.072-.357z"></path><path d="m181.792 25.257h1.123c-.009-.155-.028-.265-.056-.328-.044-.099-.11-.176-.197-.234-.088-.055-.179-.084-.274-.084-.147 0-.278.057-.394.171-.115.113-.183.272-.202.475m0 .154c-.001.36.086.642.262.847.177.205.384.307.622.307.16 0 .298-.043.415-.131.117-.087.216-.237.295-.449l.082.053c-.037.242-.145.462-.323.661s-.402.297-.67.297c-.291 0-.54-.113-.748-.339-.207-.227-.311-.532-.311-.915 0-.415.107-.739.319-.971.213-.232.48-.348.801-.348.272 0 .495.09.67.269s.262.419.262.719z"></path><path d="m184.496 23.7v.798h.566v.185h-.566v1.572c0 .157.022.264.067.318.045.055.103.082.174.082.058 0 .114-.018.169-.054s.097-.089.127-.16h.104c-.062.173-.15.302-.263.39s-.229.131-.349.131c-.081 0-.161-.022-.238-.067-.078-.045-.135-.11-.172-.193-.038-.084-.056-.213-.056-.388v-1.631h-.384v-.088c.097-.039.196-.104.298-.197.101-.093.192-.202.271-.33.041-.067.097-.189.169-.368z"></path><path d="m185.42 27.826v-.117c.182-.06.322-.153.422-.279s.15-.26.15-.401c0-.034-.008-.062-.024-.085-.013-.016-.025-.024-.037-.024-.02 0-.062.017-.127.053-.032.016-.065.023-.101.023-.086 0-.155-.025-.206-.076-.052-.051-.077-.122-.077-.211 0-.087.033-.161.099-.223s.147-.093.243-.093c.116 0 .22.051.311.153.09.101.136.235.136.403 0 .182-.063.351-.189.507-.127.156-.326.28-.6.37"></path><path d="m190.326 23.25v1.242h-.098c-.032-.238-.089-.428-.17-.569-.083-.142-.199-.254-.351-.336-.152-.083-.31-.125-.472-.125-.184 0-.335.056-.455.168s-.18.239-.18.383c0 .11.038.209.113.299.11.133.37.309.782.53.335.18.564.318.687.414.122.096.217.21.283.34.067.131.1.268.1.411 0 .271-.106.505-.317.703-.211.197-.482.295-.814.295-.104 0-.203-.008-.294-.024-.055-.009-.168-.041-.34-.096-.173-.056-.281-.085-.328-.085-.044 0-.079.014-.104.041-.026.026-.045.081-.057.164h-.098v-1.231h.098c.046.257.108.45.185.578.078.128.197.234.356.319.16.085.335.128.526.128.221 0 .395-.059.523-.176.128-.115.192-.253.192-.413 0-.088-.024-.177-.072-.267-.049-.09-.125-.174-.227-.251-.069-.053-.257-.166-.564-.338s-.526-.309-.655-.412c-.13-.102-.228-.216-.296-.339-.067-.123-.1-.259-.1-.408 0-.257.099-.479.296-.666.198-.186.45-.279.755-.279.19 0 .393.047.606.141.099.044.169.066.209.066.047 0 .084-.014.113-.041s.053-.083.07-.166z"></path><path d="m190.901 24.498h1.141v.097h-.074c-.069 0-.121.017-.157.051-.036.033-.055.079-.055.134 0 .062.019.136.056.22l.564 1.341.567-1.391c.04-.099.06-.174.06-.225 0-.024-.007-.045-.021-.061-.019-.026-.044-.044-.074-.054s-.091-.015-.182-.015v-.097h.791v.097c-.092.007-.155.026-.191.056-.061.053-.117.141-.166.265l-.861 2.081h-.108l-.867-2.047c-.038-.095-.075-.163-.111-.205-.035-.041-.08-.077-.135-.104-.03-.017-.089-.031-.177-.046z"></path><path d="m193.893 26.409c.083 0 .153.029.209.086.056.058.085.127.085.208s-.029.151-.086.207c-.057.058-.127.086-.208.086s-.151-.028-.208-.086c-.057-.056-.086-.126-.086-.207 0-.083.029-.152.086-.209.057-.056.127-.085.208-.085"></path><path d="m197.6 26.825v.098h-1.538v-.098h.127c.148 0 .256-.043.323-.13.042-.057.063-.192.063-.408v-2.319c0-.182-.011-.302-.034-.361-.018-.044-.054-.082-.108-.113-.079-.042-.16-.064-.244-.064h-.127v-.098h1.538v.098h-.13c-.146 0-.253.044-.32.13-.045.056-.066.192-.066.408v2.319c0 .182.011.302.034.36.018.045.055.082.111.114.076.043.157.064.241.064z"></path><path d="m197.777 24.498h1.141v.097h-.073c-.069 0-.122.017-.158.051-.036.033-.055.079-.055.134 0 .062.019.136.056.22l.564 1.341.567-1.391c.04-.099.06-.174.06-.225 0-.024-.006-.045-.021-.061-.019-.026-.044-.044-.074-.054s-.091-.015-.182-.015v-.097h.791v.097c-.092.007-.155.026-.19.056-.062.053-.118.141-.167.265l-.861 2.081h-.108l-.866-2.047c-.039-.095-.076-.163-.112-.205-.035-.041-.08-.077-.134-.104-.031-.017-.09-.031-.178-.046z"></path><path d="m201.987 26.401v-.924c-.266.106-.438.181-.516.225-.14.078-.239.158-.299.244-.06.085-.09.177-.09.277 0 .128.038.233.114.317s.163.126.262.126c.134 0 .31-.088.529-.265m0 .172c-.248.193-.404.304-.468.334-.096.044-.197.066-.305.066-.167 0-.305-.057-.414-.172s-.163-.266-.163-.453c0-.118.026-.221.079-.307.073-.12.199-.233.378-.339s.477-.235.893-.387v-.095c0-.242-.038-.407-.115-.498-.077-.09-.188-.134-.335-.134-.111 0-.199.029-.264.089-.068.06-.101.129-.101.207l.005.154c0 .08-.021.144-.062.187-.041.045-.096.066-.163.066-.065 0-.118-.022-.16-.068s-.062-.109-.062-.188c0-.152.077-.292.233-.418.155-.128.373-.191.654-.191.215 0 .392.036.529.108.105.055.182.141.23.257.032.076.048.231.048.466v.824c0 .231.005.373.013.425.009.052.024.086.045.104.02.018.043.027.07.027.028 0 .053-.006.074-.019.036-.023.108-.087.214-.193v.148c-.198.265-.387.398-.567.398-.086 0-.155-.03-.206-.091-.051-.06-.078-.162-.08-.307"></path><path d="m203.727 24.94c.284-.343.555-.514.813-.514.132 0 .246.033.341.099.096.066.172.176.228.327.039.106.058.269.058.487v1.036c0 .153.013.258.038.312.019.044.05.078.093.103s.124.038.24.038v.095h-1.199v-.095h.05c.113 0 .192-.018.237-.052s.076-.085.094-.152c.007-.027.011-.11.011-.249v-.993c0-.221-.029-.381-.086-.481-.058-.1-.155-.149-.29-.149-.21 0-.419.114-.628.344v1.279c0 .164.01.265.029.304.025.051.059.088.102.112.044.024.131.037.264.037v.095h-1.2v-.095h.053c.124 0 .207-.032.251-.095.043-.062.064-.182.064-.358v-.9c0-.292-.006-.47-.019-.533-.014-.063-.034-.106-.061-.129-.028-.023-.065-.035-.11-.035-.05 0-.109.013-.178.04l-.039-.095.73-.297h.114z"></path><path d="m208.374 24.831c.212-.19.346-.341.403-.452.056-.11.084-.235.084-.375 0-.184-.052-.33-.156-.435s-.246-.157-.426-.157-.327.052-.44.156-.169.226-.169.366c0 .091.023.183.07.274.047.093.113.18.2.262zm-.291.384c-.147.123-.255.258-.326.404-.071.145-.106.303-.106.472 0 .228.062.41.187.547s.282.205.476.205c.19 0 .342-.054.457-.162.115-.107.172-.238.172-.391 0-.127-.033-.241-.1-.342-.126-.187-.379-.432-.76-.733m-.124-.101c-.285-.233-.468-.42-.55-.561-.083-.141-.123-.287-.123-.44 0-.233.09-.433.27-.602s.419-.253.718-.253c.288 0 .522.079.699.235.176.157.264.337.264.538 0 .134-.047.271-.143.411-.095.139-.293.303-.596.492.311.24.517.429.617.567.134.18.202.37.202.569 0 .253-.096.469-.289.648-.192.179-.444.268-.757.268-.341 0-.607-.107-.797-.32-.152-.171-.228-.359-.228-.562 0-.158.054-.316.161-.472.106-.156.29-.329.552-.518"></path></g></g></svg> 