<?xml version="1.0" encoding="UTF-8"?> <svg xmlns="http://www.w3.org/2000/svg" height="101" viewBox="0 0 196 101" width="196"><g fill="#006288"><path d="m3.02 28.46v.14l1.39 3.18-.14.14h-.55v-.14l-1.26-2.63h-.14l-.83.83-.28 1.8-.14.14h-.42v-.14l.98-5.4v-.14h.41l.14.14-.55 2.63v.14h.13.14l2.51-2.77.14-.14h.42l.14.14v.14z" transform="matrix(2.8 0 0 2.8 0 0)"></path><path d="m7.48 29.15v-.28l-.14-.27-.28-.14-.42-.14-.28.14-.41.14-.28.42-.14.28-.14 1.25v.14.28l.14.28.28.14.42.14.28-.14.42-.14.28-.28.14-.42.14-1.25v-.15zm.42 1.39-.28.55-.28.42-.56.42h-.7-.55l-.42-.28-.28-.28-.14-.55.14-.28.14-1.25.28-.55.42-.42.42-.28.7-.14h.56l.42.28.28.42.14.42-.14.28z" transform="matrix(2.8 0 0 2.8 0 0)"></path><path d="m13.89 31.78-.14.14h-.42l-.14-.14.42-2.35v-.14-.28l-.14-.27-.28-.14-.28-.14-.28.14-.27.14-.28.27-.14.42-.42 2.35-.14.14h-.42v-.14l.42-2.35v-.14l-.14-.28-.14-.27-.14-.14-.28-.14-.41.14-.28.14-.28.27-.14.42-.42 2.35v.14h-.42l-.14-.14.7-3.74.14-.14h.28v.14.42l.56-.28.27-.14.28-.14.56.14.42.42v.14l.14-.14.42-.28.27-.14.42-.14.56.14.28.28.28.28.14.55v.28z" transform="matrix(2.8 0 0 2.8 0 0)"></path><path d="m17.79 31.78-.14.14h-.28l-.14-.14v-.41l-.55.27-.28.14-.28.14-.56-.14-.42-.27-.14-.28-.14-.55v-.28l.42-2.36.14-.14h.42v.14l-.42 2.36v.14l.14.41.14.28.28.14h.28.42l.27-.28.28-.28.14-.41.42-2.36.14-.14h.42v.14z" transform="scale(2.8)"></path><path d="m21.97 31.78v.14h-.42l-.14-.14.42-2.35v-.14-.28l-.14-.27-.28-.14-.41-.14-.28.14-.42.14-.28.27-.14.42-.42 2.35v.14h-.42l-.13-.14.69-3.74.14-.14h.28v.14.42l.56-.28.28-.14.41-.14.42.14.42.28.28.28.14.55-.14.28z" transform="matrix(2.8 0 0 2.8 0 0)"></path><path d="m25.73 29.29v-.28l-.28-.28-.14-.14-.42-.14-.42.14-.28.14-.28.28-.14.42-.14.97v.14.42l.28.14.14.28h.42.42l.28-.28.28-.28.14-.42.14-.97zm.14 2.49v.14h-.42v-.14-.42l-.56.28-.28.14-.42.14-.42-.14-.42-.28-.28-.28v-.55-.27l.14-.97.28-.55.28-.55.56-.28.56-.14.56.14.28.28.14.14h.14v-.42l.14-.14h.42v.14z" transform="matrix(2.8 0 0 2.8 0 0)"></path><path d="m27.68 31.78v.14h-.41l-.14-.14.97-5.4.14-.14h.42v.14z" transform="scale(2.8)"></path><path d="m31.45 29.29v-.28l-.28-.28-.14-.14-.42-.14-.42.14-.28.14-.28.28-.14.42-.14.97v.14.42l.28.14.28.28h.28.42l.28-.28.28-.28.14-.42.14-.97zm.14 2.49v.14h-.42v-.14-.42l-.56.28-.28.14-.42.14-.42-.14-.42-.28-.28-.28v-.55-.27l.14-.97.28-.55.28-.55.56-.28.56-.14.56.14.28.28.14.14h.14v-.42l.14-.14h.42v.14z" transform="matrix(2.8 0 0 2.8 0 0)"></path><path d="m36.6 28.46v.14l1.4 3.18-.14.14h-.56v-.14l-1.25-2.63h-.14l-.84.83-.28 1.8-.14.14h-.42v-.14l.98-5.4v-.14h.42l.14.14-.56 2.63v.14h.14.14l2.51-2.77.14-.14h.41l.14.14v.14z" transform="scale(2.8)"></path><path d="m41.34 29.15v-.28l-.14-.27-.28-.14-.42-.14-.28.14-.42.14-.28.42v.28l-.28 1.25v.14.28l.14.28.28.14.42.14.28-.14.42-.14.28-.28.14-.42.14-1.25zm.42 1.39-.28.55-.28.42-.56.42h-.7-.56l-.42-.28-.28-.28v-.55-.28l.14-1.25.28-.55.42-.42.42-.28.7-.14h.56l.42.28.28.42.14.42v.28z" transform="scale(2.8)"></path><path d="m44.69 27.49h-.14-.28l-.56-.97.14-.14h.28l.28.55h.14l.56-.55h.42v.14zm-.14.41h.56l.42.28.14.14.14.28v.14l-.42.14h-.14l-.28-.28-.28-.14-.28-.14-.28.14-.42.14-.28.42-.14.28-.14 1.25v.14.28l.14.28.28.14.42.14.28-.14.28-.14.42-.28.42.14v.14l-.14.14-.56.42-.28.14h-.56-.56l-.42-.28-.28-.28-.14-.55.14-.28.14-1.25.28-.55.42-.42.42-.28z" transform="matrix(2.8 0 0 2.8 0 0)"></path><path d="m49.01 29.15v-.28l-.14-.28-.28-.14-.28-.14-.42.14-.42.14-.14.42-.14.28-.14.14.14.14h1.67l.14-.14v-.14-.14zm.55.69-.14.14h-2.37l-.14.55v.14.28l.14.28.28.14.42.14.28-.14.28-.14.42-.28.42.14v.14l-.14.14-.42.42-.42.14h-.56-.56l-.42-.28-.28-.28v-.55-.28l.14-1.25.28-.55.42-.42.56-.28.56-.14.56.14.42.14.28.42.14.55v.14z" transform="scale(2.8)"></path><path d="m51.51 31.78-.13.14h-.28l-.14-.14-.84-3.74.14-.14h.42v.14l.7 3.05 1.67-3.05.14-.14h.41l.14.14z" transform="scale(2.8)"></path><path d="m54.86 26.94h-.14l-.14-.28.14-.28.28-.14h.28l.14.28-.14.28zm-.56 5.54-.28.42-.28.55-.56.42-.55.13-.14-.14.14-.28.14-.14.56-.28.14-.28.14-.42.84-4.43.14-.14h.41v.14z" transform="matrix(2.8 0 0 2.8 0 0)"></path><path d="m58.06 29.15v-.28l-.14-.28-.27-.14-.28-.14-.42.14-.42.14-.14.42-.14.28-.14.14.14.14h1.67l.14-.14v-.14zm.56.69-.14.14h-2.37l-.14.55v.14.28l.14.28.28.14.42.14.28-.14.28-.14.41-.28.42.14v.14l-.14.14-.41.42-.42.14h-.56-.56l-.42-.28-.28-.28v-.55-.28l.14-1.25.28-.55.42-.42.56-.28.56-.14.55.14.42.14.28.42.14.55v.14z" transform="scale(2.8)"></path></g><path d="m51.65 19.59-.69-9.56 9.06-3.46 6.13 7.34-5.16 8.18z" fill="#fff" transform="scale(2.8)"></path><path d="m57.37 3.94-4.46-1.94-1.81 4.43-.28.83-.14.97.14.97.28.97.41.83.56.7.7.55.83.56.84.27h.98.97l.98-.27.83-.42.7-.69.56-.7.42-.83.42-.83v-.97-.83l-.28-.97-.56-.97-.56-.69-.7-.56z" fill="#00b1cd" transform="scale(2.8)"></path><path d="m47.75 11.84-3.2 3.46 3.62 3.18.7.56.97.41.84.14h.97l.98-.14.97-.27.7-.56.7-.55.56-.83.41-.83.14-.83.14-.97-.28-.97-.27-.97-.56-.7-.56-.69-.84-.55-.83-.42-.84-.14-.97-.14-.98.28-.97.28-.84.55z" fill="#00b49d" transform="matrix(2.8 0 0 2.8 0 0)"></path><path d="m52.35 23.33 2.37 4.02 4.04-2.35.84-.56.7-.69.41-.83.42-.97.14-.97-.14-.83-.14-.97-.41-.83-.56-.7-.7-.69-.84-.41-.97-.42-.84-.14-.97.14-.98.14-.84.41-.69.56-.7.69-.42.83-.42.97-.14.97.14.97.28.83z" fill="#59bd7b" transform="scale(2.8)"></path><path d="m64.76 22.5 4.59-.97-.97-4.71-.28-.83-.56-.83-.56-.69-.83-.69-.84-.42-.83-.28h-.98l-.98.14-.83.28-.84.41-.69.7-.56.69-.42.83-.28.97-.14.97.14.83.28.97.56.69.56.83.83.56.84.41.97.28h.98z" fill="#8dc63f" transform="scale(2.8)"></path><path d="m67.96 10.45.42-4.57-4.74-.42h-.98l-.97.14-.84.28-.83.55-.7.7-.56.83-.28.83-.14.97v.97l.14.83.42.83.56.83.7.69.69.56.98.27.83.28.98-.14.84-.14.97-.27.7-.56.69-.83.56-.69.42-.97z" fill="#00aeef" transform="matrix(2.8 0 0 2.8 0 0)"></path><path d="m60.02 6.57-.56.56-.42.55-.42.69-.28.7v.69.83.69l.28.69.56-.55.42-.55.42-.7.14-.69.14-.69v-.69l-.14-.84z" fill="#00b1cd" transform="matrix(2.8 0 0 2.8 0 0)"></path></svg> 