<?xml version="1.0" encoding="UTF-8"?> <svg xmlns="http://www.w3.org/2000/svg" height="65" viewBox="0 0 196 65" width="196"><g fill="#4da32f"><path d="m94.65 22.41c.12.13.28.19.46.19s.34-.06.46-.19.18-.29.18-.47c0-.19-.06-.35-.18-.48s-.28-.19-.46-.19-.34.06-.46.19-.18.29-.18.48c0 .18.06.34.18.47m-3.05-2.43c.11-.18.27-.27.5-.27.22 0 .38.09.49.27s.17.43.17.74-.06.56-.17.74-.27.27-.49.27-.39-.09-.5-.27-.16-.43-.16-.74.05-.56.16-.74m-1.11 1.54c.1.23.23.43.39.59s.35.28.56.37c.21.08.43.13.66.13s.44-.04.65-.13c.21-.08.4-.21.56-.37s.29-.36.39-.59.14-.5.14-.8-.05-.56-.14-.8c-.1-.23-.23-.43-.39-.59s-.35-.28-.56-.37c-.21-.08-.43-.13-.65-.13s-.45.04-.66.13c-.21.08-.4.21-.56.37s-.29.36-.39.59-.14.5-.14.8.05.57.14.8m-1.94.89c.12.13.28.19.46.19s.34-.06.46-.19.18-.29.18-.47c0-.19-.06-.35-.18-.48s-.28-.19-.46-.19-.34.06-.46.19-.18.29-.18.48c-.01.18.05.34.18.47m-3.05-2.43c.11-.18.27-.27.49-.27s.38.09.49.27.17.43.17.74-.06.56-.17.74-.27.27-.49.27-.39-.09-.49-.27c-.11-.18-.16-.43-.16-.74s.05-.56.16-.74m-1.11 1.54c.1.23.23.43.39.59s.35.28.56.37c.21.08.43.13.66.13s.44-.04.65-.13c.21-.08.39-.21.56-.37.16-.16.29-.36.39-.59s.14-.5.14-.8-.05-.56-.14-.8c-.1-.23-.23-.43-.39-.59s-.35-.28-.56-.37c-.21-.08-.43-.13-.65-.13s-.45.04-.66.13c-.21.08-.4.21-.56.37s-.29.36-.39.59-.14.5-.14.8.04.57.14.8m-1.95.89c.12.13.28.19.46.19s.34-.06.46-.19.18-.29.18-.47c0-.19-.06-.35-.18-.48s-.28-.19-.46-.19-.34.06-.46.19-.18.29-.18.48c0 .18.06.34.18.47m-3.19-2.46c.13-.16.28-.24.45-.24.1 0 .2.02.3.05s.2.09.3.18v1.47c-.09.12-.18.2-.27.25s-.2.07-.31.07c-.21 0-.37-.08-.48-.25-.11-.16-.17-.42-.17-.78-.02-.33.05-.59.18-.75m-1.19 1.56c.07.23.17.43.3.59s.28.29.46.37c.18.09.38.13.6.13.17 0 .34-.04.51-.13.17-.08.31-.19.44-.31h.03l.07.35h.87v-5.06h-1.06v1.22l.04.55c-.13-.12-.25-.21-.38-.27-.13-.07-.3-.1-.5-.1-.19 0-.37.04-.55.13s-.34.21-.48.37-.25.36-.33.59-.13.49-.13.79c.01.29.05.55.11.78m-4.38-1.53c.11-.18.27-.27.5-.27.22 0 .38.09.49.27s.17.43.17.74-.06.56-.17.74-.27.27-.49.27-.39-.09-.5-.27-.16-.43-.16-.74.05-.56.16-.74m-1.11 1.54c.1.23.23.43.39.59s.35.28.56.37c.21.08.43.13.66.13s.44-.04.65-.13c.21-.08.39-.21.56-.37.16-.16.29-.36.39-.59s.14-.5.14-.8-.05-.56-.14-.8c-.1-.23-.23-.43-.39-.59s-.35-.28-.56-.37c-.21-.08-.43-.13-.65-.13-.23 0-.45.04-.66.13-.21.08-.4.21-.56.37s-.29.36-.39.59-.14.5-.14.8.04.57.14.8m-2.48-.31c0 .21.02.4.07.57s.12.32.22.44.23.21.38.28c.16.07.35.1.57.1.17 0 .33-.01.45-.04.13-.03.24-.06.34-.09l-.17-.77c-.05.02-.1.04-.16.05s-.12.02-.18.02c-.14 0-.25-.04-.34-.13-.08-.09-.13-.23-.13-.44v-1.44h.86v-.83h-.86v-.95h-.88l-.12.95-.55.04v.79h.49v1.45zm-3.67.89c.18.15.4.27.65.36s.49.14.73.14.45-.03.64-.09c.18-.06.34-.14.46-.25.13-.1.22-.22.28-.36s.09-.29.09-.45-.03-.3-.09-.42-.13-.22-.23-.3c-.09-.08-.2-.15-.31-.21s-.23-.1-.34-.15c-.09-.03-.18-.07-.26-.1s-.16-.06-.22-.1c-.07-.03-.12-.07-.16-.11s-.06-.09-.06-.15c0-.19.13-.28.4-.28.12 0 .25.03.38.08s.25.13.38.22l.48-.64c-.15-.12-.33-.22-.54-.31s-.45-.14-.72-.14c-.21 0-.39.03-.56.08-.17.06-.31.13-.43.23s-.21.21-.28.35-.1.29-.1.45c0 .15.03.28.09.39s.13.21.22.3c.09.08.19.16.3.21.11.06.22.11.33.15.09.04.18.07.27.1s.16.07.23.11.13.08.17.13.06.1.06.16c0 .1-.04.17-.11.22s-.19.08-.35.08c-.15 0-.31-.03-.46-.09s-.31-.16-.47-.28zm-2.61-1.75c.04-.24.12-.42.25-.53s.28-.17.44-.17c.22 0 .37.06.46.19s.14.3.14.51zm-.88 1.17c.09.23.22.43.38.59s.36.28.58.37c.22.08.46.13.72.13.22 0 .44-.04.66-.11s.43-.17.61-.3l-.35-.64c-.26.16-.52.24-.77.24-.24 0-.44-.06-.61-.18s-.27-.32-.32-.6h2.15c.01-.04.02-.1.03-.18-.01-.09-.01-.18-.01-.28 0-.25-.03-.47-.09-.68s-.16-.39-.29-.55c-.13-.15-.29-.27-.48-.36s-.41-.13-.67-.13c-.22 0-.43.04-.63.13s-.38.21-.54.37-.28.36-.38.59-.14.5-.14.78c.01.31.06.58.15.81m-6.12.99h1.06v-2.42c.22-.23.42-.35.61-.35.15 0 .27.05.34.14.07.1.1.27.1.53v2.09h1.06v-2.42c.23-.23.44-.35.61-.35.15 0 .27.05.34.14.07.1.1.27.1.53v2.09h1.06v-2.23c0-.45-.09-.8-.27-1.06s-.46-.39-.85-.39c-.24 0-.45.06-.62.18-.18.12-.34.26-.5.42-.09-.19-.22-.34-.37-.44-.16-.1-.36-.16-.62-.16-.24 0-.44.05-.61.16s-.33.24-.48.39h-.03l-.07-.46h-.87v3.61zm-4.47-2.53c.11-.18.27-.27.49-.27s.38.09.49.27.17.43.17.74-.06.56-.17.74-.27.27-.49.27-.39-.09-.49-.27c-.11-.18-.16-.43-.16-.74s.05-.56.16-.74m-1.11 1.54c.1.23.23.43.39.59s.35.28.56.37c.21.08.43.13.66.13s.44-.04.65-.13c.21-.08.39-.21.56-.37.16-.16.29-.36.39-.59s.14-.5.14-.8-.05-.56-.14-.8c-.1-.23-.23-.43-.39-.59s-.35-.28-.56-.37c-.21-.08-.43-.13-.65-.13-.23 0-.45.04-.66.13-.21.08-.4.21-.56.37s-.29.36-.39.59-.14.5-.14.8.05.57.14.8m-2.83.99h1.23l1.17-3.58h-1.02l-.47 1.69c-.05.18-.1.36-.14.55-.05.19-.09.37-.13.56h-.03c-.05-.19-.1-.37-.14-.56-.05-.19-.09-.37-.14-.55l-.46-1.69h-1.07zm-3.73-2.53c.11-.18.27-.27.49-.27s.38.09.49.27.17.43.17.74-.06.56-.17.74-.27.27-.49.27-.39-.09-.49-.27c-.11-.18-.16-.43-.16-.74s.05-.56.16-.74m-1.11 1.54c.1.23.23.43.39.59s.35.28.56.37c.21.08.43.13.66.13s.44-.04.65-.13c.21-.08.39-.21.56-.37.16-.16.29-.36.39-.59s.14-.5.14-.8-.05-.56-.14-.8c-.1-.23-.23-.43-.39-.59s-.35-.28-.56-.37c-.21-.08-.43-.13-.65-.13s-.45.04-.66.13c-.21.08-.4.21-.56.37s-.29.36-.39.59-.14.5-.14.8.04.57.14.8m-4.65.99h1.02v-1.67c0-.28-.02-.57-.05-.87s-.06-.58-.09-.84h.03l.46 1.03 1.23 2.35h1.09v-4.71h-1.01v1.66c0 .28.02.57.05.88s.06.59.09.84h-.03l-.47-1.04-1.23-2.34h-1.09z" transform="matrix(1.88 0 0 1.88 8.56 .54)"></path><path d="m92.42 13.14c.26-.18.73-.32 1.42-.42v1.13c-.17.17-.34.31-.49.4-.16.1-.35.14-.57.14-.23 0-.41-.05-.54-.15s-.2-.25-.2-.46c-.01-.24.12-.46.38-.64m-2.08 1.56c.09.23.22.44.38.62s.36.32.6.42c.23.1.5.15.79.15.36 0 .7-.08 1.01-.23s.6-.35.88-.59h.04l.14.66h1.56v-3.7c0-1-.22-1.73-.66-2.21-.44-.47-1.07-.71-1.91-.71-.51 0-1 .08-1.45.23-.46.16-.89.36-1.31.61l.68 1.26c.31-.18.61-.33.89-.43s.56-.16.83-.16c.35 0 .6.08.76.25s.24.4.26.68c-1.28.13-2.2.39-2.77.77s-.86.91-.86 1.59c.01.3.05.55.14.79m-3.62-.98c0 .33.03.63.09.89s.16.49.29.68.31.33.54.44c.23.1.5.16.83.16.22 0 .41-.02.57-.05s.29-.07.4-.11l-.23-1.42c-.05.02-.09.03-.12.03h-.11c-.08 0-.15-.04-.23-.12-.07-.08-.11-.22-.11-.42v-7.2h-1.91v7.12zm-4.98-.58c.26-.18.73-.32 1.42-.42v1.13c-.17.17-.34.31-.49.4-.16.1-.35.14-.57.14-.23 0-.41-.05-.54-.15s-.2-.25-.2-.46c-.01-.24.12-.46.38-.64m-2.07 1.56c.09.23.22.44.38.62s.36.32.6.42c.23.1.5.15.79.15.36 0 .7-.08 1.01-.23s.6-.35.88-.59h.04l.14.66h1.56v-3.7c0-1-.22-1.73-.66-2.21-.44-.47-1.07-.71-1.91-.71-.51 0-1 .08-1.45.23-.46.16-.89.36-1.31.61l.68 1.26c.31-.18.61-.33.89-.43s.56-.16.83-.16c.35 0 .6.08.76.25s.24.4.26.68c-1.28.13-2.2.39-2.77.77s-.86.91-.86 1.59c0 .3.05.55.14.79m-7.35 1.03h1.91v-4.36c.21-.2.4-.35.57-.46s.38-.16.63-.16c.28 0 .48.09.61.26s.19.49.19.96v3.76h1.91v-4.01c0-.82-.16-1.45-.48-1.91s-.83-.69-1.53-.69c-.44 0-.83.1-1.16.29-.33.2-.63.42-.91.68h-.05l-.13-.82h-1.56zm-7.46-2.45c0 .82.16 1.45.48 1.91s.83.69 1.53.69c.44 0 .82-.09 1.14-.28s.61-.44.89-.77h.04l.14.9h1.56v-6.46h-1.91v4.27c-.19.25-.37.43-.53.55-.17.11-.37.17-.61.17-.28 0-.48-.09-.61-.26s-.2-.49-.2-.96v-3.77h-1.91v4.01zm-11.1 2.45h1.91v-4.36c.4-.42.76-.63 1.09-.63.28 0 .48.09.61.26s.19.49.19.96v3.76h1.91v-4.36c.42-.42.79-.63 1.11-.63.28 0 .48.09.61.26s.19.49.19.96v3.76h1.91v-4.01c0-.81-.16-1.44-.49-1.91-.33-.46-.84-.7-1.53-.7-.43 0-.81.11-1.13.32s-.62.47-.9.76c-.17-.35-.39-.61-.67-.8s-.65-.28-1.11-.28c-.43 0-.79.1-1.09.29-.3.2-.59.43-.86.7h-.05l-.13-.83h-1.56v6.48zm-5.34-4.57c.2-.33.49-.49.89-.49.39 0 .69.16.89.49s.3.78.3 1.34-.1 1.01-.3 1.34-.49.5-.89.5-.7-.16-.89-.5c-.2-.33-.29-.78-.29-1.34 0-.57.09-1.01.29-1.34m-2 2.78c.17.42.41.78.7 1.06.29.29.63.51 1.01.66s.78.23 1.19.23.8-.08 1.18-.23.71-.37 1-.66.52-.64.7-1.06c.17-.42.26-.9.26-1.44s-.09-1.02-.26-1.44-.41-.77-.7-1.06-.62-.51-1-.66-.77-.23-1.18-.23-.8.08-1.19.23c-.38.15-.72.37-1.01.66s-.52.64-.7 1.06c-.17.42-.26.9-.26 1.44s.09 1.02.26 1.44m-7.51 1.79h1.93v-2.28l.99-1.3 2.06 3.58h2.11l-3.05-5.1 2.56-3.39h-2.1l-2.54 3.48h-.04v-3.48h-1.93v8.49z" transform="matrix(1.88 0 0 1.88 8.56 .54)"></path><path d="m.29 19.43c-.02.32-.04.48-.04.8 0 7.05 5.71 12.77 12.76 12.77s12.77-5.72 12.77-12.77c0-.32.08-.49.06-.8h-2.5s-.38.01-.84.23c-.45.22-.81.54-.81.54l-1.63 1.55s-.48.35-.66.7c-.13.24-.06.72-.06.98 0 3.27-2.63 6.05-6.09 6.07-1.89.02-3.43-.53-5.29-2.76l-4.3-6.2s-.27-.46-.79-.78c-.42-.26-1.13-.34-1.13-.34h-1.45z" transform="matrix(1.88 0 0 1.88 8.56 .54)"></path></g><path d="m25.59 18.7c-.09-1.1-.31-1.77-.66-2.77h-2.99s-.5-.01-1.07.24c-.44.19-.86.62-.86.62l-3.65 3.66s-.42.42-.55 1.11c-.09.48-.05 1.37-.05 1.57 0 1.49-1.21 2.69-2.69 2.69-1.18 0-1.87-.81-2.7-1.81l-5.03-7.14s-.14-.24-.72-.62c-.56-.36-1.36-.34-1.36-.34h-2.16c-.35 1-.58 1.67-.67 2.77h1.43s.93.08 1.35.34c.51.31.84.84.84.84l4.2 6.09c1.38 1.83 2.61 2.81 5.02 2.81 3.17 0 5.43-2.65 5.43-5.56 0-.25-.06-.97.06-1.21.18-.35.57-.67.57-.67l2.17-2.04s.2-.16.64-.38c.45-.22 1.09-.21 1.09-.21h2.36z" fill="#b1d096" transform="matrix(1.88 0 0 1.88 8.56 .54)"></path><path d="m7.32 15.06s-.66-.69-.7-1.76c-.04-1.1.77-1.83.77-1.83l4.55-4.65s1.33-1.52 1.52-3.09c.15-1.21-.28-2.73-.28-2.73l6.07 8.58s.77.72.72 1.86c-.03.79-.79 1.52-.79 1.52l-4.07 4.04s-1.39 1.14-1.94 3.08c-.44 1.55.01 3.43.01 3.43z" fill="#4da32f" transform="matrix(1.88 0 0 1.88 8.56 .54)"></path></svg> 