<?xml version="1.0" encoding="UTF-8"?> <svg xmlns="http://www.w3.org/2000/svg" viewBox="0 0 195 67.35"><defs><style>.cls-1{fill:#005cab;}.cls-2{fill:#2fb457;}</style></defs><title>logo</title><g id="Layer_2" data-name="Layer 2"><g id="Layer_1-2" data-name="Layer 1"><path class="cls-1" d="M110,4.44A19.11,19.11,0,0,0,104.26.5l-.68,1.33a17.61,17.61,0,1,1-13-.49L89.91,0A19.12,19.12,0,1,0,110,4.44Z"></path><path class="cls-1" d="M102.32,19.2a8.74,8.74,0,0,1-17.47,0c0-4.43,4.7-6.87,4.7-6.87.89-.58,4-2.26,5.58-4.52a10.91,10.91,0,0,0,2-4.3C99.16,6,102.32,10.74,102.32,19.2Z"></path><path class="cls-2" d="M111.32,18.08a14.83,14.83,0,0,1-29.65,0l1.67,0c-.58,7.14,4.41,11.65,10.24,11.65A10.56,10.56,0,0,0,104.15,19.2l0-1.37h7.15Z"></path><path class="cls-1" d="M10.82,62.33,7,54.58,5.15,56.85v5.49H0V44.13H5.15v2.13c0,1.54,0,3.17-.08,4.5.76-1.2,2.34-3.3,3.51-4.79L10,44.13h6.14l-5.49,6.43L16.8,62.33Z"></path><path class="cls-1" d="M24.38,62.62c-3.77,0-6.48-2.42-6.48-7.13s2.7-7.1,6.48-7.1,6.5,2.34,6.5,7.1S28.15,62.62,24.38,62.62Zm0-10.43c-1.22,0-1.85,1-1.85,3.3s.62,3.33,1.85,3.33,1.85-1.07,1.85-3.33S25.6,52.19,24.38,52.19Z"></path><path class="cls-1" d="M48.36,62.33V54.58c0-1.77-.55-2.24-1.48-2.24s-1.51.47-1.51,2.19v7.8H40.69V54.58c0-1.77-.57-2.24-1.51-2.24s-1.51.47-1.51,2.19v7.8H33V48.68h4.68v.91a4.88,4.88,0,0,1,3.25-1.2,4.62,4.62,0,0,1,3.77,1.54,5.81,5.81,0,0,1,4-1.54c3.07,0,4.4,2,4.4,5.59v8.35Z"></path><path class="cls-1" d="M63.35,62.33v-.91a5.14,5.14,0,0,1-3.41,1.2c-3,0-4.42-2-4.42-5.59V48.68h4.71v7.75c0,1.77.6,2.24,1.56,2.24s1.56-.47,1.56-2.18v-7.8h4.71V62.33Z"></path><path class="cls-1" d="M78.54,62.33V54.58c0-1.77-.6-2.24-1.56-2.24s-1.59.47-1.59,2.19v7.8H70.71V48.68h4.68v.91a5.22,5.22,0,0,1,3.43-1.2c3,0,4.42,2,4.42,5.59v8.35Z"></path><path class="cls-1" d="M93.08,62.33v-.91a5.63,5.63,0,0,1-3.33,1.2c-2.65,0-4.42-1.64-4.42-4.71s2-4.45,4.92-4.45a6.51,6.51,0,0,1,2.84.57v-.68c0-1.2-.65-1.61-1.93-1.61a7.23,7.23,0,0,0-3.8,1l-1.22-3.09A13,13,0,0,1,92,48.39c3.83,0,5.49,1.9,5.49,5.07v8.87Zm0-5.57a4.65,4.65,0,0,0-2-.39,1.3,1.3,0,0,0-1.45,1.46,1.33,1.33,0,0,0,1.45,1.48,3.36,3.36,0,0,0,2-.68Z"></path><path class="cls-1" d="M100.18,62.33V45.25l4.68-1.87v19Z"></path><path class="cls-1" d="M114.93,62.33v-.91a5.62,5.62,0,0,1-3.33,1.2c-2.65,0-4.42-1.64-4.42-4.71s2-4.45,4.92-4.45a6.5,6.5,0,0,1,2.83.57v-.68c0-1.2-.65-1.61-1.92-1.61a7.23,7.23,0,0,0-3.8,1L108,49.64a13,13,0,0,1,5.88-1.25c3.82,0,5.49,1.9,5.49,5.07v8.87Zm0-5.57a4.63,4.63,0,0,0-2-.39,1.31,1.31,0,0,0-1.46,1.46,1.33,1.33,0,0,0,1.46,1.48,3.35,3.35,0,0,0,2-.68Z"></path><path class="cls-2" d="M141.43,62.33l-3.8-7.75-1.87,2.26v5.49h-5.15V44.13h5.15v2.13c0,1.54,0,3.17-.08,4.5.75-1.2,2.34-3.3,3.51-4.79l1.46-1.85h6.14l-5.49,6.43,6.11,11.78Z"></path><path class="cls-2" d="M157.77,53.83a2.94,2.94,0,0,0-2.18-1.14c-1.14,0-1.85.55-1.85,2.21v7.44h-4.68V48.68h4.68v1a4.19,4.19,0,0,1,5.12-.7Z"></path><path class="cls-2" d="M167.74,62.33v-.91a5.63,5.63,0,0,1-3.33,1.2c-2.65,0-4.42-1.64-4.42-4.71s2-4.45,4.92-4.45a6.49,6.49,0,0,1,2.83.57v-.68c0-1.2-.65-1.61-1.92-1.61a7.22,7.22,0,0,0-3.8,1l-1.22-3.09a13,13,0,0,1,5.88-1.25c3.82,0,5.49,1.9,5.49,5.07v8.87Zm0-5.57a4.63,4.63,0,0,0-2-.39,1.31,1.31,0,0,0-1.46,1.46,1.33,1.33,0,0,0,1.46,1.48,3.35,3.35,0,0,0,2-.68Z"></path><path class="cls-2" d="M182.54,62.33V54.58c0-1.77-.6-2.24-1.56-2.24s-1.59.47-1.59,2.19v7.8h-4.68V48.68h4.68v.91a5.23,5.23,0,0,1,3.43-1.2c3,0,4.42,2,4.42,5.59v8.35Z"></path><path class="cls-2" d="M192.27,47.69a2.32,2.32,0,1,1,0-4.58c1.61,0,2.73.94,2.73,2.26S193.88,47.69,192.27,47.69Zm-3.8,19.66-1.56-3.23c2.32-.31,3-1,3-2.84V48.68h4.68V61C194.61,65.3,192.79,66.83,188.47,67.35Z"></path></g></g></svg> 