<?xml version="1.0" encoding="UTF-8"?> <svg xmlns="http://www.w3.org/2000/svg" viewBox="0 0 566.9 141.7"><path clip-rule="evenodd" d="m0 0h172.1v141.5h-172.1z" fill="#2e368e" fill-rule="evenodd"></path><path d="m60.4 129.5c1.3 0 2 1.2 2 3.5 0 2.5-.6 3.6-1.8 3.6-1.3 0-2.1-1.3-2.1-3.6 0-2.2.7-3.5 1.9-3.5m2.1-8.6h-1.6l-2.5 6.1c-.9 2.1-1.3 4.2-1.3 6.1 0 3.1 1.3 4.9 3.6 4.9s3.4-1.6 3.4-4.7-1.2-5-3-5c-.6 0-1.1.2-1.7.6zm-8.3 0h-5l-1.1 8.8c.9-.4 1.5-.7 2.2-.7 1.7 0 2.7 1.4 2.7 3.8 0 2.2-1 3.7-2.4 3.7-.8 0-1.4-.3-2.4-1l-.4 1.5c.9.6 1.9 1 2.9 1 2.4 0 3.9-2.1 3.9-5.3s-1.5-5.3-3.8-5.3c-.3 0-.5 0-.9.1l.6-5.2h3.7zm-12.4 1c1.3 0 2.1 1.3 2.1 3.6s-.7 3.6-2 3.6-2-1.2-2-3.5c.1-2.5.7-3.7 1.9-3.7m-2 15.8h1.6l2.5-6.1c.9-2.2 1.3-4.2 1.3-6.1 0-3.1-1.3-4.9-3.6-4.9-2.2 0-3.4 1.6-3.4 4.7s1.2 5 3 5c.6 0 1-.2 1.7-.6zm-4.7-16.8h-3.4l-.4 1.4h2.1v15.4h1.6v-16.8z" fill="#fff"></path><path d="m102.4 95.3c-24.1-27.6-54.7-34.8-60.4-36.7-.4-.1-.4-.2-.8-.3s-.6-.2-.5-.2h3.6c22.8-5.1 41.5-15.4 60.2-28.7 15-10.1 28.1-21.5 44.9-28.6-1 .3-2 .5-2.9.8-36.8 9.4-72.6 39.9-109.4 50.5-2 .5-3.8 1.1-5.7 1.5-4.2 1-8.5 1.9-12.6 2.9-6.9 1.3-10.6 1.9-8.3 1.9h-.2.2c24 12 45.3 14.6 65.4 42.9 21.8 36.4 35.3 40 34.4 40.5h38.5c-4.2-2-8.8-3.9-13-5.9-4.9-2.4-9.4-4.7-14.2-7.4-3.6-2.1-6.6-4.1-9.8-6.3l-4.3-3-4.7-3.8-13.1-15-7.3-9.2c-2.6-2.7-5.2-5.6-7.9-8.2-1.3-1.3-2.7-2.5-4.2-3.8l-2.9-2.1-2.9-1.7-9-5.4-27.2-11.9c-1.6 0-3.1 0-4.8 0l7.6 3.7 10.9 5.4 4.5 2.3 3 1.6 2.3 1.4c1 .6 2 1.3 3 1.9.7.4 1.3.9 2.1 1.4.4.4.9.7 1.3 1l3.8 2.5 3.6 2.4c1.5 1.1 3 2.1 4.6 3.3 1.9 1.4 3.8 2.9 5.6 4.4l6.1 5.3 3 2.8 2.4 2.4c1.3 1.3 2.4 2.6 3.7 3.8l.9 1.1c.4.4.7.7 1.2 1.1 1.8 1.6 3.6 3.3 5.4 4.9 1.5 1.3 3 2.6 4.6 3.9.8.7 1.4 1.6 2.1 2.3l3.8 4.2 6.5 6.8 5.8 5.8 4.8 4.8c.8.8 1.7 1.6 2.4 2.6h-5.6l-5.4-4.1c-1.2-.9-2.3-1.8-3.5-2.7-1.1-1-2.3-1.9-3.5-2.9-1.3-1.2-2.6-2.3-3.9-3.5-1.6-1.5-3.2-3-4.8-4.6s-3.2-3.2-4.8-4.7c-2.1-2.1-4-4.3-6.2-6.4l-6-6.7c-1.6-1.9-3.2-3.8-4.8-5.6l-4-5.4c-1.2-1.5-2.4-3-3.6-4.5l-2.9-3.2-2.6-2.7-3.2-3-15.8-10.4c-1.5-.9-3.1-1.8-4.7-2.7-1.4-.8-2.9-1.4-4.3-2.2-.5-.3-1-.5-1.5-.8-4.8-2.2-9.8-4.7-14.4-6.9h-.4c8.1-2.1 17.1-3.8 25.8-6.1 35.8-10.4 63.1-40.3 98.5-50.5-17 7.2-37.9 17.6-53 27.7-18.6 13.4-37.7 23.8-60.5 28.9h2.7c4 1.6 8.1 3.1 12.2 4.8 3.9 1.6 7.3 3.2 10.9 5.2 6.2 3.5 11.4 6.4 17.2 11 5.3 4 9.4 7.9 14.3 13 2.9 3 4 4.4 8.5 8.4 5.8 5.1 9 7.9 18 15 2.7 1.9 5.4 3.8 8.1 5.7l7.3 4.9c5.6 3.3 10.3 6.2 15.6 9l6.6 3.3 6.3 3h-12.1 17.5c-25.4-11.2-44.2-27.4-64.1-46.2z" fill="#fff"></path><g clip-rule="evenodd" fill-rule="evenodd"><path d="m147.7 117.1h24.3v24.3h-24.3z" fill="#9d77b3"></path><path d="m147.7 0h24.3v24.3h-24.3z" fill="#29aae1"></path><path d="m0 0h24.3v24.3h-24.3z" fill="#d1aa67"></path><path d="m0 117.1h24.3v24.3h-24.3z" fill="#00a54f"></path></g><path d="m551 48.8c-1.9.8-4 1.3-6.1 1.9-2.9.8-4.6 1.5-5.4 2.3s-1.2 1.7-1.2 2.7c0 1.2.4 2.1 1.2 2.7.8.8 1.9 1.2 3.5 1.2 1.5 0 3.1-.4 4.4-1.2s2.3-1.7 2.9-2.9.8-2.5.8-4.2zm-12.1-7.5-13.4-1.3c.6-2.3 1.3-4.2 2.1-5.6 1-1.3 2.3-2.5 4.2-3.5 1.3-.8 3.1-1.3 5.4-1.7s4.8-.6 7.3-.6c4.2 0 7.7.2 10.2.8 2.5.4 4.8 1.5 6.5 3.1 1.2 1 2.1 2.5 2.9 4.4s1 3.6 1 5.6v16.3c0 1.7.2 3.1.4 4 .2 1 .8 2.3 1.5 3.8h-13.2c-.6-1-1-1.7-1-2.1-.2-.6-.4-1.3-.6-2.3-1.9 1.7-3.6 3.1-5.6 3.8-2.5 1-5.4 1.5-8.6 1.5-4.4 0-7.7-1-10-3.1s-3.5-4.6-3.5-7.5.8-5.2 2.5-6.9 4.6-3.1 9-4c5.4-1.2 8.8-1.7 10.4-2.3 1.5-.4 3.3-1 5-1.7 0-1.7-.4-2.9-1.2-3.6s-1.9-1-3.8-1c-2.3 0-4 .4-5.2 1.2-1.1.1-1.9 1.2-2.3 2.7m-36.3-26.1h14.2v51.1h-14.2zm-22.8 33.6c-1.9.8-4 1.3-6.1 1.9-2.9.8-4.6 1.5-5.4 2.3s-1.2 1.7-1.2 2.7c0 1.2.4 2.1 1.2 2.7.8.8 1.9 1.2 3.5 1.2 1.5 0 3.1-.4 4.4-1.2s2.3-1.7 2.9-2.9.8-2.5.8-4.2v-2.5zm-12.3-7.5-13.5-1.3c.6-2.3 1.3-4.2 2.3-5.6 1-1.3 2.3-2.5 4.2-3.5 1.3-.8 3.1-1.3 5.4-1.7s4.8-.6 7.3-.6c4.2 0 7.7.2 10.2.8 2.5.4 4.8 1.5 6.5 3.1 1.2 1 2.1 2.5 2.9 4.4s1 3.6 1 5.6v16.3c0 1.7.2 3.1.4 4 .2 1 .8 2.3 1.5 3.8h-13.2c-.6-1-1-1.7-1-2.1-.2-.6-.4-1.3-.6-2.3-1.9 1.7-3.6 3.1-5.6 3.8-2.5 1-5.4 1.5-8.6 1.5-4.4 0-7.7-1-10-3.1s-3.5-4.6-3.5-7.5.8-5.2 2.5-6.9 4.6-3.1 9-4c5.4-1.2 8.8-1.7 10.4-2.3 1.5-.4 3.3-1 5-1.7 0-1.7-.4-2.9-1.2-3.6-.8-.8-1.9-1-3.8-1-2.3 0-4 .4-5.2 1.2-1.1.1-1.8 1.2-2.4 2.7m-60.3-11.9h13.2v6c1.9-2.5 4-4.2 6-5.2 2.1-1.2 4.4-1.5 7.3-1.5 3.8 0 6.9 1.2 9.2 3.5s3.3 6 3.3 10.8v23.4h-14.2v-20.4c0-2.3-.4-4-1.3-5-1-1-2.1-1.5-3.6-1.5-1.7 0-3.1.6-4.2 1.9-1.2 1.3-1.5 3.6-1.5 6.9v17.7h-14.4v-36.6zm-8.6 36.9h-13.2v-6c-1.9 2.5-4 4.2-6 5.2s-4.4 1.5-7.5 1.5c-3.8 0-6.9-1.2-9.2-3.5s-3.3-6-3.3-10.8v-23.3h14.2v20.4c0 2.3.4 4 1.3 5 1 1 2.1 1.5 3.6 1.5 1.7 0 3.1-.6 4.2-1.9s1.5-3.6 1.5-6.9v-17.9h14.2zm-110.3-36.9h13.2v5.4c1.9-2.3 3.8-3.8 5.8-4.8s4.2-1.3 7.1-1.3 5.2.6 6.9 1.5c1.7 1 3.1 2.7 4.2 4.6 2.3-2.5 4.2-4 6.1-5s4-1.3 6.7-1.3c4 0 7.1 1.2 9.2 3.5 2.3 2.3 3.3 6 3.3 11.1v23.2h-14.2v-21.1c0-1.7-.4-2.9-1-3.6-1-1.3-2.1-1.9-3.5-1.9-1.7 0-3.1.6-4 1.7s-1.5 3.1-1.5 5.8v19h-14.2v-20.2c0-1.5 0-2.7-.2-3.3-.4-1-.8-1.7-1.5-2.3-.8-.6-1.5-.8-2.7-.8-1.5 0-2.9.6-4 1.9-1 1.2-1.5 3.3-1.5 6.1v18.8h-14.2zm-35.1 18.5c0 3.3.6 5.8 1.9 7.3s3.1 2.3 5 2.3c2.1 0 3.6-.8 5-2.3 1.3-1.5 1.9-4 1.9-7.5 0-3.3-.6-5.6-1.9-7.1s-2.9-2.3-5-2.3-3.8.8-5.2 2.3c-.9 1.7-1.7 4-1.7 7.3m-14.2 0c0-5.6 1.9-10.4 5.8-14 3.8-3.6 9-5.6 15.4-5.6 7.5 0 13.1 2.1 16.7 6.5 3.1 3.5 4.6 7.7 4.6 12.9 0 5.8-1.9 10.4-5.6 14-3.8 3.6-9 5.4-15.6 5.4-6 0-10.8-1.5-14.4-4.6-4.6-3.7-6.9-8.5-6.9-14.6m-43.4-32.7h14.4v26.3l10.6-12.3h17.4l-13.2 12.9 14 24h-15.9l-7.5-14.8-5.4 5.2v9.6h-14.4z" fill="#2e368e"></path><path d="m551 107.5c-1.9.8-4 1.3-6.1 1.9-2.9.8-4.6 1.5-5.4 2.3s-1.2 1.7-1.2 2.7c0 1.2.4 2.1 1.2 2.7.8.8 1.9 1.2 3.5 1.2 1.5 0 3.1-.4 4.4-1.2s2.3-1.7 2.9-2.9.8-2.5.8-4.2zm-12.3-7.5-13.4-1.3c.6-2.3 1.3-4.2 2.3-5.6 1-1.3 2.3-2.5 4.2-3.5 1.3-.8 3.1-1.3 5.4-1.7s4.8-.6 7.3-.6c4.2 0 7.7.2 10.2.8 2.5.4 4.8 1.5 6.5 3.1 1.2 1 2.1 2.5 2.9 4.4s1 3.6 1 5.6v16.3c0 1.7.2 3.1.4 4 .2 1 .8 2.3 1.5 3.8h-13.2c-.6-1-1-1.7-1-2.1-.2-.6-.4-1.3-.6-2.3-1.9 1.7-3.6 3.1-5.6 3.8-2.5 1-5.4 1.5-8.6 1.5-4.4 0-7.7-1-10-3.1s-3.5-4.6-3.5-7.5.8-5.2 2.5-6.9 4.6-3.1 9-4c5.4-1.2 8.8-1.7 10.4-2.3 1.5-.4 3.3-1 5-1.7 0-1.7-.4-2.9-1.2-3.6-.8-.8-1.9-1-3.8-1-2.3 0-4 .4-5.2 1.2-1.1 0-1.9 1.1-2.5 2.7m-46.1 10.5 13.4 1.5c-.8 2.9-1.9 5.2-3.6 7.3s-3.8 3.6-6.5 4.8-6 1.7-10 1.7c-3.8 0-7.1-.4-9.8-1.2s-4.8-1.9-6.7-3.5c-1.9-1.7-3.5-3.5-4.4-5.8-1.2-2.1-1.5-5.2-1.5-8.8 0-3.8.6-6.9 1.9-9.4 1-1.9 2.3-3.5 3.8-5 1.7-1.5 3.3-2.5 5-3.3 2.7-1.2 6.3-1.7 10.6-1.7 6 0 10.6 1.2 13.8 3.3 3.1 2.1 5.4 5.4 6.7 9.4l-13.2 1.7c-.4-1.5-1.2-2.7-2.3-3.6-1.2-.8-2.5-1.2-4.4-1.2-2.3 0-4.2.8-5.8 2.5-1.5 1.7-2.1 4.2-2.1 7.7 0 3.1.8 5.4 2.1 6.9 1.5 1.5 3.3 2.3 5.6 2.3 1.9 0 3.5-.4 4.6-1.3 1.3-.8 2.3-2.2 2.8-4.3m-63.9-22.4h14.2v36.9h-14.2zm-61.1 0h13.2v6c1.9-2.5 4-4.2 6-5.2 2.1-1.2 4.4-1.5 7.3-1.5 3.8 0 6.9 1.2 9.2 3.5s3.3 6 3.3 10.8v23.4h-14.2v-20.4c0-2.3-.4-4-1.3-5-1-1-2.1-1.5-3.6-1.5-1.7 0-3.1.6-4.2 1.9-1.2 1.3-1.5 3.6-1.5 6.9v17.7h-14.2zm-60.8 0h14.8l7.1 23.4 7.5-23.4h14.2l-15.7 36.9h-12.5zm-28.1 15.1c-.2-2.7-1-4.6-2.3-6-1.2-1.2-2.7-1.7-4.8-1.7-2.3 0-4 1-5.4 2.7-.8 1.2-1.3 2.7-1.5 5zm14.4 6.9h-28.4c.2 2.3 1 4 1.9 5 1.3 1.5 3.1 2.3 5.4 2.3 1.3 0 2.7-.4 4-1 .8-.4 1.5-1.2 2.5-2.3l14 1.3c-2.1 3.6-4.6 6.3-7.7 8.1-3.1 1.5-7.3 2.5-13.1 2.5-4.8 0-8.8-.8-11.5-2.1-2.9-1.3-5.2-3.6-6.9-6.5-1.9-3.1-2.7-6.5-2.7-10.6 0-5.8 1.9-10.4 5.6-14 3.6-3.6 8.8-5.4 15.4-5.4 5.4 0 9.4.8 12.5 2.5 3.1 1.5 5.4 3.8 6.9 6.9s2.3 6.9 2.3 11.9v1.3h-.2zm-100.2 4.7 14-1.3c.6 1.7 1.3 2.9 2.5 3.6 1 .8 2.5 1.2 4.2 1.2 1.9 0 3.5-.4 4.4-1.2.8-.6 1.2-1.3 1.2-2.3s-.6-1.7-1.5-2.3c-.8-.4-2.9-1-6.1-1.5-5-1-8.3-1.7-10.2-2.3-1.9-.8-3.5-1.9-4.8-3.6s-1.9-3.6-1.9-6c0-2.5.8-4.6 2.1-6.3s3.5-3.1 5.8-4c2.5-.8 5.8-1.3 10-1.3 4.4 0 7.7.4 9.8 1 2.1.8 3.8 1.7 5.2 3.1 1.3 1.3 2.5 3.3 3.5 5.8l-13.4 1.3c-.4-1.2-1-2.1-1.7-2.7-1.2-.8-2.5-1.2-4-1.2s-2.7.2-3.5.8-1.2 1.3-1.2 2.1c0 1 .4 1.5 1.3 2.1 1 .4 2.9 1 6.1 1.3 4.6.6 8.3 1.3 10.6 2.3s4 2.3 5.2 4 1.9 3.6 1.9 5.8-.6 4.2-1.9 6.1c-1.3 2.1-3.3 3.6-6.1 4.8-2.7 1.2-6.5 1.7-11.3 1.7-6.7 0-11.5-1-14.4-2.9-3.1-1.8-4.8-4.5-5.8-8.1" fill="#2e368e"></path></svg> 