<?xml version="1.0" encoding="UTF-8"?> <svg xmlns="http://www.w3.org/2000/svg" xml:space="preserve" id="Layer_1" x="0" y="0" style="enable-background:new 0 0 186 34" version="1.1" viewBox="0 0 186 34"><style>.st0{fill:#004b8f}</style><path d="m138.54 31.34.32-1.99.26.02c.02.28.04.49.07.62a1.4 1.4 0 0 0 .75.93c.17.08.35.12.55.12.36 0 .63-.11.83-.34.19-.23.29-.49.29-.79 0-.37-.36-.84-1.09-1.41-.73-.6-1.09-1.14-1.09-1.65 0-.48.16-.88.48-1.22.32-.34.76-.5 1.34-.5.16 0 .32.02.49.05l.29.07.23.07.15.04.14.02c.1 0 .18-.02.24-.07.06-.04.1-.1.14-.16h.26l-.36 1.78-.23-.03-.03-.29a1.64 1.64 0 0 0-.26-.71 1.02 1.02 0 0 0-.91-.46c-.34 0-.59.12-.75.37a.92.92 0 0 0-.16.53c0 .2.05.38.16.54.06.09.15.18.27.28l.77.63c.27.22.5.48.69.76s.29.61.29.97c0 .47-.18.89-.55 1.27a2 2 0 0 1-1.52.56 2.8 2.8 0 0 1-.97-.18l-.23-.08-.16-.05-.1-.01c-.1 0-.17.02-.21.07-.04.05-.09.13-.14.25h-.25zm4.68-.4c.21-.03.37-.08.47-.15.1-.08.18-.24.25-.48l1.09-3.98.07-.28c.02-.08.02-.14.02-.2 0-.15-.04-.25-.13-.28a1.74 1.74 0 0 0-.52-.09v-.23h2.64v.23a.95.95 0 0 0-.47.16c-.1.08-.18.24-.25.48l-1.09 3.98-.07.31-.02.09-.01.08c0 .15.04.24.12.28.08.04.26.07.52.09v.23h-2.64v-.24zm6.86-1.97-.33-2.16-1.31 2.16h1.64zm-3.67 1.99c.17-.05.29-.1.36-.16.12-.08.24-.24.39-.47l3.29-5.22h.23l.85 5.07c.06.34.13.55.21.63.08.08.26.13.53.15v.21h-2.69v-.21c.25-.02.43-.06.54-.12.11-.06.16-.19.16-.39l-.05-.48-.09-.65h-1.91l-.52.9c-.03.06-.07.13-.09.2a.52.52 0 0 0-.04.21c0 .12.04.2.11.23s.23.06.46.09v.21h-1.74v-.2zm11.08-4.85c-.23-.4-.63-.6-1.2-.6-.19 0-.32.03-.39.09a.53.53 0 0 0-.15.25l-1.22 4.48-.02.12-.01.09c0 .12.04.2.11.25.07.05.2.08.38.08 1.06 0 1.82-.54 2.29-1.63.29-.66.43-1.35.43-2.09 0-.43-.07-.78-.22-1.04m-4.97 4.83c.19-.03.33-.07.41-.12.14-.09.24-.26.31-.51l1.09-3.98.07-.28c.02-.08.02-.14.02-.2 0-.15-.04-.25-.13-.28a1.74 1.74 0 0 0-.52-.09v-.23h2.58c.87 0 1.54.22 1.99.67.45.45.68 1.04.68 1.8 0 .9-.34 1.69-1.01 2.36a4.01 4.01 0 0 1-2.95 1.11h-2.55v-.25zm13.79-5.71c.3.09.48.13.52.13.09 0 .16-.02.21-.07.05-.05.1-.11.15-.2h.26l-.45 1.96-.26-.03c.01-.36-.04-.67-.15-.92-.19-.46-.56-.69-1.1-.69-.73 0-1.35.46-1.85 1.38-.44.8-.66 1.63-.66 2.47 0 .72.2 1.22.61 1.51.22.16.49.23.8.23.28 0 .5-.04.66-.13a.7.7 0 0 0 .33-.4c0 .03.07-.2.2-.69.13-.49.2-.8.2-.94 0-.15-.04-.24-.12-.28a2.02 2.02 0 0 0-.53-.1v-.23h2.56v.23c-.24.03-.4.07-.47.14-.07.07-.14.26-.23.59l-.44 1.61-.25.11a5.23 5.23 0 0 1-2.03.41c-.74 0-1.36-.2-1.86-.61a2.17 2.17 0 0 1-.81-1.78c0-.97.33-1.83.98-2.59a3.47 3.47 0 0 1 3.73-1.11m1.61 5.94.6-2.18a7.8 7.8 0 0 0 .27-1.17c0-.11-.04-.18-.11-.21s-.2-.05-.37-.05v-.23a9.88 9.88 0 0 0 1.82-.24l-.49 1.57.04.01c.25-.49.46-.84.61-1.04.27-.36.53-.54.77-.54.17 0 .3.06.38.17.08.12.12.24.12.39 0 .17-.05.32-.14.46a.42.42 0 0 1-.38.2.65.65 0 0 1-.2-.04.48.48 0 0 1-.16-.13l-.08-.1-.05-.04-.06-.02c-.11 0-.26.15-.44.46-.18.31-.34.62-.46.94-.09.22-.19.53-.32.94l-.28.87h-1.07zm4.72-.4c.07.16.21.25.41.25.37 0 .7-.43 1-1.27a5.7 5.7 0 0 0 .37-1.85.85.85 0 0 0-.05-.32.38.38 0 0 0-.37-.22c-.42 0-.78.45-1.07 1.35a5.82 5.82 0 0 0-.33 1.71c-.01.15 0 .27.04.35m2.22-3.48c.42.24.62.64.62 1.21 0 .63-.24 1.24-.72 1.83-.52.64-1.12.97-1.8.97-.34 0-.67-.11-.98-.32-.31-.21-.46-.57-.46-1.08 0-.63.24-1.24.71-1.84.52-.65 1.13-.97 1.81-.97.31 0 .58.06.82.2m1.35 2.96.09-.36.46-1.68.05-.2.02-.16c0-.11-.04-.19-.11-.22a.85.85 0 0 0-.38-.06v-.23c.61-.06 1.06-.11 1.37-.16l.5-.08-.4 1.36-.43 1.36-.07.25c-.04.16-.06.27-.06.35 0 .07.02.13.05.16.04.04.09.05.15.05.14 0 .33-.14.55-.41.23-.28.44-.64.64-1.1a14.24 14.24 0 0 0 .65-1.91h1.05l-.34 1.23-.18.66-.19.7-.11.43a1.6 1.6 0 0 0-.05.27c0 .06.01.1.04.13s.06.05.1.05c.09 0 .22-.1.37-.3.09-.11.17-.23.24-.36l.19.11c-.17.32-.39.59-.65.82-.26.23-.52.34-.8.34-.24 0-.41-.07-.5-.2a.64.64 0 0 1-.1-.36c0-.14.01-.26.03-.36l.16-.54-.02-.01c-.36.52-.63.87-.8 1.04-.29.29-.59.43-.89.43a.71.71 0 0 1-.39-.11c-.19-.12-.28-.32-.28-.6 0-.1.01-.2.04-.33m5.92.64a.4.4 0 0 0 .27.09c.36 0 .71-.39 1.03-1.16.28-.66.42-1.2.42-1.6a.8.8 0 0 0-.04-.3c-.05-.13-.15-.2-.3-.2-.16 0-.33.08-.51.25-.18.16-.33.41-.44.73a14.99 14.99 0 0 0-.54 1.94c0 .1.04.19.11.25m-2.18 1.88c.2-.01.34-.04.42-.1.08-.06.15-.21.21-.46l1.06-3.87.07-.27.05-.25c0-.11-.04-.18-.11-.21-.08-.03-.2-.05-.37-.05v-.23l.41-.04.52-.07.72-.12-.29.91.02.02c.2-.26.37-.45.52-.58.27-.23.55-.34.85-.34.27 0 .5.09.69.27.18.18.27.46.27.84 0 .71-.26 1.41-.77 2.08-.52.68-1.07 1.02-1.65 1.02-.14 0-.24-.02-.32-.04a2.33 2.33 0 0 1-.33-.16l-.16.59a8.38 8.38 0 0 0-.17.79c0 .12.04.19.12.23.08.03.23.05.46.07v.2h-2.22v-.23z" class="st0"></path><path d="M4.48 4.52a9.32 9.32 0 0 0-2.2 5.68 9.26 9.26 0 0 0 8.76 9.73A6.64 6.64 0 0 0 16.1 8.61a8.6 8.6 0 0 1-3.72 16.55 12.1 12.1 0 0 1-7.9-20.64m17.05 17.13a9.46 9.46 0 0 0 2.21-5.68 9.26 9.26 0 0 0-8.76-9.73 6.65 6.65 0 0 0-5.06 11.32 8.6 8.6 0 0 1 3.72-16.55 12.1 12.1 0 0 1 7.89 20.64" style="fill:#75b73f"></path><path d="M84.37 19.13h3.14v-6.95h.03l4.62 6.95h3.15V7.04h-3.15v6.94h-.03l-4.62-6.94h-3.14zm-14.28-2.1.78 2.1h3.35L69.67 7.04h-3.43l-4.65 12.09h3.33l.83-2.1h4.34zm-.85-2.4h-2.61l1.3-3.85h.03l1.28 3.85zm11.24-.45c1.72-.3 2.65-1.75 2.65-3.41 0-2.58-1.81-3.72-4.2-3.72h-4.7v12.09h3.14v-4.65h.03l2.97 4.65h3.91l-3.8-4.96zm-3.11-4.73h.31c1.02 0 2.18.19 2.18 1.51s-1.15 1.51-2.18 1.51h-.31V9.45zm26.5 7.58.79 2.1h3.35l-4.55-12.09h-3.43l-4.65 12.09h3.33l.83-2.1h4.33zm-.85-2.4h-2.61l1.3-3.85h.03l1.28 3.85zm30.24 2.4.79 2.1h3.35l-4.55-12.09h-3.43l-4.65 12.09h3.33l.83-2.1h4.33zm-.85-2.4h-2.61l1.3-3.85h.03l1.28 3.85zm11.28-.45c1.72-.3 2.65-1.75 2.65-3.41 0-2.58-1.81-3.72-4.2-3.72h-4.7v12.09h3.14v-4.65h.03l2.97 4.65h3.91l-3.8-4.96zm-3.11-4.73h.31c1.03 0 2.18.19 2.18 1.51s-1.15 1.51-2.18 1.51h-.31V9.45zm6.94-2.41h3.14v12.09h-3.14zm7.42 7.09h.32c1.02 0 2.58-.14 2.58 1.32 0 1.33-1.57 1.28-2.5 1.28h-.4v-2.6zm1.7 5c2.21 0 4.38-.83 4.38-3.37 0-1.68-.74-2.85-2.47-3.08v-.03c.98-.5 1.33-1.38 1.33-2.47 0-2.31-1.44-3.14-3.59-3.14h-4.49v12.09h4.84zm-1.7-9.68h.22c.85 0 1.83.06 1.83 1.17 0 1.02-.87 1.17-1.7 1.17h-.35V9.45zm12.91-2.81c-3.48 0-6.68 2.56-6.68 6.22 0 3.91 2.8 6.67 6.68 6.67a6.43 6.43 0 0 0 6.69-6.67c0-3.65-3.21-6.22-6.69-6.22m0 3.05c1.88 0 3.41 1.52 3.41 3.19 0 2.09-1.54 3.61-3.41 3.61-1.88 0-3.41-1.52-3.41-3.61 0-1.67 1.54-3.19 3.41-3.19m13.43 4.49c1.71-.3 2.64-1.75 2.64-3.41 0-2.58-1.81-3.72-4.2-3.72h-4.7v12.09h3.14v-4.65h.03l2.97 4.65h3.91l-3.79-4.96zm-3.11-4.73h.3c1.03 0 2.18.19 2.18 1.51s-1.15 1.51-2.18 1.51h-.3V9.45zM28.72 19.13h3.14v-4.01h1.78c2.74 0 4.28-1.25 4.28-4.1 0-2.77-1.8-3.98-4.39-3.98h-4.81v12.09zm3.14-9.55h.53c1.22 0 2.26.02 2.26 1.54 0 1.48-1.12 1.48-2.26 1.48h-.53V9.58zm10.05-2.54h-3.14v12.09h6.91v-2.66h-3.77zm4.69 0h3.14v12.08H46.6z" class="st0"></path><path d="M50.67 19.13h3.14v-6.95h.03l4.62 6.95h3.15V7.04h-3.15v6.94h-.03l-4.62-6.94h-3.14zm67.67-1.55-2.56-4.83v6.38h-3.13V7.04h3.54l2.51 5.05 2.51-5.05h3.54v12.09h-3.12v-6.38l-2.57 4.83z" class="st0"></path></svg> 