<?xml version="1.0" encoding="UTF-8"?> <svg xmlns="http://www.w3.org/2000/svg" viewBox="0 0 505.35 169.82"><defs><style>.cls-1,.cls-2{fill:#1d1d1b}.cls-1{fill-rule:evenodd}</style></defs><g id="Layer_2" data-name="Layer 2"><g id="Layer_1-2" data-name="Layer 1"><path d="M66 48.66A13 13 0 0 1 61.52 59a16.19 16.19 0 0 1-11 3.92H14.25v-9.8h36.29c3.64 0 5.46-1.48 5.46-4.46v-2.83Q56 41 50.54 41H11.15v43.49H1.21v-53h49.33a16 16 0 0 1 11 4A13.15 13.15 0 0 1 66 45.83Z" class="cls-1"></path><path d="M66 48.66A13 13 0 0 1 61.52 59a16.19 16.19 0 0 1-11 3.92H14.25v-9.8h36.29c3.64 0 5.46-1.48 5.46-4.46v-2.83Q56 41 50.54 41H11.15v43.49H1.21v-53h49.33a16 16 0 0 1 11 4A13.15 13.15 0 0 1 66 45.83Zm59.75 21.51V45.74a4.33 4.33 0 0 0-1.75-3.37 5.72 5.72 0 0 0-3.74-1.46H86.82a5.72 5.72 0 0 0-3.74 1.46 4.33 4.33 0 0 0-1.73 3.37v24.43q0 4.76 5.47 4.75h33.46q5.48 0 5.47-4.75m10 0a13.11 13.11 0 0 1-4.56 10.31 16 16 0 0 1-10.94 4H86.82a16 16 0 0 1-10.94-4 13.11 13.11 0 0 1-4.56-10.31V45.74a13.05 13.05 0 0 1 4.74-10.12 15.78 15.78 0 0 1 10.76-4.19h33.46A15.78 15.78 0 0 1 131 35.62a13.05 13.05 0 0 1 4.74 10.12Z" class="cls-1"></path><path d="M125.75 70.17V45.74a4.33 4.33 0 0 0-1.75-3.37 5.72 5.72 0 0 0-3.74-1.46H86.82a5.72 5.72 0 0 0-3.74 1.46 4.33 4.33 0 0 0-1.73 3.37v24.43q0 4.76 5.47 4.75h33.46q5.48 0 5.47-4.75m10 0a13.11 13.11 0 0 1-4.56 10.31 16 16 0 0 1-10.94 4H86.82a16 16 0 0 1-10.94-4 13.11 13.11 0 0 1-4.56-10.31V45.74a13.05 13.05 0 0 1 4.74-10.12 15.78 15.78 0 0 1 10.76-4.19h33.46A15.78 15.78 0 0 1 131 35.62a13.05 13.05 0 0 1 4.74 10.12Zm60.38 0V45.74a4.33 4.33 0 0 0-1.73-3.37 5.7 5.7 0 0 0-3.74-1.46h-39.38v34h39.38q5.47 0 5.47-4.75m10 0a13.17 13.17 0 0 1-4.51 10.31 16 16 0 0 1-11 4h-49.28V31.43h49.32a15.76 15.76 0 0 1 10.76 4.19 13.05 13.05 0 0 1 4.74 10.12Z" class="cls-1"></path><path d="M196.13 70.17V45.74a4.33 4.33 0 0 0-1.73-3.37 5.7 5.7 0 0 0-3.74-1.46h-39.38v34h39.38q5.47 0 5.47-4.75m10 0a13.17 13.17 0 0 1-4.51 10.31 16 16 0 0 1-11 4h-49.28V31.43h49.32a15.76 15.76 0 0 1 10.76 4.19 13.05 13.05 0 0 1 4.74 10.12Zm68.32.01a13.2 13.2 0 0 1-4.51 10.31 16 16 0 0 1-11 4h-31.35a16 16 0 0 1-10.94-4 13.11 13.11 0 0 1-4.56-10.31V45.74a13.05 13.05 0 0 1 4.74-10.12 15.76 15.76 0 0 1 10.76-4.19h46v9.48h-46a5.7 5.7 0 0 0-3.74 1.46 4.3 4.3 0 0 0-1.73 3.37v24.43q0 4.76 5.47 4.75H259q5.57 0 5.56-4.75v-2.55a4.24 4.24 0 0 0-1.78-3.42 6 6 0 0 0-3.78-1.41h-31.41v-9.48H259a15.81 15.81 0 0 1 10.8 4.15 13 13 0 0 1 4.7 10.16Z" class="cls-1"></path><path d="M274.45 70.17a13.2 13.2 0 0 1-4.51 10.31 16 16 0 0 1-11 4h-31.35a16 16 0 0 1-10.94-4 13.11 13.11 0 0 1-4.56-10.31V45.74a13.05 13.05 0 0 1 4.74-10.12 15.76 15.76 0 0 1 10.76-4.19h46v9.48h-46a5.7 5.7 0 0 0-3.74 1.46 4.3 4.3 0 0 0-1.73 3.37v24.43q0 4.76 5.47 4.75H259q5.57 0 5.56-4.75v-2.55a4.24 4.24 0 0 0-1.78-3.42 6 6 0 0 0-3.78-1.41h-31.41v-9.48H259a15.81 15.81 0 0 1 10.8 4.15 13 13 0 0 1 4.7 10.16Zm60.08 0V45.74a4.31 4.31 0 0 0-1.74-3.37 5.68 5.68 0 0 0-3.73-1.46H295.6a5.7 5.7 0 0 0-3.74 1.46 4.33 4.33 0 0 0-1.73 3.37v24.43q0 4.76 5.47 4.75h33.46c3.64 0 5.47-1.58 5.47-4.75m10 0A13.11 13.11 0 0 1 340 80.48a16 16 0 0 1-10.94 4H295.6a16 16 0 0 1-10.94-4 13.11 13.11 0 0 1-4.56-10.31V45.74a13.05 13.05 0 0 1 4.74-10.12 15.78 15.78 0 0 1 10.76-4.19h33.46a15.8 15.8 0 0 1 10.76 4.19 13.05 13.05 0 0 1 4.74 10.12Z" class="cls-1"></path><path d="M334.53 70.17V45.74a4.31 4.31 0 0 0-1.74-3.37 5.68 5.68 0 0 0-3.73-1.46H295.6a5.7 5.7 0 0 0-3.74 1.46 4.33 4.33 0 0 0-1.73 3.37v24.43q0 4.76 5.47 4.75h33.46c3.64 0 5.47-1.58 5.47-4.75m10 0A13.11 13.11 0 0 1 340 80.48a16 16 0 0 1-10.94 4H295.6a16 16 0 0 1-10.94-4 13.11 13.11 0 0 1-4.56-10.31V45.74a13.05 13.05 0 0 1 4.74-10.12 15.78 15.78 0 0 1 10.76-4.19h33.46a15.8 15.8 0 0 1 10.76 4.19 13.05 13.05 0 0 1 4.74 10.12ZM415 84.49h-10V67.26a3.72 3.72 0 0 0-1.71-3.26 6.58 6.58 0 0 0-3.83-1.14h-36.29v-9.74h36.29c3.64 0 5.47-1.48 5.47-4.46v-2.83c0-3.22-1.83-4.83-5.47-4.83h-39.39v43.49h-9.94v-53h49.33a16 16 0 0 1 11 4A13.15 13.15 0 0 1 415 45.83v2.83a13.1 13.1 0 0 1-4 9.34 13.27 13.27 0 0 1 3.92 9.3Z" class="cls-1"></path><path d="M415 84.49h-10V67.26a3.72 3.72 0 0 0-1.71-3.26 6.58 6.58 0 0 0-3.83-1.14h-36.29v-9.74h36.29c3.64 0 5.47-1.48 5.47-4.46v-2.83c0-3.22-1.83-4.83-5.47-4.83h-39.39v43.49h-9.94v-53h49.33a16 16 0 0 1 11 4A13.15 13.15 0 0 1 415 45.83v2.83a13.1 13.1 0 0 1-4 9.34 13.27 13.27 0 0 1 3.92 9.3Zm90.35 0h-46.67a16 16 0 0 1-10.95-4 13.1 13.1 0 0 1-4.55-10.31V45.74a13.05 13.05 0 0 1 4.74-10.12 15.76 15.76 0 0 1 10.76-4.19h46.67v9.48h-46.67a5.7 5.7 0 0 0-3.74 1.46 4.31 4.31 0 0 0-1.74 3.37v7.38h52.15v9.76H453.2v7.29q0 4.76 5.48 4.75h46.67Z" class="cls-1"></path><path d="M505.35 84.49h-46.67a16 16 0 0 1-10.95-4 13.1 13.1 0 0 1-4.55-10.31V45.74a13.05 13.05 0 0 1 4.74-10.12 15.76 15.76 0 0 1 10.76-4.19h46.67v9.48h-46.67a5.7 5.7 0 0 0-3.74 1.46 4.31 4.31 0 0 0-1.74 3.37v7.38h52.15v9.76H453.2v7.29q0 4.76 5.48 4.75h46.67Z" class="cls-1"></path><path d="M.35 128.9h434.29v2.97H.35z" class="cls-2"></path><path d="M.35 128.9h434.29v2.97H.35z" class="cls-2"></path><path d="M0 169.82c118.85-18.62 306.68-32.32 434.73-31.88v-3.84C306.54 132.57 113.12 142.39 0 155.47Z" class="cls-1"></path><path d="M0 169.82c118.85-18.62 306.68-32.32 434.73-31.88v-3.84C306.54 132.57 113.12 142.39 0 155.47ZM425.1 41.4v-9.98h9.94v9.98h-9.94z" class="cls-1"></path><path d="M425.1 41.4v-9.98h9.94v9.98h-9.94zm9.9 60.32a13.17 13.17 0 0 1-4.47 10.28 16 16 0 0 1-11 4H393v-9.57h26.5c3.71 0 5.56-1.59 5.56-4.75V51.29H435Z" class="cls-1"></path><path d="M435 101.72a13.17 13.17 0 0 1-4.47 10.28 16 16 0 0 1-11 4H393v-9.57h26.5c3.71 0 5.56-1.59 5.56-4.75V51.29H435Zm-434.23.06a13.15 13.15 0 0 0 4.52 10.3 15.9 15.9 0 0 0 11 4h366.85v-9.57H16.27q-5.56 0-5.56-4.74v-7.41H.77Z" class="cls-1"></path><path d="M.77 101.78a13.15 13.15 0 0 0 4.52 10.3 15.9 15.9 0 0 0 11 4h366.85v-9.57H16.27q-5.56 0-5.56-4.74v-7.41H.77Zm0-87.47A13.16 13.16 0 0 1 5.28 4a16 16 0 0 1 11-4h403.26a16 16 0 0 1 11 4A13.16 13.16 0 0 1 435 14.31v7.24h-9.9v-7.24q0-4.74-5.56-4.74H16.26c-3.7 0-5.56 1.58-5.56 4.74v7.29H.77Z" class="cls-1"></path><path d="M.77 14.31A13.16 13.16 0 0 1 5.28 4a16 16 0 0 1 11-4h403.26a16 16 0 0 1 11 4A13.16 13.16 0 0 1 435 14.31v7.24h-9.9v-7.24q0-4.74-5.56-4.74H16.26c-3.7 0-5.56 1.58-5.56 4.74v7.29H.77Z" class="cls-1"></path></g></g></svg> 