<?xml version="1.0" encoding="UTF-8"?> <svg xmlns="http://www.w3.org/2000/svg" xmlns:xlink="http://www.w3.org/1999/xlink" version="1.1" id="Layer_1" x="0px" y="0px" viewBox="0 0 181.87 39.02" style="enable-background:new 0 0 181.87 39.02;" xml:space="preserve"> <style type="text/css"> .st0{fill-rule:evenodd;clip-rule:evenodd;fill:#F6ADCD;} .st1{fill:#1D1D1B;} .st2{fill-rule:evenodd;clip-rule:evenodd;fill:#FFFFFF;} .st3{fill-rule:evenodd;clip-rule:evenodd;fill:#1D1D1B;} </style> <path class="st0" d="M31.41,8.69l-8.08,5.39v3.37l-3.37,2.25v-0.01l-3.37-2.24v3.37l3.38,2.24v0l3.36-2.24v3.37l-3.37,2.25v-0.01 l-3.37-2.24v3.37l3.38,2.24v0l3.36-2.24v3.37l-3.36,2.24v0l15.4-10.17c0.25-1.11,0.38-2.27,0.38-3.46 C35.74,15.35,34.1,11.52,31.41,8.69z"></path> <path class="st1" d="M52.6,10.02c-0.1,0.36-0.15,0.65-0.15,0.86c0,0.37,0.08,0.81,0.27,1.32l2.91,8.35l3.03-8.35 c0.19-0.52,0.28-0.95,0.28-1.3c0-0.19-0.05-0.49-0.17-0.88h7.01c-0.61,0.5-1.22,1.5-1.83,3.02l-6.43,15.94H53.5l-6.4-15.94 c-0.34-0.86-0.58-1.41-0.72-1.65c-0.3-0.54-0.67-1-1.12-1.37L52.6,10.02L52.6,10.02z M73.95,10.02v15.91c0,0.83,0.02,1.38,0.07,1.63 c0.08,0.52,0.32,0.99,0.69,1.42h-7.33c0.38-0.43,0.61-0.9,0.7-1.42c0.05-0.25,0.07-0.8,0.07-1.63V13.04c0-0.83-0.02-1.37-0.07-1.61 c-0.08-0.51-0.32-0.98-0.68-1.4H73.95z M85.83,29.34c-2.27,0-4.49-0.49-6.67-1.45c-0.89-0.4-1.43-0.58-1.61-0.57L79.81,23 c0.86,0.74,2.03,1.32,3.51,1.73c0.79,0.22,1.56,0.33,2.3,0.33c1.5,0,2.25-0.49,2.25-1.48c0-0.56-0.37-0.99-1.11-1.3 c-0.14-0.06-1.21-0.42-3.24-1.09c-2.41-0.8-3.91-1.85-4.5-3.17c-0.3-0.67-0.45-1.44-0.45-2.32c0-1.45,0.45-2.69,1.35-3.71 c0.84-0.92,1.96-1.58,3.37-1.98c0.91-0.25,1.9-0.38,2.98-0.38c1.46,0,3.2,0.38,5.23,1.13c0.9,0.33,1.53,0.5,1.88,0.5l-2.06,4.1 c-1.48-0.97-3.07-1.45-4.78-1.45c-1.42,0-2.13,0.41-2.13,1.23c0,0.65,0.47,1.15,1.42,1.52c0.6,0.22,1.68,0.61,3.23,1.18 c1.05,0.4,1.82,0.73,2.33,1.02c1.61,0.92,2.42,2.33,2.42,4.19c0,2.57-1.29,4.4-3.87,5.5C88.73,29.08,87.35,29.34,85.83,29.34z M108.37,28.77c-1.58,0.4-2.82,0.59-3.73,0.59c-2.21,0-3.71-0.54-4.5-1.61c-0.69-0.94-1.04-2.5-1.04-4.7V14.3h-3.3v-4.28h3.3V4.21 h5.8v5.81h2.73c0.79,0,1.35-0.15,1.68-0.45v5.18c-0.33-0.3-0.89-0.45-1.68-0.45h-2.73v7.16c0,1.17,0.05,1.91,0.13,2.23 c0.22,0.76,0.72,1.15,1.54,1.15c0.93,0,1.68-0.29,2.23-0.87l1.79,4.33c-0.34,0.02-0.76,0.1-1.27,0.23 C109.15,28.57,108.84,28.65,108.37,28.77z M120.79,13.78c-1.63,0-2.55,1.16-2.75,3.47h5.58C123.35,14.94,122.41,13.78,120.79,13.78z M129.48,21.08h-11.44c0.1,2.6,1.35,3.9,3.75,3.9c1.92,0,3.82-0.56,5.7-1.68l1.71,4.19c-0.36,0-0.82,0.11-1.38,0.34l-0.86,0.37 c-1.84,0.77-3.8,1.16-5.86,1.16c-3.47,0-6.06-1.45-7.77-4.35c-0.88-1.49-1.31-3.34-1.31-5.53c0-3.76,1.32-6.57,3.98-8.44 c1.32-0.94,2.92-1.4,4.78-1.4c3.09,0,5.38,1.14,6.88,3.43C128.97,15.08,129.58,17.75,129.48,21.08z M142.64,23.65v-3 c-0.42-0.08-0.87-0.12-1.33-0.12c-0.93,0-1.73,0.17-2.4,0.52c-0.84,0.44-1.26,1.09-1.26,1.98c0,0.66,0.24,1.18,0.72,1.57 c0.43,0.36,0.98,0.54,1.63,0.54C141.2,25.15,142.09,24.65,142.64,23.65L142.64,23.65z M149.19,28.98h-6.22v-1.47 c-1.14,1.21-2.62,1.83-4.41,1.85c-1.28,0.01-2.44-0.28-3.48-0.88c-1.1-0.64-1.9-1.54-2.4-2.7c-0.36-0.83-0.53-1.77-0.53-2.83 c0-2.4,1.13-4.18,3.38-5.32c1.3-0.66,3.12-0.99,5.47-0.99c0.33,0,0.91,0.02,1.73,0.07c0-1.98-0.82-2.97-2.48-2.97 c-1.41,0-2.9,0.43-4.45,1.29l-1.65-4.15c0.36,0,1.08-0.14,2.14-0.41l2.27-0.59c0.77-0.16,1.6-0.24,2.5-0.24 c3.55,0,5.79,1.18,6.7,3.54c0.44,1.15,0.67,2.58,0.67,4.28v8.48c0,0.83,0.02,1.38,0.07,1.63C148.58,28.08,148.82,28.55,149.19,28.98 L149.19,28.98z M169.86,15.75v10.18c0,0.83,0.02,1.38,0.07,1.63c0.09,0.52,0.32,0.99,0.69,1.42h-7.33c0.38-0.43,0.61-0.9,0.7-1.42 c0.05-0.25,0.07-0.8,0.07-1.63v-9.19c0-0.79-0.1-1.34-0.28-1.65c-0.24-0.4-0.72-0.59-1.42-0.59c-0.91,0-1.94,0.41-3.09,1.25v10.18 c0,0.83,0.02,1.38,0.07,1.63c0.09,0.52,0.32,0.99,0.69,1.42h-7.33c0.38-0.43,0.61-0.9,0.7-1.42c0.04-0.25,0.07-0.8,0.07-1.63V13.04 c0-0.83-0.02-1.37-0.07-1.61c-0.09-0.51-0.31-0.98-0.68-1.4h6.22v1.87c1.95-1.5,3.96-2.25,6.03-2.25c2.13,0,3.59,0.75,4.37,2.25 c1.87-1.5,3.94-2.25,6.23-2.25c2.01,0,3.43,0.72,4.28,2.16c0.4,0.69,0.6,1.47,0.6,2.38v11.75c0,0.83,0.02,1.38,0.07,1.63 c0.09,0.52,0.32,0.99,0.7,1.42h-7.31c0.38-0.43,0.61-0.9,0.69-1.42c0.04-0.25,0.07-0.8,0.07-1.63v-9.19c0-0.79-0.1-1.34-0.28-1.65 c-0.24-0.4-0.72-0.59-1.42-0.59C172.04,14.5,171.01,14.92,169.86,15.75z"></path> <path class="st2" d="M71.04,8.7c1.66,0,3.01-1.41,3.01-3.13s-1.35-3.13-3.01-3.13s-3.01,1.41-3.01,3.13S69.39,8.7,71.04,8.7z"></path> <path class="st3" d="M19.97,0.61c10.46,0,18.94,8.48,18.94,18.94c0,10.46-8.48,18.94-18.94,18.94S1.03,30.01,1.03,19.55 C1.03,9.09,9.51,0.61,19.97,0.61z M8.54,8.69l11.42,7.63l3.36-2.24v3.37l-3.37,2.25v-0.01l-3.37-2.24v3.37l3.38,2.24v0l3.36-2.24 v3.37l-3.37,2.25v-0.01l-3.37-2.24v3.37l3.38,2.24v0l3.36-2.24v3.37l-3.36,2.24v0l0,0l0,0v-0.01L4.56,22.92 c1.54,7.09,7.86,12.41,15.41,12.41c8.71,0,15.77-7.06,15.77-15.77S28.68,3.78,19.97,3.78C15.47,3.78,11.41,5.67,8.54,8.69z"></path> </svg> 