<?xml version="1.0" encoding="UTF-8"?> <svg xmlns="http://www.w3.org/2000/svg" id="Layer_1" viewBox="0 0 1280 230.67"><defs><style>.cls-1{fill:#5cb847;}.cls-2{fill:#393f43;}</style></defs><path class="cls-1" d="M231.21,0H93.63V46.13h44.49v83.04c0,27.43-19.83,50.19-45.86,54.58v46.91c50.66,0,91.72-41.31,91.72-92.27V46.13h38.05c30.39,0,55.03,24.79,55.03,55.36V230.67h45.86V92.27C322.93,41.31,281.87,0,231.21,0Z"></path><circle class="cls-1" cx="23.07" cy="23.16" r="23.07"></circle><circle class="cls-1" cx="23.07" cy="115.36" r="23.07"></circle><circle class="cls-1" cx="23.07" cy="207.51" r="23.07"></circle><path class="cls-2" d="M522.18,0c54.33,0,77.23,26.31,77.23,61.85,0,27.34-11.62,44.08-32.81,52.97,21.87,9.23,33.49,26.31,33.49,53.99,0,34.52-22.55,61.85-76.89,61.85h-116.53v-40.32h116.53c23.58,0,34.86-10.93,34.86-29.39s-11.96-27.68-35.2-27.68h-71.08v-36.57h70.06c23.58,0,35.2-8.54,35.2-27.68,0-17.43-10.59-28.71-34.86-28.71h-115.16V0h115.16Z"></path><polygon class="cls-2" points="800.72 0 800.72 40.32 733.39 40.32 733.39 230.67 692.73 230.67 692.73 40.32 625.41 40.32 625.41 0 800.72 0"></polygon><path class="cls-2" d="M835.79,230.67h-43.65L871.71,29.21c8.39-21.15,23.84-29.21,47.68-29.21s38.95,8.06,47.01,29.21l76.55,201.46h-43.98l-68.83-182.32c-2.02-5.37-5.71-7.72-11.08-7.72s-9.07,2.35-11.42,7.72l-71.85,182.32Z"></path><path class="cls-2" d="M1072.84,0l68.83,182.32c2.01,5.37,5.71,7.72,11.08,7.72s8.73-2.35,11.08-7.72L1236.01,0h43.99l-79.91,201.46c-8.39,21.15-23.84,29.21-47.34,29.21-22.16,0-39.28-7.05-47.68-29.21L1029.19,0h43.65Z"></path></svg> 