<?xml version="1.0" encoding="UTF-8"?> <svg xmlns="http://www.w3.org/2000/svg" style="isolation:isolate" viewBox="0 0 150 100"><defs><clipPath id="a"><path d="M0 0h150v100H0z"></path></clipPath></defs><g fill-rule="evenodd" clip-path="url(#a)"><path d="M25 41.052h1.551v2.087c.847-1.245 2.077-2.308 3.991-2.308 2.498 0 4.977 1.967 4.977 5.379v.04c0 3.392-2.459 5.399-4.977 5.399-1.935 0-3.184-1.044-3.991-2.208v5.199H25V41.052Zm8.927 5.218v-.04c0-2.449-1.693-4.014-3.668-4.014-1.934 0-3.768 1.626-3.768 3.994v.04c0 2.408 1.834 4.015 3.768 4.015 2.015 0 3.668-1.486 3.668-3.995Zm2.658.02v-.04c0-2.93 2.298-5.419 5.441-5.419 3.123 0 5.421 2.448 5.421 5.379v.04a5.399 5.399 0 0 1-5.462 5.419c-3.122 0-5.4-2.449-5.4-5.379Zm9.27 0v-.04c0-2.228-1.673-4.054-3.87-4.054-2.257 0-3.808 1.826-3.808 4.014v.04c0 2.228 1.652 4.034 3.849 4.034 2.257 0 3.829-1.806 3.829-3.994Zm2.799-5.238h1.551v1.806c.686-1.124 1.774-2.027 3.567-2.027 2.519 0 3.99 1.686 3.99 4.155v6.443h-1.551v-6.062c0-1.927-1.048-3.131-2.882-3.131-1.794 0-3.124 1.304-3.124 3.252v5.941h-1.551V41.052Zm10.799-3.974h1.773v1.706h-1.773v-1.706Zm.101 3.974h1.551v10.377h-1.551V41.052Zm3.465-4.275h1.552v10.115l5.622-5.84h1.934l-4.373 4.455 4.515 5.921h-1.855l-3.727-4.836-2.116 2.127v2.709h-1.552V36.777Zm9.711 4.275h1.713l3.506 8.61 3.527-8.61h1.672l-4.534 10.457h-1.37L72.73 41.052Zm10.417 5.218v-.04c0-2.991 2.116-5.399 4.997-5.399 3.083 0 4.856 2.448 4.856 5.479 0 .201 0 .322-.02.502h-8.261c.222 2.248 1.813 3.513 3.667 3.513 1.431 0 2.439-.582 3.285-1.465l.967.862c-1.048 1.164-2.318 1.947-4.292 1.947-2.862 0-5.199-2.187-5.199-5.399Zm8.282-.602c-.161-1.886-1.25-3.533-3.324-3.533-1.815 0-3.185 1.506-3.386 3.533h6.71Zm8.358 12.524c-4.6 2.246-8.86 2.856-12.978 2.695-4.116-.155-8.08-1.067-12.035-1.845-3.954-.782-7.899-1.433-11.958-1.116-4.057.32-8.234 1.593-12.603 4.685 4.602-2.251 8.859-2.86 12.977-2.699 4.115.155 8.079 1.067 12.036 1.849 3.954.785 7.9 1.436 11.959 1.12 4.057-.321 8.235-1.595 12.602-4.689Z" fill="#007DC4"></path><path d="M91.56 34.381c-1.92-2.223-4.729-3.825-7.711-4.917-2.998-1.09-6.235-1.679-9.487-1.829-3.27-.145-6.572.144-9.763.981-1.592.422-3.154.981-4.636 1.719-1.479.738-2.886 1.654-4.092 2.814 1.098-1.263 2.437-2.318 3.874-3.202 1.442-.885 2.99-1.599 4.587-2.178 3.2-1.152 6.606-1.759 10.021-1.91 3.435-.145 6.906.163 10.297 1.063 1.693.452 3.364 1.054 4.971 1.862 1.599.803 3.166 1.83 4.508 3.133l-2.569 2.464Zm2.954 14.94h1.854v2.108h-1.854v-2.108Zm3.707-12.544h1.552v10.115l5.623-5.84h1.934l-4.373 4.455 4.514 5.921h-1.854l-3.728-4.836-2.116 2.127v2.709h-1.552V36.777Zm10.256 4.275h1.552v2.709c.766-1.726 2.276-2.971 4.251-2.89v1.666h-.121c-2.277 0-4.13 1.626-4.13 4.757v4.135h-1.552V41.052Zm7.273-4.275h1.552v10.115l5.622-5.84h1.934l-4.373 4.455L125 51.428h-1.854l-3.728-4.836-2.116 2.127v2.709h-1.552V36.777ZM44.723 74.091h3.663v-.766h-2.803v-1.309h2.454v-.766h-2.454v-1.267h2.769v-.766h-3.629v4.874Zm5.262 0h.86v-1.413l.763-.78 1.671 2.193h1.049l-2.133-2.778 2.042-2.096h-1.063l-2.329 2.451v-2.451h-.86v4.874Zm7.661.084c1.503 0 2.566-1.149 2.566-2.521v-.014c0-1.372-1.049-2.507-2.552-2.507-1.503 0-2.566 1.149-2.566 2.521v.014c0 1.372 1.049 2.507 2.552 2.507Zm.014-.794c-.972 0-1.664-.78-1.664-1.727v-.014c0-.947.678-1.72 1.65-1.72.972 0 1.664.787 1.664 1.734v.014c0 .947-.678 1.713-1.65 1.713Zm9.075.794c1.503 0 2.566-1.149 2.566-2.521v-.014c0-1.372-1.049-2.507-2.552-2.507-1.503 0-2.566 1.149-2.566 2.521v.014c0 1.372 1.049 2.507 2.552 2.507Zm.014-.794c-.972 0-1.664-.78-1.664-1.727v-.014c0-.947.678-1.72 1.65-1.72.972 0 1.664.787 1.664 1.734v.014c0 .947-.678 1.713-1.65 1.713Zm5.107.71h.867V70.01h1.552v-.793h-3.971v.793h1.552v4.081Zm5.963.084c1.503 0 2.566-1.149 2.566-2.521v-.014c0-1.372-1.049-2.507-2.552-2.507-1.503 0-2.566 1.149-2.566 2.521v.014c0 1.372 1.049 2.507 2.552 2.507Zm.014-.794c-.972 0-1.664-.78-1.664-1.727v-.014c0-.947.678-1.72 1.65-1.72.972 0 1.664.787 1.664 1.734v.014c0 .947-.678 1.713-1.65 1.713Zm4.151.71h.86v-1.413l.762-.78 1.671 2.193h1.049l-2.133-2.778 2.042-2.096h-1.063l-2.328 2.451v-2.451h-.86v4.874Zm8.222 0h.86v-1.413l.762-.78 1.671 2.193h1.049l-2.132-2.778 2.041-2.096h-1.063l-2.328 2.451v-2.451h-.86v4.874Zm5.633 0h.86v-1.699h1.077l1.202 1.699h1.021l-1.321-1.845c.678-.195 1.16-.676 1.16-1.477v-.013c0-.425-.147-.787-.405-1.052-.315-.306-.797-.487-1.413-.487h-2.181v4.874Zm.86-2.458v-1.637h1.251c.637 0 1.014.286 1.014.808v.014c0 .495-.391.815-1.007.815h-1.258Zm4.76 2.458h.86v-1.413l.762-.78 1.671 2.193h1.049l-2.132-2.778 2.042-2.096h-1.063l-2.329 2.451v-2.451h-.86v4.874Z" fill="#62BB46"></path></g></svg> 