<?xml version="1.0" encoding="iso-8859-1"?>
<!-- Generator: Adobe Illustrator 22.1.0, SVG Export Plug-In . SVG Version: 6.00 Build 0)  -->
<svg version="1.1" id="Layer_1" xmlns="http://www.w3.org/2000/svg" xmlns:xlink="http://www.w3.org/1999/xlink" x="0px" y="0px"
	 viewBox="0 0 1133.9 425.2" style="enable-background:new 0 0 1133.9 425.2;" xml:space="preserve">
<style type="text/css">
	.st0{fill:#F32C18;}
	.st1{fill:#FFC935;}
	.st2{fill:#5AB847;}
	.st3{clip-path:url(#SVGID_2_);fill-rule:evenodd;clip-rule:evenodd;fill:#0A68B6;}
	.st4{clip-path:url(#SVGID_2_);fill-rule:evenodd;clip-rule:evenodd;fill:#2F4959;}
</style>
<rect x="68.5" y="107" class="st0" width="41.7" height="41.7"/>
<rect x="67.7" y="191.6" class="st1" width="41.7" height="41.7"/>
<rect x="66.9" y="276.3" class="st2" width="41.7" height="41.7"/>
<g>
	<defs>
		<rect id="SVGID_1_" x="61.9" y="102.6" width="1010" height="220"/>
	</defs>
	<clipPath id="SVGID_2_">
		<use xlink:href="#SVGID_1_"  style="overflow:visible;"/>
	</clipPath>
	<path class="st3" d="M281.1,106.7l-127.6,0.1L154,145l41.4,0.6l1,85.5c-0.1,26.8-20.6,41.5-44.2,45.4l-0.4,41.4
		c35.4,0,81.2-24.7,85.2-77.6l0.6-85.4c0.5-6.2,0.1-7.9,10.4-8.1l31.6,1.2c43.4,3.2,43.2,36.9,43.4,41l0.1,129.3l42.6,0.1l0-133.7
		c-1.1-29.9-27.8-70.4-69.2-76.7L281.1,106.7z"/>
	<path class="st4" d="M621.2,106.3l0.5,146.9c-2.7,70.3,60.4,63.8,72.6,65.6l35.9-1.5l1.2-22.2c-34.1-1.3-79.1,7.4-85-35.5
		l-1.1-93.1l74.2,0.5l-0.5-21l-72.1,0.5l-0.5-40.4H621.2z"/>
	<path class="st4" d="M880.7,222.7l-1.8,93.8c-142.6,13.8-150.5-63.1-97.9-90.1c19.2-9.9,45.5-12.9,74.4-15.6
		c-0.3-23.4-5.6-47.4-85.2-42.5l1.5-22l42,1.2C879.3,155.5,880.4,200.1,880.7,222.7 M856.8,226.6c-102.2,0-106.5,77.2-0.6,73.6
		L856.8,226.6z"/>
	<polygon class="st4" points="925.2,147.6 897.7,147.9 972.3,318.5 992.5,318.5 1065.6,148.5 1039.5,148.5 985.1,285.7 	"/>
	<path class="st4" d="M499.7,219.5l-1.1-18.4c61.1,1.1,101.1-77.4-13.1-74.7l4.3-20.3c138.8,0.1,92,92.5,53.3,100.4
		c74.5,6.2,81.8,113.9-68.5,110.7l-2.1-21.5C579.3,306.2,611.3,221.1,499.7,219.5"/>
</g>
</svg>
