<?xml version="1.0" encoding="UTF-8"?> <svg xmlns="http://www.w3.org/2000/svg" style="isolation:isolate" viewBox="0 0 560 200"><defs><clipPath id="a"><path d="M0 0h560v200H0z"></path></clipPath></defs><g fill="#4E9DC8" clip-path="url(#a)"><path d="M216.25 119.47c-1.78-58.17-49.47-104.8-108.08-104.8a107.7 107.7 0 0 0-64.9 21.63L21.63 14.68 0 101.21l68.23 22.74a65.07 65.07 0 0 1 27.79-34.9 64.58 64.58 0 0 1 33.78-9.47 64.56 64.56 0 0 1 38.27 12.5 65.5 65.5 0 0 1 14.81 15.08 37.86 37.86 0 0 1-28.6 58.83c-.15-.01-.31 0-.47-.02a21.62 21.62 0 0 1-22.1-12.62 21.13 21.13 0 0 1-.77-1.96c-.01-.08-.05-.15-.07-.23a19 19 0 0 1-.5-1.83l-.09-.33c-.13-.64-.23-1.28-.3-1.93l-.05-.3a21.48 21.48 0 0 1 2.8-13.11 21.6 21.6 0 0 0 40.34-10.82 21.63 21.63 0 0 0-21.63-21.63h-.13a43.06 43.06 0 0 0-37.35 21.7 42.83 42.83 0 0 0-5.79 21.56 43.27 43.27 0 0 0 43.26 43.27h.01c.92 0 1.83-.06 2.74-.1h.02c1.38-.05 2.76-.16 4.12-.3l.15-.02c1.32-.14 2.62-.32 3.91-.54l.36-.06c1.22-.22 2.43-.46 3.63-.74l.62-.16c1.11-.27 2.22-.56 3.3-.9.32-.09.63-.2.95-.3.97-.31 1.95-.63 2.9-.99.46-.17.91-.36 1.37-.54.8-.33 1.62-.64 2.4-1 .67-.3 1.31-.62 1.96-.94.58-.28 1.17-.55 1.75-.85a64.95 64.95 0 0 0 16.97-12.9 64.67 64.67 0 0 0 17.75-44.48v-.08c0-1.13-.03-2.25-.09-3.37ZM51.96 89.6a18.2 18.2 0 1 1 0-36.4 18.2 18.2 0 0 1 0 36.4ZM560 74.34l-6.35-20.68-15.88-51.7-20.68 6.35 15.88 51.7-20.68 6.35-9.53-31.02-20.68 6.35 9.53 31.02-24.2 7.44a32.45 32.45 0 1 0-63.6 0l-24.2-7.44 9.52-31.01-20.67-6.36-9.53 31.02-20.68-6.35 15.87-51.7-20.67-6.35-15.88 51.7-6.36 20.68L394.77 100l-83.56 25.66 6.36 20.68 15.88 51.7 20.67-6.35-15.87-51.7 20.68-6.35 9.53 31.01 20.67-6.34-9.52-31.03 13.95-4.28a43.27 43.27 0 1 0 84.1 0l13.95 4.29-9.53 31.02 20.68 6.34 9.53-31.01 20.68 6.35-15.88 51.7 20.68 6.35 15.88-51.7 6.35-20.68L476.45 100 560 74.34ZM435.6 62.83a10.82 10.82 0 1 1 0 21.64 10.82 10.82 0 0 1 0-21.64Zm0 91.94a21.63 21.63 0 1 1 0-43.27 21.63 21.63 0 0 1 0 43.27Z"></path></g></svg> 